SplineFontDB: 3.0
FontName: PfennigItalic
FullName: Pfennig Italic
FamilyName: Pfennig
Weight: Medium
Copyright: Copyright 2009, 2010 by Daniel Johnson.  Released under the terms of the SIL Open Font License.
UComments: "2009-7-16: Created." 
Version: 20100423
ItalicAngle: -13
UnderlinePosition: -100
UnderlineWidth: 50
Ascent: 800
Descent: 200
LayerCount: 2
Layer: 0 0 "Back"  1
Layer: 1 0 "Fore"  0
NeedsXUIDChange: 1
XUID: [1021 1003 1579404955 6722392]
FSType: 0
OS2Version: 0
OS2_WeightWidthSlopeOnly: 0
OS2_UseTypoMetrics: 1
CreationTime: 1247766582
ModificationTime: 1272034974
PfmFamily: 33
TTFWeight: 500
TTFWidth: 5
LineGap: 90
VLineGap: 0
OS2TypoAscent: 0
OS2TypoAOffset: 1
OS2TypoDescent: 0
OS2TypoDOffset: 1
OS2TypoLinegap: 90
OS2WinAscent: 0
OS2WinAOffset: 1
OS2WinDescent: 0
OS2WinDOffset: 1
HheadAscent: 0
HheadAOffset: 1
HheadDescent: 0
HheadDOffset: 1
OS2Vendor: 'PfEd'
Lookup: 1 0 0 "'locl' Localized Forms in Sami"  {"'locl' Localized Forms in Sami-1"  } ['locl' ('latn' <'ISM ' > 'latn' <'LSM ' > 'latn' <'NSM ' > 'latn' <'SKS ' > ) ]
Lookup: 4 0 1 "'liga' Standard Ligatures in Latin lookup 0"  {"'liga' Standard Ligatures in Latin lookup 0-1"  } ['liga' ('DFLT' <'dflt' > 'latn' <'dflt' > ) ]
Lookup: 258 0 0 "'kern' Horizontal Kerning lookup 1"  {"'kern' Horizontal Kerning lookup 1-1"  } ['kern' ('DFLT' <'dflt' > 'cyrl' <'dflt' > 'latn' <'dflt' > ) ]
Lookup: 260 0 0 "'mark' Mark Positioning in Latin lookup 0"  {"'mark' Mark Positioning in Latin lookup 0-1"  } ['mark' ('DFLT' <'dflt' > 'latn' <'dflt' > ) ]
MarkAttachClasses: 1
DEI: 91125
KernClass2: 9 9 "'kern' Horizontal Kerning lookup 1-1" 
 109 A L Agrave Aacute Acircumflex Atilde Adieresis Aring Amacron Abreve Aogonek Lacute Lcommaaccent Lcaron Lslash

StartChar: d
Encoding: 100 100 0
Width: 558
VWidth: 0
Flags: W
HStem: -10 50<197.062 325.435 451.5 531.138> 400 50<271.347 394.934>
VStem: 73 82<84.7649 262.479> 423 50<89 286> 532 34<45.4626 64>
AnchorPoint: "bottom" 237 0 basechar 0
AnchorPoint: "top" 359 490 basechar 0
LayerCount: 2
Fore
SplineSet
73 155 m 0
 73 289 179 450 336 450 c 0
 389 450 431 432 460 402 c 1
 519 660 l 1
 599 660 l 1
 478 135 l 2
 474 118 473 103 473 89 c 0
 473 60 480 40 494 40 c 0
 512 40 529 51 532 64 c 1
 566 64 l 1
 557 23 514 -10 469 -10 c 0
 434 -10 407 9 395 38 c 1
 349 4 293 -10 230 -10 c 0
 127 -10 73 60 73 155 c 0
256 40 m 0
 356 40 423 157 423 286 c 0
 423 348 402 400 339 400 c 0
 243 400 155 277 155 170 c 0
 155 102 188 40 256 40 c 0
EndSplineSet
Validated: 1
EndChar

StartChar: a
Encoding: 97 97 1
Width: 517
VWidth: 0
Flags: W
HStem: -10 50<178.706 338.431 413 488.55> 400 50<259.577 414.941>
VStem: 75 77<66.3625 254.475> 347 84<55.4116 132.913> 490 35<45.4626 64>
AnchorPoint: "bottom" 218 0 basechar 0
AnchorPoint: "ogonek" 441 0 basechar 0
AnchorPoint: "top" 357 490 basechar 0
LayerCount: 2
Fore
SplineSet
75 151 m 0
 75 301 215 450 333 450 c 0
 416 450 461 429 500 409 c 1
 437 135 l 2
 433 118 431 101 431 87 c 0
 431 59 439 40 452 40 c 0
 470 40 487 51 490 64 c 1
 525 64 l 1
 516 23 472 -10 427 -10 c 0
 399 -10 377 2 363 21 c 1
 315 1 265 -10 215 -10 c 0
 127 -10 75 59 75 151 c 0
416 389 m 1
 397 396 372 400 336 400 c 0
 189 400 152 202 152 138 c 0
 152 62 194 40 241 40 c 0
 276 40 312 48 347 64 c 1
 347 68 347 72 347 76 c 0
 347 85 348 94 350 104 c 2
 416 389 l 1
EndSplineSet
Validated: 1
EndChar

StartChar: h
Encoding: 104 104 2
Width: 475
VWidth: 0
Flags: W
HStem: 0 21G<70 154.646 381 465.583> 400 50<273.387 426.164> 620 50<138.856 225>
VStem: 104 34<596 614.537> 197 85<481.102 619.258> 446 80<190.031 379.739>
AnchorPoint: "bottom" 268 0 basechar 0
AnchorPoint: "top" 349 700 basechar 0
LayerCount: 2
Fore
SplineSet
191 525 m 2
 195 542 197 557 197 571 c 0
 197 600 189 620 175 620 c 0
 157 620 141 609 138 596 c 1
 104 596 l 1
 113 637 156 670 201 670 c 0
 249 670 282 634 282 584 c 0
 282 575 280 566 278 556 c 2
 248 425 l 1
 283 441 319 450 356 450 c 0
 469 450 526 405 526 313 c 0
 526 291 522 267 516 240 c 2
 461 0 l 1
 381 0 l 1
 434 228 l 2
 442 263 446 291 446 314 c 0
 446 382 411 400 359 400 c 0
 314 400 272 382 232 353 c 1
 150 0 l 1
 70 0 l 1
 191 525 l 2
EndSplineSet
Validated: 1
EndChar

StartChar: e
Encoding: 101 101 3
Width: 471
VWidth: 0
Flags: W
HStem: -10 50<204.408 358.284> 220 50<177 424.404> 400 50<268.865 397.461>
VStem: 73 81<88.6373 217.82> 426 78<271.361 370.242>
AnchorPoint: "bottom" 249 0 basechar 0
AnchorPoint: "ogonek" 273 0 basechar 0
AnchorPoint: "top" 358 490 basechar 0
LayerCount: 2
Fore
SplineSet
504 279 m 0
 504 246 481 220 412 220 c 10
 160 220 l 1
 156 202 154 184 154 166 c 0
 154 88 202 40 280 40 c 0
 331 40 372 63 404 100 c 1
 459 77 l 1
 407 26 336 -10 254 -10 c 0
 144 -10 73 54 73 158 c 0
 73 318 216 450 340 450 c 0
 454 450 504 369 504 279 c 0
177 270 m 1
 384 270 l 2
 412 270 426 275 426 291 c 0
 426 355 400 400 343 400 c 0
 273 400 210 343 177 270 c 1
EndSplineSet
Validated: 1
EndChar

StartChar: n
Encoding: 110 110 4
Width: 505
VWidth: 0
Flags: W
HStem: 0 21G<70 154.643 381 465.583> 400 50<87.8561 165.5 273.827 426.164>
VStem: 53 34<376 394.537> 446 80<190.031 379.739>
AnchorPoint: "bottom" 262 0 basechar 0
AnchorPoint: "cedilla" 262 0 basechar 0
AnchorPoint: "top" 379 490 basechar 0
LayerCount: 2
Fore
SplineSet
140 305 m 2
 144 322 146 337 146 351 c 0
 146 380 138 400 124 400 c 0
 106 400 90 389 87 376 c 1
 53 376 l 1
 62 417 105 450 150 450 c 0
 181 450 205 435 219 411 c 1
 262 436 309 450 356 450 c 0
 469 450 526 405 526 313 c 0
 526 291 522 267 516 240 c 2
 461 0 l 1
 381 0 l 1
 434 228 l 2
 442 263 446 291 446 314 c 0
 446 382 411 400 359 400 c 0
 314 400 270 381 230 352 c 1
 229 347 229 342 228 336 c 2
 150 0 l 1
 70 0 l 1
 140 305 l 2
EndSplineSet
Validated: 1
EndChar

StartChar: c
Encoding: 99 99 5
Width: 461
VWidth: 0
Flags: W
HStem: -10 50<204.408 358.284> 400 50<269.876 397.685>
VStem: 73 81<88.6373 264.964> 426 72<326.792 369.155>
AnchorPoint: "bottom" 264 0 basechar 0
AnchorPoint: "cedilla" 264 0 basechar 0
AnchorPoint: "top" 359 490 basechar 0
LayerCount: 2
Fore
SplineSet
73 158 m 0
 73 318 216 450 340 450 c 0
 432 450 482 398 498 330 c 1
 426 297 l 1
 424 357 398 400 343 400 c 0
 241 400 154 279 154 166 c 0
 154 88 202 40 280 40 c 0
 331 40 372 63 404 100 c 1
 459 77 l 1
 407 26 336 -10 254 -10 c 0
 144 -10 73 54 73 158 c 0
EndSplineSet
Validated: 1
EndChar

StartChar: b
Encoding: 98 98 6
Width: 492
VWidth: 0
Flags: W
HStem: -10 50<203.486 360.81> 400 50<299.694 433.387> 620 50<138.856 225>
VStem: 103 77<63.1212 224> 104 34<596 614.537> 197 85<480.383 619.258> 465 82<176.614 367.533>
AnchorPoint: "bottom" 241 0 basechar 0
AnchorPoint: "top" 397 490 basechar 0
LayerCount: 2
Fore
SplineSet
547 296 m 0xee
 547 202 493 -10 268 -10 c 0
 184 -10 103 8 103 113 c 0xf6
 103 132 106 155 112 180 c 2
 191 525 l 2
 195 542 197 557 197 571 c 0
 197 600 189 620 175 620 c 0
 157 620 141 609 138 596 c 1
 104 596 l 1
 113 637 156 670 201 670 c 0
 249 670 282 634 282 584 c 0
 282 575 280 566 278 556 c 2
 246 415 l 1
 285 438 329 450 374 450 c 0
 500 450 547 385 547 296 c 0xee
184 148 m 2
 181 136 180 125 180 115 c 0
 180 52 235 40 294 40 c 0
 397 40 465 180 465 284 c 0
 465 346 441 400 377 400 c 0
 284 400 224 322 203 230 c 2
 184 148 l 2
EndSplineSet
Validated: 1
EndChar

StartChar: s
Encoding: 115 115 7
Width: 420
VWidth: 0
Flags: W
HStem: -10 50<136.367 294.48> 400 50<228.19 353.081>
VStem: 123 81<283.866 374.997> 336 82<82.1625 182.883>
AnchorPoint: "cedilla" 206 0 basechar 0
AnchorPoint: "bottom" 206 0 basechar 0
AnchorPoint: "top" 303 490 basechar 0
LayerCount: 2
Fore
SplineSet
123 312 m 0
 123 374 186 450 283 450 c 0
 353 450 398 429 446 388 c 1
 379 353 l 1
 346 385 339 400 286 400 c 0
 220 400 204 345 204 321 c 0
 204 291 229 275 270 267 c 0
 373 247 418 207 418 153 c 0
 418 88 361 -10 197 -10 c 0
 120 -10 93 14 43 57 c 1
 95 94 l 1
 137 59 153 40 223 40 c 0
 329 40 336 134 336 144 c 0
 336 183 296 198 247 207 c 0
 165 223 123 260 123 312 c 0
EndSplineSet
Validated: 1
EndChar

StartChar: i
Encoding: 105 105 8
Width: 236
VWidth: 0
Flags: W
HStem: -10 50<123 209.138> 420 20G<142.357 227> 520 80<184 245>
VStem: 66 85<41.4688 133.037> 210 34<45.4626 64>
AnchorPoint: "bottom" 84 0 basechar 0
AnchorPoint: "ogonek" 121 0 basechar 0
LayerCount: 2
Fore
SplineSet
184 600 m 1
 264 600 l 1
 245 520 l 1
 165 520 l 1
 184 600 l 1
156 135 m 6
 152 118 151 103 151 89 c 4
 151 60 158 40 172 40 c 4
 190 40 207 51 210 64 c 5
 244 64 l 5
 235 23 192 -10 147 -10 c 4
 99 -10 66 26 66 76 c 4
 66 85 67 94 69 104 c 6
 147 440 l 1
 227 440 l 1
 156 135 l 6
EndSplineSet
Validated: 1
EndChar

StartChar: o
Encoding: 111 111 9
Width: 495
VWidth: 0
Flags: W
HStem: -10 50<187.836 326.191> 400 50<270.281 402.066>
VStem: 72 80<76.4648 258.664> 438 82<178.475 360.988>
AnchorPoint: "horn" 488 310 basechar 0
AnchorPoint: "bottom" 238 0 basechar 0
AnchorPoint: "ogonek" 248 0 basechar 0
AnchorPoint: "top" 360 490 basechar 0
LayerCount: 2
Fore
SplineSet
260 40 m 0
 363 40 438 172 438 281 c 0
 438 354 403 400 343 400 c 0
 243 400 152 282 152 152 c 0
 152 82 187 40 260 40 c 0
520 290 m 0
 520 185 451 -10 234 -10 c 0
 128 -10 72 49 72 147 c 0
 72 321 217 450 340 450 c 0
 448 450 520 397 520 290 c 0
EndSplineSet
Validated: 1
EndChar

StartChar: t
Encoding: 116 116 10
Width: 282
VWidth: 0
Flags: W
HStem: -10 50<169 255.138> 390 50<142 181 273 340>
VStem: 112 85<41.4688 133.014> 256 34<45.4626 64>
AnchorPoint: "bottom" 128 0 basechar 0
AnchorPoint: "cedilla" 192 2 basechar 0
AnchorPoint: "top" 284 660 basechar 0
LayerCount: 2
Fore
SplineSet
202 135 m 2
 198 118 197 103 197 89 c 0
 197 60 204 40 218 40 c 0
 236 40 253 51 256 64 c 1
 290 64 l 1
 281 23 238 -10 193 -10 c 0
 145 -10 112 26 112 76 c 0
 112 85 113 94 115 104 c 2
 181 390 l 1
 115 390 l 1
 142 440 l 1
 193 440 l 1
 226 585 l 1
 310 600 l 1
 273 440 l 1
 352 440 l 1
 340 390 l 1
 261 390 l 1
 202 135 l 2
EndSplineSet
Validated: 1
EndChar

StartChar: m
Encoding: 109 109 11
Width: 717
VWidth: 0
Flags: W
HStem: 0 21G<40 124.643 321 405.615 593 677.583> 400 50<57.8561 135.5 235.277 379.591 512.192 651.551>
VStem: 23 34<376 394.537> 116 85<257.344 370.651> 663 77<209.844 389.542>
AnchorPoint: "bottom" 362 0 basechar 0
AnchorPoint: "top" 475 490 basechar 0
LayerCount: 2
Fore
SplineSet
110 305 m 2
 114 322 116 337 116 351 c 0
 116 380 108 400 94 400 c 0
 76 400 60 389 57 376 c 1
 23 376 l 1
 32 417 75 450 120 450 c 0
 151 450 175 435 189 411 c 1
 230 436 264 450 311 450 c 0
 381 450 426 433 449 398 c 1
 491 426 541 450 588 450 c 0
 696 450 740 410 740 327 c 0
 740 302 736 273 728 240 c 2
 673 0 l 1
 593 0 l 1
 649 244 l 2
 658 283 663 313 663 335 c 0
 663 389 637 400 591 400 c 0
 546 400 510 384 482 351 c 1
 401 0 l 1
 321 0 l 1
 377 244 l 2
 386 282 391 312 391 334 c 0
 391 389 364 400 314 400 c 0
 270 400 236 383 201 355 c 1
 201 349 199 343 198 336 c 2
 120 0 l 1
 40 0 l 1
 110 305 l 2
EndSplineSet
Validated: 1
EndChar

StartChar: f
Encoding: 102 102 12
Width: 287
VWidth: 0
Flags: W
HStem: -135 50<7.45861 60.9089> 390 50<142 181 273 340> 620 50<325.26 416.861>
VStem: -29 36<-83.0896 -61>
AnchorPoint: "bottom" 95 -125 basechar 0
AnchorPoint: "top" 338 700 basechar 0
LayerCount: 2
Fore
SplineSet
166 -21 m 2
 151 -84 93 -135 36 -135 c 0
 -3 -135 -29 -110 -29 -77 c 0
 -29 -72 -28 -66 -27 -61 c 1
 7 -61 l 1
 7 -65 l 2
 7 -76 17 -85 33 -85 c 0
 53 -85 81 -42 93 10 c 2
 181 390 l 1
 115 390 l 1
 142 440 l 1
 193 440 l 1
 215 535 l 2
 234 615 291 670 371 670 c 0
 400 670 422 666 439 659 c 1
 406 605 l 1
 400 615 391 620 374 620 c 0
 334 620 309 597 289 509 c 2
 273 440 l 1
 352 440 l 1
 340 390 l 1
 261 390 l 1
 166 -21 l 2
EndSplineSet
Validated: 1
EndChar

StartChar: j
Encoding: 106 106 13
Width: 164
VWidth: 0
Flags: W
HStem: -170 50<-112.799 0.328871> 420 20G<137.364 222> 520 80<179 240>
AnchorPoint: "bottom" -51 -170 basechar 0
LayerCount: 2
Fore
SplineSet
-89 -95 m 5
 -80 -115 -61 -120 -42 -120 c 4
 -2 -120 21 -82 40 0 c 6
 142 440 l 1
 222 440 l 1
 112 -33 l 6
 89 -132 2 -170 -68 -170 c 4
 -106 -170 -140 -156 -159 -125 c 5
 -89 -95 l 5
179 600 m 1
 259 600 l 1
 240 520 l 1
 160 520 l 1
 179 600 l 1
EndSplineSet
Validated: 1
EndChar

StartChar: l
Encoding: 108 108 15
Width: 242
VWidth: 0
Flags: W
HStem: -10 50<123 209.138>
VStem: 66 85<41.4688 133.71> 210 34<45.4626 64>
AnchorPoint: "bottom" 84 0 basechar 0
AnchorPoint: "cedilla" 140 -2 basechar 0
AnchorPoint: "top" 247 700 basechar 0
LayerCount: 2
Fore
SplineSet
156 135 m 2
 152 118 151 103 151 89 c 0
 151 60 158 40 172 40 c 8
 190 40 207 51 210 64 c 25
 244 64 l 25
 235 23 192 -10 147 -10 c 16
 99 -10 66 26 66 76 c 0
 66 85 67 94 69 104 c 10
 197 660 l 25
 277 660 l 25
 156 135 l 2
EndSplineSet
Validated: 1
EndChar

StartChar: p
Encoding: 112 112 16
Width: 491
VWidth: 0
Flags: W
HStem: -8 50<196.641 319.991> 402 50<61.7446 137 261.9 401.135>
VStem: 23 34<376 392.753> 435 80<178.308 365.472>
AnchorPoint: "bottom" 260 0 basechar 0
AnchorPoint: "top" 365 490 basechar 0
LayerCount: 2
Fore
SplineSet
260 42 m 0
 333 42 435 154 435 278 c 0
 435 344 408 402 353 402 c 0
 246 402 199 341 177 246 c 0
 170 217 165 186 165 157 c 0
 165 95 188 42 260 42 c 0
110 305 m 2
 115 328 120 349 120 365 c 0
 120 386 113 400 94 400 c 0
 78 400 60 388 57 376 c 1
 23 376 l 1
 32 417 77 450 120 450 c 0
 154 450 179 433 192 407 c 1
 235 439 288 452 349 452 c 0
 454 452 515 379 515 281 c 0
 515 129 375 -8 233 -8 c 0
 187 -8 152 5 127 29 c 1
 74 -200 l 1
 -6 -200 l 1
 110 305 l 2
EndSplineSet
Validated: 1
EndChar

StartChar: q
Encoding: 113 113 17
Width: 558
VWidth: 0
Flags: W
HStem: -200 50<406 492.138> -10 50<190.074 323.806> 400 50<262.657 420.334>
VStem: 76 82<72.4668 260.831> 349 85<-149.258 -6.35938> 444 77<219.797 376.879> 493 34<-144.537 -126>
AnchorPoint: "bottom" 240 0 basechar 0
AnchorPoint: "top" 359 490 basechar 0
LayerCount: 2
Fore
SplineSet
76 144 m 0xfa
 76 238 131 450 356 450 c 0
 440 450 521 432 521 327 c 0xfc
 521 308 518 285 512 260 c 2
 439 -55 l 2
 435 -72 434 -87 434 -101 c 0
 434 -130 441 -150 455 -150 c 0
 473 -150 490 -139 493 -126 c 1
 527 -126 l 1
 518 -167 475 -200 430 -200 c 0
 382 -200 349 -164 349 -114 c 0
 349 -105 350 -96 352 -86 c 2
 378 24 l 1
 339 1 295 -10 250 -10 c 0
 124 -10 76 55 76 144 c 0xfa
420 210 m 2
 439 292 l 2
 442 304 444 315 444 325 c 0
 444 388 388 400 329 400 c 0
 226 400 158 260 158 156 c 0
 158 94 182 40 246 40 c 0
 339 40 399 118 420 210 c 2
EndSplineSet
Validated: 1
EndChar

StartChar: r
Encoding: 114 114 18
Width: 356
VWidth: 0
Flags: W
HStem: 0 21G<70 154.643> 400 50<87.8561 165.5 258.54 401.288>
VStem: 53 34<376 394.537> 146 85<306.963 374.107>
AnchorPoint: "bottom" 112 0 basechar 0
AnchorPoint: "cedilla" 108 0 basechar 0
AnchorPoint: "top" 305 490 basechar 0
LayerCount: 2
Fore
SplineSet
410 362 m 1
 402 391 370 400 333 400 c 0
 290 400 262 384 231 357 c 1
 231 350 230 343 228 336 c 2
 150 0 l 1
 70 0 l 1
 140 305 l 2
 144 322 146 337 146 351 c 0
 146 380 138 400 124 400 c 0
 106 400 90 389 87 376 c 1
 53 376 l 1
 62 417 105 450 150 450 c 0
 181 450 205 435 219 411 c 1
 260 436 291 450 338 450 c 0
 375 450 404 445 427 436 c 1
 410 362 l 1
EndSplineSet
Validated: 1
EndChar

StartChar: u
Encoding: 117 117 19
Width: 542
VWidth: 0
Flags: W
HStem: -10 50<185.772 337.145 437.5 515.138> 420 20G<137.333 222 448.357 533>
VStem: 75 84<67.0918 244.531> 372 85<69.3494 182.656> 516 34<45.4626 64>
AnchorPoint: "bottom" 230 0 basechar 0
AnchorPoint: "horn" 503 310 basechar 0
AnchorPoint: "ogonek" 455 0 basechar 0
AnchorPoint: "top" 351 490 basechar 0
LayerCount: 2
Fore
SplineSet
462 135 m 2
 458 118 457 103 457 89 c 0
 457 60 464 40 478 40 c 0
 496 40 513 51 516 64 c 1
 550 64 l 1
 541 23 498 -10 453 -10 c 0
 422 -10 397 6 383 30 c 1
 337 5 279 -10 232 -10 c 0
 123 -10 75 31 75 117 c 0
 75 141 79 169 86 200 c 2
 142 440 l 1
 222 440 l 1
 169 212 l 2
 162 183 159 158 159 137 c 0
 159 60 203 40 258 40 c 0
 302 40 337 57 372 85 c 1
 372 91 374 98 375 104 c 2
 453 440 l 1
 533 440 l 1
 462 135 l 2
EndSplineSet
Validated: 1
EndChar

StartChar: g
Encoding: 103 103 20
Width: 533
VWidth: 0
Flags: W
HStem: -170 50<129.02 289.108> -10 50<192.338 342.673> 400 50<258.165 382.71 523.852 578.537>
VStem: 72 81<79.2509 261.481> 579 36<376 398.09>
AnchorPoint: "bottom" 194 -161 basechar 0
AnchorPoint: "top" 346 490 basechar 0
LayerCount: 2
Fore
SplineSet
328 400 m 0
 216 400 153 254 153 156 c 0
 153 84 190 40 265 40 c 0
 301 40 332 51 358 71 c 1
 411 297 l 1
 409 357 383 400 328 400 c 0
344 11 m 1
 312 -2 277 -10 239 -10 c 0
 132 -10 72 51 72 150 c 0
 72 304 194 450 325 450 c 0
 383 450 423 430 450 398 c 1
 476 430 514 450 550 450 c 0
 589 450 615 425 615 392 c 0
 615 387 614 381 613 376 c 1
 579 376 l 1
 579 380 l 2
 579 391 568 400 552 400 c 0
 532 400 504 357 492 305 c 2
 440 78 l 2
 394 -122 355 -170 178 -170 c 0
 123 -170 70 -149 30 -125 c 1
 92 -73 l 1
 131 -105 169 -120 204 -120 c 0
 296 -120 319 -86 344 11 c 1
EndSplineSet
Validated: 1
EndChar

StartChar: v
Encoding: 118 118 21
Width: 455
VWidth: 0
Flags: W
HStem: 0 21G<187.364 281.909> 420 20G<132 207.647 440.118 532>
AnchorPoint: "bottom" 228 0 basechar 0
AnchorPoint: "top" 345 490 basechar 0
LayerCount: 2
Fore
SplineSet
270 0 m 1
 190 0 l 1
 132 440 l 1
 205 440 l 1
 250 100 l 1
 452 440 l 1
 532 440 l 1
 270 0 l 1
EndSplineSet
Validated: 1
EndChar

StartChar: w
Encoding: 119 119 22
Width: 775
VWidth: 0
Flags: W
HStem: 0 21G<187.364 281.879 507.333 601.909> 420 20G<132 207.647 440.118 527.647 760.118 852>
AnchorPoint: "bottom" 390 0 basechar 0
AnchorPoint: "top" 500 490 basechar 0
LayerCount: 2
Fore
SplineSet
250 100 m 1
 452 440 l 1
 525 440 l 1
 570 100 l 1
 772 440 l 1
 852 440 l 1
 590 0 l 1
 510 0 l 1
 466 330 l 1
 270 0 l 1
 190 0 l 1
 132 440 l 1
 205 440 l 1
 250 100 l 1
EndSplineSet
Validated: 1
EndChar

StartChar: x
Encoding: 120 120 23
Width: 466
VWidth: 0
Flags: W
HStem: 0 21G<30 134.6 335.657 431> 420 20G<160 254.271 401.256 505>
AnchorPoint: "bottom" 229 0 basechar 0
AnchorPoint: "top" 345 490 basechar 0
LayerCount: 2
Fore
SplineSet
243 241 m 1
 160 440 l 1
 246 440 l 1
 301 307 l 1
 419 440 l 1
 505 440 l 1
 329 241 l 1
 431 0 l 1
 344 0 l 1
 271 175 l 1
 117 0 l 1
 30 0 l 1
 243 241 l 1
EndSplineSet
Validated: 1
EndChar

StartChar: y
Encoding: 121 121 24
Width: 455
VWidth: 0
Flags: W
HStem: -170 50<64.8183 127.781> 420 20G<132 207.647 440.118 532>
AnchorPoint: "ogonek" 308 0 basechar 0
AnchorPoint: "bottom" 146 -154 basechar 0
AnchorPoint: "top" 346 490 basechar 0
LayerCount: 2
Fore
SplineSet
67 -170 m 0
 28 -170 5 -142 -21 -104 c 1
 50 -72 l 1
 72 -118 82 -120 93 -120 c 0
 120 -120 141 -82 177 -22 c 2
 190 0 l 1
 132 440 l 1
 205 440 l 1
 250 100 l 1
 452 440 l 1
 532 440 l 1
 255 -24 l 2
 201 -115 144 -170 67 -170 c 0
EndSplineSet
Validated: 1
EndChar

StartChar: k
Encoding: 107 107 25
Width: 448
VWidth: 0
Flags: W
HStem: 0 21G<70 154.58 346.808 444> 420 20G<413.585 528> 620 50<138.856 225>
VStem: 104 34<596 614.537> 197 85<482.141 619.258>
AnchorPoint: "bottom" 246 0 basechar 0
AnchorPoint: "cedilla" 246 0 basechar 0
AnchorPoint: "top" 349 700 basechar 0
LayerCount: 2
Fore
SplineSet
150 0 m 1
 70 0 l 1
 191 525 l 2
 195 542 197 557 197 571 c 0
 197 600 189 620 175 620 c 0
 157 620 141 609 138 596 c 1
 104 596 l 1
 113 637 156 670 201 670 c 0
 249 670 282 634 282 584 c 0
 282 575 280 566 278 556 c 2
 204 233 l 1
 436 440 l 1
 528 440 l 1
 308 245 l 1
 444 0 l 1
 358 0 l 1
 250 193 l 1
 180 131 l 1
 150 0 l 1
EndSplineSet
Validated: 1
EndChar

StartChar: z
Encoding: 122 122 26
Width: 413
VWidth: 0
Flags: W
HStem: -114 40<88.2 163.128> 390 50<117 326>
VStem: 280 80<8.56954 143.732>
AnchorPoint: "bottom" 144 -101 basechar 0
AnchorPoint: "top" 281 490 basechar 0
LayerCount: 2
Fore
SplineSet
326 390 m 1
 90 390 l 1
 117 440 l 1
 453 440 l 1
 235 250 l 1
 281 222 360 162 360 80 c 0
 360 -96 91 -114 91 -114 c 1
 75 -74 l 1
 75 -74 280 -58 280 77 c 0
 280 177 146 234 146 234 c 1
 326 390 l 1
EndSplineSet
Validated: 1
EndChar

StartChar: A
Encoding: 65 65 27
Width: 623
VWidth: 0
Flags: W
HStem: 0 21G<15 106.9 530.3 613> 200 50<244 500> 680 20G<420.086 522.657>
AnchorPoint: "bottom" 312 0 basechar 0
AnchorPoint: "ogonek" 533 0 basechar 0
AnchorPoint: "top" 476 700 basechar 0
LayerCount: 2
Fore
SplineSet
533 3 m 1,0,-1
15 0 m 1,1,-1
 432 700 l 1,2,-1
 520 700 l 1,3,-1
 613 0 l 1,4,-1
 533 0 l 1,5,-1
 506 200 l 1,6,-1
 214 200 l 1,7,-1
 95 0 l 1,8,-1
 15 0 l 1,1,-1
453 601 m 1,9,-1
 244 250 l 1,10,-1
 500 250 l 1,11,-1
 453 601 l 1,9,-1
EndSplineSet
Validated: 1
EndChar

StartChar: B
Encoding: 66 66 28
Width: 514
VWidth: 0
Flags: W
HStem: 0 50<137 341.681> 355 50<219 378.299> 650 50<275 439.934>
VStem: 426 86<146.444 320.985> 461 87<487.76 630.119>
AnchorPoint: "bottom" 230 0 basechar 0
AnchorPoint: "top" 362 700 basechar 0
LayerCount: 2
Fore
SplineSet
267 50 m 2xf0
 368 50 426 147 426 239 c 0
 426 297 403 355 337 355 c 2
 207 355 l 1
 137 50 l 1
 267 50 l 2xf0
219 405 m 1
 307 405 l 2
 380 405 461 473 461 566 c 0xe8
 461 606 446 650 385 650 c 2
 275 650 l 1
 219 405 l 1
426 388 m 1xf0
 488 361 512 304 512 244 c 0xf0
 512 128 428 0 240 0 c 2
 40 0 l 1
 202 700 l 1
 382 700 l 2
 509 700 548 648 548 580 c 0xe8
 548 500 503 428 426 388 c 1xf0
EndSplineSet
Validated: 1
EndChar

StartChar: P
Encoding: 80 80 29
Width: 474
VWidth: 0
Flags: W
HStem: 0 21G<45 134.625> 320 50<215 418.917> 650 50<280 473.273>
VStem: 504 85<464.216 620.779>
AnchorPoint: "bottom" 180 0 basechar 0
AnchorPoint: "top" 396 700 basechar 0
LayerCount: 2
Fore
SplineSet
589 551 m 0
 589 452 496 320 324 320 c 2
 204 320 l 1
 130 0 l 1
 45 0 l 1
 207 700 l 1
 412 700 l 2
 546 700 589 623 589 551 c 0
280 650 m 1
 215 370 l 1
 350 370 l 2
 442 370 504 469 504 551 c 0
 504 601 482 650 415 650 c 2
 280 650 l 1
EndSplineSet
Validated: 1
EndChar

StartChar: C
Encoding: 67 67 30
Width: 647
VWidth: 0
Flags: W
HStem: -10 50<285.802 467.033> 660 50<397.542 585.54>
VStem: 98 86<149.872 377.59>
AnchorPoint: "bottom" 350 0 basechar 0
AnchorPoint: "cedilla" 350 0 basechar 0
AnchorPoint: "top" 492 700 basechar 0
LayerCount: 2
Fore
SplineSet
494 660 m 0
 289 660 184 400 184 255 c 0
 184 104 286 40 366 40 c 0
 443 40 511 72 561 129 c 1
 614 102 l 1
 549 38 449 -10 340 -10 c 0
 229 -10 98 70 98 249 c 0
 98 449 260 710 491 710 c 0
 627 710 694 665 727 608 c 1
 645 575 l 1
 623 622 578 660 494 660 c 0
EndSplineSet
Validated: 1
EndChar

StartChar: D
Encoding: 68 68 31
Width: 594
VWidth: 0
Flags: W
HStem: 0 50<142 381.707> 650 50<280 518.773>
VStem: 565 84<350.702 598.965>
AnchorPoint: "bottom" 250 0 basechar 0
AnchorPoint: "top" 406 700 basechar 0
LayerCount: 2
Fore
SplineSet
649 498 m 0
 649 378 577 0 287 0 c 2
 45 0 l 1
 207 700 l 1
 449 700 l 2
 574 700 649 640 649 498 c 0
280 650 m 1
 142 50 l 1
 314 50 l 2
 488 50 565 380 565 500 c 0
 565 611 515 650 452 650 c 2
 280 650 l 1
EndSplineSet
Validated: 1
EndChar

StartChar: E
Encoding: 69 69 32
Width: 470
VWidth: 0
Flags: W
HStem: 0 50<137 460> 390 50<227 444> 650 50<275 594>
AnchorPoint: "bottom" 262 0 basechar 0
AnchorPoint: "ogonek" 368 0 basechar 0
AnchorPoint: "top" 417 700 basechar 0
LayerCount: 2
Fore
SplineSet
460 0 m 1
 40 0 l 1
 202 700 l 1
 606 700 l 1
 594 650 l 9
 275 650 l 1
 227 440 l 1
 456 440 l 17
 444 390 l 9
 215 390 l 1
 137 50 l 1
 472 50 l 17
 460 0 l 1
EndSplineSet
Validated: 1
EndChar

StartChar: F
Encoding: 70 70 33
Width: 439
VWidth: 0
Flags: W
HStem: 0 21G<45 134.615> 390 50<232 449> 650 50<280 599>
AnchorPoint: "bottom" 160 0 basechar 0
AnchorPoint: "top" 417 700 basechar 0
LayerCount: 2
Fore
SplineSet
45 0 m 1
 207 700 l 1
 611 700 l 17
 599 650 l 9
 280 650 l 1
 232 440 l 1
 461 440 l 17
 449 390 l 9
 220 390 l 1
 130 0 l 1
 45 0 l 1
EndSplineSet
Validated: 1
EndChar

StartChar: G
Encoding: 71 71 34
Width: 647
VWidth: 0
Flags: W
HStem: -10 50<285.802 466.644> 350 50<517 591> 650 50<391.938 591.117>
VStem: 98 86<149.872 381.15>
AnchorPoint: "cedilla" 350 0 basechar 0
AnchorPoint: "top" 492 700 basechar 0
LayerCount: 2
Fore
SplineSet
681 400 m 1
 614 102 l 1
 549 38 449 -10 340 -10 c 0
 229 -10 98 70 98 249 c 0
 98 449 254 700 485 700 c 0
 621 700 694 665 727 608 c 1
 645 575 l 1
 623 622 572 650 488 650 c 0
 283 650 184 400 184 255 c 0
 184 104 286 40 366 40 c 0
 430 40 487 62 533 102 c 1
 591 350 l 1
 507 350 l 1
 517 400 l 1
 681 400 l 1
EndSplineSet
Validated: 1
EndChar

StartChar: H
Encoding: 72 72 35
Width: 581
VWidth: 0
Flags: W
HStem: 0 21G<40 129.629 447 536.629> 350 50<217 528> 680 20G<197.371 287 604.333 694>
AnchorPoint: "bottom" 284 0 basechar 0
AnchorPoint: "top" 452 700 basechar 0
LayerCount: 2
Fore
SplineSet
287 700 m 1
 217 400 l 1
 539 400 l 1
 609 700 l 1
 694 700 l 1
 532 0 l 1
 447 0 l 1
 528 350 l 1
 206 350 l 1
 125 0 l 1
 40 0 l 1
 202 700 l 1
 287 700 l 1
EndSplineSet
Validated: 1
EndChar

StartChar: I
Encoding: 73 73 36
Width: 179
VWidth: 0
Flags: W
HStem: 0 21G<45 134.629> 680 20G<202.371 292>
VStem: 45 247
AnchorPoint: "ogonek" 76 0 basechar 0
AnchorPoint: "top" 251 700 basechar 0
LayerCount: 2
Fore
SplineSet
292 700 m 25
 130 0 l 17
 45 0 l 9
 207 700 l 25
 292 700 l 25
EndSplineSet
Validated: 1
EndChar

StartChar: J
Encoding: 74 74 37
Width: 437
VWidth: 0
Flags: W
HStem: -10 50<127.02 286.966> 680 20G<460.372 550>
AnchorPoint: "bottom" 190 0 basechar 0
AnchorPoint: "top" 509 700 basechar 0
LayerCount: 2
Fore
SplineSet
443 238 m 18
 397 38 353 -10 176 -10 c 0
 121 -10 68 11 28 35 c 1
 90 87 l 1
 129 55 167 40 202 40 c 0
 307 40 323 84 353 216 c 2
 465 700 l 17
 550 700 l 9
 443 238 l 18
EndSplineSet
Validated: 1
EndChar

StartChar: K
Encoding: 75 75 38
Width: 605
VWidth: 0
Flags: W
HStem: 0 21G<45 134.629 456.854 562> 680 20G<202.371 292 589.611 712>
AnchorPoint: "bottom" 270 0 basechar 0
AnchorPoint: "cedilla" 280 0 basechar 0
AnchorPoint: "top" 358 700 basechar 0
LayerCount: 2
Fore
SplineSet
183 229 m 1
 130 0 l 1
 45 0 l 1
 207 700 l 1
 292 700 l 1
 209 340 l 1
 612 700 l 1
 712 700 l 1
 352 379 l 1
 562 0 l 1
 468 0 l 1
 288 323 l 1
 183 229 l 1
EndSplineSet
Validated: 1
EndChar

StartChar: L
Encoding: 76 76 39
Width: 514
VWidth: 0
Flags: W
HStem: 0 50<137 460> 680 20G<197.371 287>
AnchorPoint: "cedilla" 246 0 basechar 0
AnchorPoint: "bottom" 250 0 basechar 0
AnchorPoint: "top" 332 700 basechar 0
LayerCount: 2
Fore
SplineSet
137 50 m 1
 472 50 l 17
 460 0 l 1
 40 0 l 1
 202 700 l 1
 287 700 l 1
 137 50 l 1
EndSplineSet
Validated: 1
EndChar

StartChar: M
Encoding: 77 77 40
Width: 723
VWidth: 0
Flags: W
HStem: 0 21G<45 134.615 586 675.629> 680 20G<202.371 296.703 734.053 833>
AnchorPoint: "bottom" 358 0 basechar 0
AnchorPoint: "top" 520 700 basechar 0
LayerCount: 2
Fore
SplineSet
250 520 m 1
 130 0 l 1
 45 0 l 1
 207 700 l 1
 292 700 l 1
 407 211 l 1
 748 700 l 1
 833 700 l 1
 671 0 l 1
 586 0 l 1
 706 520 l 1
 366 34 l 1
 250 520 l 1
EndSplineSet
Validated: 1
EndChar

StartChar: N
Encoding: 78 78 41
Width: 647
VWidth: 0
Flags: W
HStem: 0 21G<45 134.613 469.108 568.629> 680 20G<202.371 300.878 636.36 726>
AnchorPoint: "bottom" 299 0 basechar 0
AnchorPoint: "cedilla" 300 0 basechar 0
AnchorPoint: "top" 472 700 basechar 0
LayerCount: 2
Fore
SplineSet
477 0 m 1
 258 555 l 1
 130 0 l 1
 45 0 l 1
 207 700 l 1
 292 700 l 1
 293 700 l 1
 512 144 l 1
 641 700 l 1
 726 700 l 1
 564 0 l 1
 477 0 l 1
EndSplineSet
Validated: 1
EndChar

StartChar: O
Encoding: 79 79 42
Width: 669
VWidth: 0
Flags: W
HStem: -10 50<270.084 420.448> 660 50<395.865 553.171>
VStem: 97 86<139.589 376.175> 642 86<318.974 567.592>
AnchorPoint: "horn" 696 530 basechar 0
AnchorPoint: "bottom" 332 0 basechar 0
AnchorPoint: "ogonek" 334 0 basechar 0
AnchorPoint: "top" 487 700 basechar 0
LayerCount: 2
Fore
SplineSet
322 -10 m 0
 210 -10 97 67 97 239 c 0
 97 460 260 710 479 710 c 0
 615 710 728 633 728 463 c 0
 728 273 599 -10 322 -10 c 0
473 660 m 0
 327 660 183 445 183 248 c 0
 183 102 273 40 339 40 c 0
 487 40 642 239 642 458 c 0
 642 600 559 660 473 660 c 0
EndSplineSet
Validated: 1
EndChar

StartChar: Q
Encoding: 81 81 43
Width: 669
VWidth: 0
Flags: W
HStem: -170 50<436.486 505> -7 47<264.926 283 369 423.035> 660 50<381.673 559.515>
VStem: 97 85<129.264 379.451> 282 87<-59.2715 -7.23365> 643 85<323.074 569.216>
AnchorPoint: "top" 479 700 basechar 0
LayerCount: 2
Fore
SplineSet
473 660 m 0
 262 660 182 368 182 238 c 0
 182 99 260 40 339 40 c 0
 507 40 643 260 643 464 c 0
 643 602 566 660 473 660 c 0
283 -7 m 1
 186 9 97 87 97 239 c 0
 97 454 257 710 479 710 c 0
 615 710 728 634 728 463 c 0
 728 278 609 23 369 -7 c 1
 371 -74 453 -120 516 -120 c 1
 505 -170 l 1
 414 -170 282 -132 282 -21 c 0
 282 -16 282 -12 283 -7 c 1
EndSplineSet
Validated: 1
EndChar

StartChar: R
Encoding: 82 82 44
Width: 538
VWidth: 0
Flags: W
HStem: 0 21G<45 134.625 400 484> 320 50<215 331.309> 650 50<280 473.273>
VStem: 405 83<0 186.031> 504 85<465.9 620.779>
AnchorPoint: "bottom" 250 0 basechar 0
AnchorPoint: "cedilla" 248 0 basechar 0
AnchorPoint: "top" 396 700 basechar 0
LayerCount: 2
Fore
SplineSet
207 700 m 1
 412 700 l 2
 546 700 589 623 589 551 c 0
 589 469 526 366 408 332 c 1
 449 279 488 153 488 57 c 0
 488 36 486 17 482 0 c 1
 400 0 l 1
 404 16 405 33 405 52 c 0
 405 147 363 273 313 320 c 1
 204 320 l 1
 130 0 l 1
 45 0 l 1
 207 700 l 1
280 650 m 1
 215 370 l 1
 350 370 l 2
 442 370 504 469 504 551 c 0
 504 601 482 650 415 650 c 2
 280 650 l 1
EndSplineSet
Validated: 1
EndChar

StartChar: S
Encoding: 83 83 45
Width: 585
VWidth: 0
Flags: W
HStem: -10 50<241.783 404.779> 660 50<373.527 520.413>
VStem: 101 81<102.219 171> 210 88<464.141 578.432> 500 86<135.3 266.325>
AnchorPoint: "bottom" 294 0 basechar 0
AnchorPoint: "cedilla" 292 0 basechar 0
AnchorPoint: "top" 452 700 basechar 0
LayerCount: 2
Fore
SplineSet
586 222 m 0
 586 103 472 -10 286 -10 c 0
 189 -10 103 75 101 171 c 1
 183 186 l 1
 183 182 182 177 182 173 c 0
 182 100 245 40 304 40 c 0
 460 40 500 155 500 208 c 0
 500 354 210 333 210 499 c 0
 210 621 349 710 458 710 c 0
 552 710 619 662 644 598 c 1
 565 577 l 1
 548 632 508 660 438 660 c 0
 373 660 298 588 298 516 c 0
 298 388 586 399 586 222 c 0
EndSplineSet
Validated: 1
EndChar

StartChar: T
Encoding: 84 84 46
Width: 585
VWidth: 0
Flags: W
HStem: 0 21G<260 349.615> 650 50<172 410 495 745>
AnchorPoint: "cedilla" 302 0 basechar 0
AnchorPoint: "bottom" 304 0 basechar 0
AnchorPoint: "top" 466 700 basechar 0
LayerCount: 2
Fore
SplineSet
172 700 m 1
 759 700 l 1
 745 650 l 1
 495 650 l 1
 345 0 l 1
 260 0 l 1
 410 650 l 1
 160 650 l 1
 172 700 l 1
EndSplineSet
Validated: 1
EndChar

StartChar: U
Encoding: 85 85 47
Width: 605
VWidth: 0
Flags: W
HStem: -10 50<230.153 393.849> 680 20G<187.373 277 635.373 725>
VStem: 86 85<102.955 335.688> 192 85<669.742 700>
AnchorPoint: "horn" 685 530 basechar 0
AnchorPoint: "bottom" 306 0 basechar 0
AnchorPoint: "ogonek" 304 0 basechar 0
AnchorPoint: "top" 468 700 basechar 0
LayerCount: 2
Fore
SplineSet
640 700 m 1
 725 700 l 1
 632 298 l 2
 574 48 436 -10 292 -10 c 0
 202 -10 86 31 86 194 c 0
 86 224 90 259 99 298 c 2
 192 700 l 1
 277 700 l 1
 184 298 l 2
 175 258 171 225 171 196 c 0
 171 66 253 40 309 40 c 0
 385 40 498 88 547 298 c 2
 640 700 l 1
EndSplineSet
Validated: 1
EndChar

StartChar: V
Encoding: 86 86 48
Width: 538
VWidth: 0
Flags: W
HStem: 0 21G<225.143 326.114> 680 20G<162 247.837 608.873 704>
AnchorPoint: "bottom" 270 0 basechar 0
AnchorPoint: "top" 430 700 basechar 0
LayerCount: 2
Fore
SplineSet
227 0 m 1
 162 700 l 1
 246 700 l 1
 299 123 l 1
 620 700 l 1
 704 700 l 1
 315 0 l 1
 227 0 l 1
EndSplineSet
Validated: 1
EndChar

StartChar: X
Encoding: 88 88 49
Width: 525
VWidth: 0
Flags: W
HStem: 0 21G<20 123.823 391.397 487> 680 20G<202 297.537 523.207 628>
AnchorPoint: "bottom" 250 0 basechar 0
AnchorPoint: "top" 412 700 basechar 0
LayerCount: 2
Fore
SplineSet
384 371 m 1
 487 0 l 1
 397 0 l 1
 318 282 l 1
 109 0 l 1
 20 0 l 1
 294 370 l 1
 202 700 l 1
 292 700 l 1
 359 458 l 1
 538 700 l 1
 628 700 l 1
 384 371 l 1
EndSplineSet
Validated: 1
EndChar

StartChar: W
Encoding: 87 87 50
Width: 831
VWidth: 0
Flags: W
HStem: 0 21G<225.143 326.111 518.095 619.114> 420 20G<464.833 564.83> 680 20G<162 247.837 901.873 997>
AnchorPoint: "bottom" 422 0 basechar 0
AnchorPoint: "top" 572 700 basechar 0
LayerCount: 2
Fore
SplineSet
227 0 m 1
 162 700 l 1
 246 700 l 1
 299 123 l 1
 476 440 l 1
 563 440 l 1
 592 123 l 1
 913 700 l 1
 997 700 l 1
 608 0 l 1
 520 0 l 1
 490 315 l 1
 315 0 l 1
 227 0 l 1
EndSplineSet
Validated: 1
EndChar

StartChar: Y
Encoding: 89 89 51
Width: 525
VWidth: 0
Flags: W
HStem: 0 21G<220 309.624> 680 20G<202 297.517 543.134 648>
AnchorPoint: "bottom" 262 0 basechar 0
AnchorPoint: "ogonek" 278 0 basechar 0
AnchorPoint: "top" 424 700 basechar 0
LayerCount: 2
Fore
SplineSet
364 439 m 1
 558 700 l 1
 648 700 l 1
 385 346 l 1
 305 0 l 1
 220 0 l 1
 300 347 l 1
 202 700 l 1
 292 700 l 1
 364 439 l 1
EndSplineSet
Validated: 1
EndChar

StartChar: Z
Encoding: 90 90 52
Width: 525
VWidth: 0
Flags: W
HStem: 0 50<146 470> 650 50<202 501>
AnchorPoint: "bottom" 258 0 basechar 0
AnchorPoint: "top" 402 700 basechar 0
LayerCount: 2
Fore
SplineSet
501 650 m 1
 175 650 l 1
 202 700 l 1
 628 700 l 1
 146 50 l 1
 482 50 l 1
 470 0 l 1
 20 0 l 1
 501 650 l 1
EndSplineSet
Validated: 1
EndChar

StartChar: exclam
Encoding: 33 33 53
Width: 174
VWidth: 0
Flags: W
HStem: 0 80<63 125> 680 20G<202.962 287>
VStem: 102 50<180 206.963>
LayerCount: 2
Fore
SplineSet
63 80 m 1
 143 80 l 1
 125 0 l 1
 45 0 l 1
 63 80 l 1
287 700 m 25
 152 180 l 25
 102 180 l 25
 207 700 l 25
 287 700 l 25
EndSplineSet
Validated: 1
EndChar

StartChar: period
Encoding: 46 46 54
Width: 174
VWidth: 0
Flags: W
HStem: 0 80<63 125>
VStem: 45 98
LayerCount: 2
Fore
SplineSet
63 80 m 1
 143 80 l 1
 125 0 l 1
 45 0 l 1
 63 80 l 1
EndSplineSet
Validated: 1
EndChar

StartChar: comma
Encoding: 44 44 55
Width: 174
VWidth: 0
Flags: W
HStem: -99 179
VStem: 66 72<44.5164 80>
LayerCount: 2
Fore
SplineSet
22 -99 m 1
 62 -56 65 -20 65 -6 c 0
 65 9 62 25 62 44 c 0
 62 55 63 67 66 80 c 1
 138 80 l 1
 108 -50 80 -72 59 -99 c 1
 22 -99 l 1
EndSplineSet
Validated: 1
EndChar

StartChar: quotesingle
Encoding: 39 39 56
Width: 164
VWidth: 0
Flags: W
HStem: 500 200<207 215>
VStem: 175 102
LayerCount: 2
Fore
SplineSet
277 700 m 25
 215 500 l 25
 175 500 l 25
 207 700 l 25
 277 700 l 25
EndSplineSet
Validated: 1
EndChar

StartChar: dollar
Encoding: 36 36 58
Width: 420
VWidth: 0
Flags: W
HStem: 0 21G<148 188.658 224 264.5> 73 50<213 241> 323 63<273 295.303> 543 50<321 349>
VStem: 134 81<406.417 502.801> 359 81<179.348 290.448>
LayerCount: 2
Fore
SplineSet
479 531 m 1
 413 496 l 1
 400 509 390 519 381 526 c 1
 345 367 l 1
 412 342 440 300 440 254 c 0
 440 187 383 104 278 80 c 1
 260 0 l 1
 224 0 l 1
 241 74 l 1
 233 73 225 73 216 73 c 0
 211 73 206 73 201 73 c 1
 184 0 l 1
 148 0 l 1
 166 78 l 1
 124 87 99 108 62 140 c 1
 114 177 l 1
 139 156 154 141 178 132 c 1
 225 333 l 1
 169 354 134 390 134 439 c 0
 134 497 181 577 284 591 c 1
 300 660 l 1
 336 660 l 1
 321 593 l 1
 335 593 348 592 360 590 c 1
 376 660 l 1
 412 660 l 1
 394 582 l 1
 425 572 452 554 479 531 c 1
241 403 m 1
 270 530 l 1
 237 512 215 481 215 451 c 0
 215 433 223 416 241 403 c 1
259 323 m 1
 213 124 l 1
 222 123 231 123 242 123 c 2
 252 123 l 1
 296 314 l 1
 281 319 274 319 259 323 c 1
273 386 m 1
 288 381 296 381 311 377 c 1
 349 541 l 1
 341 543 331 543 319 543 c 0
 316 543 312 542 309 542 c 1
 273 386 l 1
329 298 m 1
 291 133 l 1
 324 149 359 196 359 240 c 0
 359 262 350 283 329 298 c 1
EndSplineSet
Validated: 1
EndChar

StartChar: bar
Encoding: 124 124 59
Width: 149
VWidth: 0
Flags: W
HStem: 0 21G<45 104.629> 680 20G<202.371 262>
VStem: 45 217
LayerCount: 2
Fore
SplineSet
262 700 m 25
 100 0 l 25
 45 0 l 25
 207 700 l 25
 262 700 l 25
EndSplineSet
Validated: 1
EndChar

StartChar: slash
Encoding: 47 47 60
Width: 406
VWidth: 0
Flags: W
HStem: 0 21G<30 101.714> 680 20G<462.286 534>
LayerCount: 2
Fore
SplineSet
534 700 m 1
 89 0 l 1
 30 0 l 1
 475 700 l 1
 534 700 l 1
EndSplineSet
Validated: 1
EndChar

StartChar: backslash
Encoding: 92 92 61
Width: 406
VWidth: 0
Flags: W
HStem: 0 21G<309.543 372> 680 20G<192 254.457>
VStem: 192 180
LayerCount: 2
Fore
SplineSet
192 700 m 1
 251 700 l 1
 372 0 l 1
 313 0 l 1
 192 700 l 1
EndSplineSet
Validated: 1
EndChar

StartChar: question
Encoding: 63 63 62
Width: 431
VWidth: 0
Flags: W
HStem: 0 80<163 225> 180 105<211 252> 620 50<249.543 391.309>
VStem: 431 80<399.136 580.749>
LayerCount: 2
Fore
SplineSet
163 80 m 1
 243 80 l 1
 225 0 l 1
 145 0 l 1
 163 80 l 1
273 236 m 1
 252 180 l 1
 202 180 l 1
 211 285 l 1
 246 285 l 2
 368 285 431 396 431 504 c 0
 431 576 393 620 318 620 c 0
 267 620 241 597 209 560 c 1
 155 583 l 1
 207 634 263 670 345 670 c 0
 452 670 511 609 511 510 c 0
 511 355 399 248 273 236 c 1
EndSplineSet
Validated: 1
EndChar

StartChar: percent
Encoding: 37 37 65
Width: 532
VWidth: 0
Flags: W
HStem: 76 53<377.52 460.762> 231 53<390.622 472.916> 356 53<201.914 285.174> 511 53<215.122 298.48>
VStem: 143 55<413.123 493.513> 303 54<428.394 506.668> 319 54<133.332 213.513> 478 54<146.487 226.668>
LayerCount: 2
Fore
SplineSet
437 231 m 0xfb
 409 231 373 205 373 169 c 0
 373 146 390 129 414 129 c 0
 442 129 478 155 478 191 c 0
 478 214 461 231 437 231 c 0xfb
319 156 m 0
 319 225 386 284 450 284 c 0
 500 284 532 250 532 204 c 0
 532 135 466 76 402 76 c 0
 352 76 319 110 319 156 c 0
262 511 m 0
 234 511 198 485 198 449 c 0
 198 426 214 409 238 409 c 0
 266 409 303 435 303 471 c 0xfd
 303 494 286 511 262 511 c 0
143 436 m 0
 143 505 210 564 274 564 c 0
 324 564 357 530 357 484 c 0
 357 415 290 356 226 356 c 0
 176 356 143 390 143 436 c 0
70 129 m 1
 529 511 l 1
 606 511 l 1
 147 129 l 1
 70 129 l 1
EndSplineSet
Validated: 1
EndChar

StartChar: numbersign
Encoding: 35 35 66
Width: 484
VWidth: 0
Flags: W
HStem: 200 50<108 157 248 304 395 455> 410 50<181 243 334 389 480 529>
LayerCount: 2
Fore
SplineSet
228 200 m 1
 171 60 l 1
 100 60 l 1
 157 200 l 1
 96 200 l 1
 108 250 l 1
 177 250 l 1
 243 410 l 1
 170 410 l 1
 181 460 l 1
 263 460 l 1
 320 600 l 1
 391 600 l 1
 334 460 l 1
 409 460 l 1
 466 600 l 1
 537 600 l 1
 480 460 l 1
 540 460 l 1
 529 410 l 1
 460 410 l 1
 395 250 l 1
 467 250 l 1
 455 200 l 1
 375 200 l 1
 318 60 l 1
 247 60 l 1
 304 200 l 1
 228 200 l 1
248 250 m 1
 324 250 l 1
 389 410 l 1
 314 410 l 1
 248 250 l 1
EndSplineSet
Validated: 1
EndChar

StartChar: zero
Encoding: 48 48 67
Width: 460
VWidth: 0
Flags: W
HStem: -10 50<186.98 300.767> 490 50<289.636 396.426>
VStem: 66 80<84.4644 297.985> 435 81<225.699 445.245>
LayerCount: 2
Fore
SplineSet
245 40 m 0
 329 40 435 196 435 342 c 0
 435 421 406 490 349 490 c 0
 268 490 146 347 146 180 c 0
 146 103 175 40 245 40 c 0
516 345 m 0
 516 173 381 -10 219 -10 c 0
 116 -10 66 75 66 180 c 0
 66 383 243 540 346 540 c 0
 452 540 516 459 516 345 c 0
EndSplineSet
Validated: 1
EndChar

StartChar: one
Encoding: 49 49 68
Width: 460
VWidth: 0
Flags: W
HStem: 0 21G<215 299.636> 469 50<284 325>
VStem: 215 204
LayerCount: 2
Fore
SplineSet
419 535 m 1
 295 0 l 1
 215 0 l 1
 325 475 l 1
 272 469 l 1
 284 519 l 1
 419 535 l 1
EndSplineSet
Validated: 1
EndChar

StartChar: two
Encoding: 50 50 69
Width: 460
VWidth: 0
Flags: W
HStem: 0 50<152 400> 480 50<266.838 390.04>
VStem: 407 80<332.769 464.508>
LayerCount: 2
Fore
SplineSet
487 411 m 0
 487 214 188 204 152 50 c 1
 412 50 l 25
 400 0 l 25
 60 0 l 1
 116 242 407 223 407 408 c 0
 407 460 375 480 340 480 c 0
 287 480 246 453 216 404 c 1
 159 428 l 1
 199 484 264 530 366 530 c 0
 439 530 487 481 487 411 c 0
EndSplineSet
Validated: 1
EndChar

StartChar: three
Encoding: 51 51 70
Width: 460
VWidth: 0
Flags: W
HStem: -126 50<141.827 263.796> 206 50<244 310.94> 480 50<267.72 385.04>
VStem: 44 68<-45.0392 -19.5294> 350 81<18.9831 170.808> 402 80<326.706 464.508>
LayerCount: 2
Fore
SplineSet
206 -76 m 0xf8
 250 -76 350 -13 350 103 c 0xf8
 350 160 320 206 233 206 c 1
 244 256 l 1
 385 256 402 369 402 408 c 0
 402 460 370 480 335 480 c 0
 282 480 251 453 221 404 c 1
 164 428 l 1
 204 484 259 530 361 530 c 0
 434 530 482 481 482 411 c 0xf4
 482 352 453 272 365 232 c 1
 411 207 431 165 431 114 c 0
 431 -33 297 -126 210 -126 c 0
 108 -126 58 -78 44 -22 c 1
 112 2 l 1
 120 -47 153 -76 206 -76 c 0xf8
EndSplineSet
Validated: 1
EndChar

StartChar: four
Encoding: 52 52 71
Width: 460
VWidth: 0
Flags: W
HStem: 0 50<122 279 371 413>
LayerCount: 2
Fore
SplineSet
55 33 m 1
 401 530 l 1
 481 530 l 1
 371 50 l 1
 425 50 l 1
 413 0 l 1
 359 0 l 1
 332 -116 l 1
 252 -116 l 1
 279 0 l 1
 47 0 l 1
 55 33 l 1
291 50 m 1
 374 412 l 1
 122 50 l 1
 291 50 l 1
EndSplineSet
Validated: 1
EndChar

StartChar: five
Encoding: 53 53 72
Width: 460
VWidth: 0
Flags: W
HStem: -126 50<141.827 263.61> 480 50<317 469>
VStem: 44 68<-45.0392 -19.5294> 357 83<45.0794 212.263>
LayerCount: 2
Fore
SplineSet
206 -76 m 0
 274 -76 357 24 357 139 c 0
 357 217 308 271 152 271 c 1
 256 530 l 1
 480 530 l 1
 469 480 l 1
 317 480 l 1
 251 316 l 1
 392 300 440 242 440 157 c 0
 440 2 322 -126 210 -126 c 0
 108 -126 58 -78 44 -22 c 1
 112 2 l 1
 120 -47 153 -76 206 -76 c 0
EndSplineSet
Validated: 1
EndChar

StartChar: six
Encoding: 54 54 73
Width: 460
VWidth: 0
Flags: W
HStem: -10 50<189.673 294.728> 286 50<224.229 347.289>
VStem: 93 79<56.7455 251.807> 371 81<123.995 263.261>
LayerCount: 2
Fore
SplineSet
235 40 m 0
 303 40 371 128 371 200 c 0
 371 246 344 286 301 286 c 0
 266 286 231 279 197 268 c 1
 181 223 172 176 172 126 c 0
 172 69 197 40 235 40 c 0
223 328 m 1
 248 333 273 336 298 336 c 0
 389 336 452 285 452 208 c 0
 452 111 352 -10 239 -10 c 0
 153 -10 93 43 93 133 c 0
 93 446 500 676 500 676 c 2
 527 646 l 2
 527 646 321 522 223 328 c 1
EndSplineSet
Validated: 1
EndChar

StartChar: seven
Encoding: 55 55 74
Width: 460
VWidth: 0
Flags: W
HStem: 480 50<205 422>
LayerCount: 2
Fore
SplineSet
205 530 m 1
 514 530 l 1
 503 480 l 1
 205 -116 l 1
 124 -116 l 1
 422 480 l 1
 179 480 l 1
 205 530 l 1
EndSplineSet
Validated: 1
EndChar

StartChar: nine
Encoding: 57 57 75
Width: 460
VWidth: 0
Flags: W
HStem: 194 50<233.312 358.684> 490 50<272.051 382.503>
VStem: 130 81<266.739 404.126> 409 81<271.13 462.416>
LayerCount: 2
Fore
SplineSet
332 490 m 0
 235 490 211 358 211 330 c 0
 211 284 238 244 281 244 c 0
 316 244 352 251 386 262 c 1
 400 303 409 347 409 392 c 0
 409 457 373 490 332 490 c 0
360 202 m 1
 335 197 310 194 285 194 c 0
 194 194 130 245 130 322 c 0
 130 416 225 540 359 540 c 0
 430 540 490 488 490 397 c 0
 490 85 82 -146 82 -146 c 2
 55 -116 l 2
 55 -116 263 12 360 202 c 1
EndSplineSet
Validated: 1
EndChar

StartChar: eight
Encoding: 56 56 76
Width: 460
VWidth: 0
Flags: W
HStem: -10 50<181.25 312.252> 660 50<327.467 429.981>
VStem: 66 85<71.1707 224.567> 172 88<451.302 581.266> 391 87<134.841 278.879> 456 87<486.801 632.398>
LayerCount: 2
Fore
SplineSet
289 341 m 1xf8
 173 283 151 182 151 139 c 0
 151 82 184 40 239 40 c 0
 378 40 391 198 391 214 c 0
 391 280 341 310 289 341 c 1xf8
221 -10 m 0
 123 -10 66 55 66 136 c 0
 66 230 135 317 241 371 c 1
 203 398 172 433 172 491 c 0
 172 623 298 710 404 710 c 0
 486 710 543 655 543 574 c 0xf4
 543 491 490 420 400 367 c 1
 442 336 478 298 478 231 c 0
 478 113 383 -10 221 -10 c 0
260 510 m 0
 260 457 301 429 347 401 c 1
 393 430 456 483 456 565 c 0
 456 622 421 660 384 660 c 0
 314 660 260 572 260 510 c 0
EndSplineSet
Validated: 1
EndChar

StartChar: ampersand
Encoding: 38 38 77
Width: 568
VWidth: 0
Flags: W
HStem: -10 50<204.408 362.311> 0 21G<444.923 518> 620 50<380.59 480.216>
VStem: 73 81<88.6373 263.398> 270 69<435.294 574.256> 569 55<346.264 407.927>
LayerCount: 2
Fore
SplineSet
430 620 m 0xbc
 381 620 339 561 339 498 c 0
 339 441 366 373 374 354 c 2
 461 141 l 1
 508 208 541 306 569 428 c 1
 624 405 l 1
 600 301 554 181 479 97 c 1
 518 0 l 1
 453 0 l 1x7c
 432 52 l 1
 383 14 324 -10 254 -10 c 0
 144 -10 73 54 73 158 c 0
 73 291 173 406 278 440 c 1
 274 458 270 476 270 494 c 0
 270 534 285 670 457 670 c 0
 540 670 563 622 570 590 c 1
 489 573 l 1
 482 604 479 620 430 620 c 0xbc
294 391 m 1
 215 361 154 260 154 166 c 0
 154 88 202 40 280 40 c 0xbc
 334 40 379 57 416 90 c 1
 294 391 l 1
EndSplineSet
Validated: 1
EndChar

StartChar: parenleft
Encoding: 40 40 78
Width: 268
VWidth: 0
Flags: W
HStem: 0 21G<162.372 218> 680 20G<321.297 380>
VStem: 112 77<63.5585 352.051>
LayerCount: 2
Fore
SplineSet
330 700 m 26
 380 700 l 26
 380 700 189 489 189 170 c 0
 189 58 218 0 218 0 c 9
 168 0 l 17
 168 0 112 59 112 199 c 0
 112 526 330 700 330 700 c 26
EndSplineSet
Validated: 1
EndChar

StartChar: parenright
Encoding: 41 41 79
Width: 268
VWidth: 0
Flags: W
HStem: 0 21G<50 108.663> 680 20G<212 267.528>
VStem: 241 76<347.418 636.441>
LayerCount: 2
Fore
SplineSet
100 0 m 26
 50 0 l 26
 50 0 241 211 241 530 c 0
 241 642 212 700 212 700 c 9
 262 700 l 17
 262 700 317 641 317 501 c 0
 317 171 100 0 100 0 c 26
EndSplineSet
Validated: 1
EndChar

StartChar: asterisk
Encoding: 42 42 80
Width: 422
VWidth: 0
Flags: W
HStem: 512 59<478.291 497.593>
VStem: 332 62<637.091 660>
LayerCount: 2
Fore
SplineSet
310 516 m 1
 332 660 l 1
 394 660 l 1
 350 516 l 1
 497 571 l 1
 502 512 l 1
 353 478 l 1
 422 368 l 1
 363 331 l 1
 316 454 l 1
 211 331 l 1
 170 368 l 1
 289 478 l 1
 156 512 l 1
 189 571 l 1
 310 516 l 1
310 516 m 1
289 478 m 1
316 454 m 1
353 478 m 1
350 516 m 1
EndSplineSet
Validated: 1
EndChar

StartChar: plus
Encoding: 43 43 81
Width: 418
VWidth: 0
Flags: W
HStem: 170 50<91 223 285 417>
LayerCount: 2
Fore
SplineSet
273 170 m 1
 240 26 l 1
 190 26 l 1
 223 170 l 1
 79 170 l 1
 91 220 l 1
 235 220 l 1
 268 364 l 1
 318 364 l 1
 285 220 l 1
 429 220 l 1
 417 170 l 1
 273 170 l 1
EndSplineSet
Validated: 1
EndChar

StartChar: hyphen
Encoding: 45 45 82
Width: 317
VWidth: 0
Flags: W
HStem: 170 50<91 316>
VStem: 79 249
LayerCount: 2
Fore
SplineSet
91 220 m 1
 328 220 l 1
 316 170 l 1
 79 170 l 1
 91 220 l 1
EndSplineSet
Validated: 1
EndChar

StartChar: less
Encoding: 60 60 83
Width: 418
VWidth: 0
Flags: W
HStem: 420 20G<401.804 444.268>
LayerCount: 2
Fore
SplineSet
113 246 m 1
 435 440 l 1
 454 399 l 1
 200 246 l 1
 384 94 l 1
 345 53 l 1
 113 246 l 1
EndSplineSet
Validated: 1
EndChar

StartChar: greater
Encoding: 62 62 84
Width: 418
VWidth: 0
Flags: W
HStem: 420 20G<167.976 211.041>
LayerCount: 2
Fore
SplineSet
419 247 m 1
 97 53 l 1
 78 94 l 1
 332 247 l 1
 148 399 l 1
 187 440 l 1
 419 247 l 1
EndSplineSet
Validated: 1
EndChar

StartChar: equal
Encoding: 61 61 85
Width: 346
VWidth: 0
Flags: W
HStem: 170 50<91 345> 280 50<116 371>
VStem: 79 303
LayerCount: 2
Fore
SplineSet
116 330 m 1
 382 330 l 1
 371 280 l 1
 105 280 l 1
 116 330 l 1
91 220 m 1
 357 220 l 1
 345 170 l 1
 79 170 l 1
 91 220 l 1
EndSplineSet
Validated: 1
EndChar

StartChar: at
Encoding: 64 64 86
Width: 647
VWidth: 0
Flags: W
HStem: -10 50<278.867 467.033> 128 50<448 521.722> 136 32<323.279 402> 420 32<373.618 441.508> 550 50<364.282 531.452>
VStem: 90 86<139.465 342.399> 258 52<174.718 336.651> 451 52<288.183 416.471> 591 86<314.13 487.777>
LayerCount: 2
Fore
SplineSet
503 386 m 0xbf80
 503 354 465 246 465 203 c 0
 465 183 472 178 483 178 c 0
 553 178 591 360 591 406 c 0
 591 499 526 550 465 550 c 0
 292 550 176 380 176 231 c 0
 176 96 284 40 366 40 c 0
 443 40 511 72 561 129 c 1
 614 102 l 1
 549 38 449 -10 340 -10 c 0
 226 -10 90 67 90 226 c 0
 90 443 305 600 462 600 c 0
 595 600 677 532 677 418 c 0
 677 265 540 128 457 128 c 0xdf80
 439 128 424 134 417 156 c 1
 395 143 370 136 337 136 c 0
 279 136 258 173 258 227 c 0
 258 336 323 452 414 452 c 0
 460 452 503 434 503 386 c 0xbf80
413 195 m 1
 417 256 451 348 451 374 c 0
 451 396 436 420 417 420 c 0
 342 420 310 298 310 235 c 0
 310 196 323 168 354 168 c 0xbf80
 384 168 395 175 413 195 c 1
EndSplineSet
Validated: 1
EndChar

StartChar: bracketleft
Encoding: 91 91 87
Width: 211
VWidth: 0
Flags: W
HStem: 0 40<109 166> 620 40<243 309>
VStem: 45 273
LayerCount: 2
Fore
SplineSet
166 0 m 1
 45 0 l 1
 197 660 l 1
 318 660 l 1
 309 620 l 1
 243 620 l 1
 109 40 l 1
 175 40 l 1
 166 0 l 1
EndSplineSet
Validated: 1
EndChar

StartChar: bracketright
Encoding: 93 93 88
Width: 211
VWidth: 0
Flags: W
HStem: 0 40<54 120> 620 40<197 254>
VStem: 45 273
LayerCount: 2
Fore
SplineSet
197 660 m 1
 318 660 l 1
 166 0 l 1
 45 0 l 1
 54 40 l 1
 120 40 l 1
 254 620 l 1
 188 620 l 1
 197 660 l 1
EndSplineSet
Validated: 1
EndChar

StartChar: underscore
Encoding: 95 95 89
Width: 338
VWidth: 0
Flags: W
HStem: -90 50<-9 317>
LayerCount: 2
Fore
SplineSet
-9 -40 m 1
 329 -40 l 1
 317 -90 l 1
 -21 -90 l 1
 -9 -40 l 1
EndSplineSet
Validated: 1
EndChar

StartChar: braceleft
Encoding: 123 123 90
Width: 259
VWidth: 0
Flags: W
HStem: 0 21G<150.5 219> 680 20G<254.5 381>
VStem: 122 69<23.1701 257.358> 145 68<126.368 331.336>
LayerCount: 2
Fore
SplineSet
331 700 m 1xd0
 381 700 l 1
 260 624 313 422 171 350 c 1
 203 328 213 295 213 257 c 0xd0
 213 200 191 132 191 77 c 0
 191 46 198 19 219 0 c 1
 169 0 l 1
 132 24 122 60 122 101 c 0xe0
 122 161 145 230 145 284 c 0
 145 311 139 334 121 350 c 1
 231 419 178 623 331 700 c 1xd0
EndSplineSet
Validated: 1
EndChar

StartChar: braceright
Encoding: 125 125 91
Width: 259
VWidth: 0
Flags: W
HStem: 0 21G<40 166.5> 680 20G<202 270.5>
VStem: 208 68<368.664 573.632> 230 69<442.642 676.83>
LayerCount: 2
Fore
SplineSet
90 0 m 1xe0
 40 0 l 1
 161 76 108 278 250 350 c 1
 218 372 208 405 208 443 c 0xe0
 208 500 230 568 230 623 c 0
 230 654 223 681 202 700 c 1
 252 700 l 1
 289 676 299 640 299 599 c 0xd0
 299 539 276 470 276 416 c 0
 276 389 282 366 300 350 c 1
 190 281 243 77 90 0 c 1xe0
EndSplineSet
Validated: 1
EndChar

StartChar: gravecomb
Encoding: 768 768 92
Width: 0
VWidth: 0
Flags: W
HStem: 613 189
VStem: -165 144
AnchorPoint: "top" -88.0967 580 mark 0
LayerCount: 2
Fore
SplineSet
-101 802 m 25
 -21 639 l 25
 -58 613 l 25
 -165 757 l 25
 -101 802 l 25
EndSplineSet
Validated: 1
EndChar

StartChar: acutecomb
Encoding: 769 769 93
Width: 0
VWidth: 0
Flags: W
HStem: 613 189
VStem: -192 198
AnchorPoint: "top" -153.097 580 mark 0
LayerCount: 2
Fore
SplineSet
-38 802 m 25
 6 757 l 25
 -167 613 l 25
 -192 639 l 25
 -38 802 l 25
EndSplineSet
Validated: 1
EndChar

StartChar: uni0302
Encoding: 770 770 94
Width: 0
VWidth: 0
Flags: W
HStem: 614 146
VStem: -269 269
AnchorPoint: "top" -153 580 mark 0
LayerCount: 2
Fore
SplineSet
-0 658 m 1
 -55 614 l 1
 -124 700 l 1
 -234 614 l 1
 -269 658 l 1
 -111 760 l 1
 -0 658 l 1
EndSplineSet
Validated: 1
EndChar

StartChar: tildecomb
Encoding: 771 771 95
Width: 0
VWidth: 0
Flags: W
HStem: 620 57<-124.05 -29.9287> 652 57<-227.071 -132.95>
VStem: -277 297
AnchorPoint: "top" -153 580 mark 0
LayerCount: 2
Fore
SplineSet
-21 709 m 1x60
 20 709 l 1x60
 2 659 -41 620 -99 620 c 0xa0
 -133 620 -154 652 -176 652 c 0x60
 -206 652 -228 642 -236 620 c 1
 -277 620 l 1xa0
 -259 670 -216 709 -158 709 c 0x60
 -124 709 -103 677 -81 677 c 0xa0
 -51 677 -29 687 -21 709 c 1x60
EndSplineSet
Validated: 1
EndChar

StartChar: uni0304
Encoding: 772 772 96
Width: 0
VWidth: 0
Flags: W
HStem: 620 40<-255 -34>
VStem: -264 239
AnchorPoint: "top" -153.097 580 mark 0
LayerCount: 2
Fore
SplineSet
-255 660 m 1
 -25 660 l 1
 -34 620 l 1
 -264 620 l 1
 -255 660 l 1
EndSplineSet
Validated: 1
EndChar

StartChar: uni0306
Encoding: 774 774 97
Width: 0
VWidth: 0
Flags: W
HStem: 620 57<-185.178 -71.0844>
VStem: -236 41<691.298 713>
AnchorPoint: "top" -153 580 mark 0
LayerCount: 2
Fore
SplineSet
-131 677 m 0
 -94 677 -53 701 -45 723 c 1
 -9 713 l 1
 -27 663 -86 620 -144 620 c 0
 -198 620 -236 658 -236 704 c 0
 -236 707 -235 710 -235 713 c 1
 -195 723 l 1
 -195 721 l 2
 -195 700 -167 677 -131 677 c 0
EndSplineSet
Validated: 1
EndChar

StartChar: uni0307
Encoding: 775 775 98
Width: 0
VWidth: 0
Flags: W
HStem: 620 73<-165 -109>
VStem: -182 90
AnchorPoint: "top" -153.097 580 mark 0
LayerCount: 2
Fore
SplineSet
-165 693 m 1
 -92 693 l 1
 -109 620 l 1
 -182 620 l 1
 -165 693 l 1
EndSplineSet
Validated: 1
EndChar

StartChar: uni030A
Encoding: 778 778 100
Width: 0
VWidth: 0
Flags: W
HStem: 570 30<-178.215 -111.326> 692 30<-164.038 -97.8763>
VStem: -216 31<606.696 671.535> -91 31<619.95 685.55>
AnchorPoint: "top" -153 580 mark 0
LayerCount: 2
Fore
SplineSet
-127 692 m 0
 -152 692 -185 669 -185 636 c 0
 -185 616 -170 600 -148 600 c 0
 -123 600 -91 623 -91 656 c 0
 -91 676 -105 692 -127 692 c 0
-216 629 m 0
 -216 681 -164 722 -120 722 c 0
 -84 722 -60 697 -60 663 c 0
 -60 611 -111 570 -155 570 c 0
 -191 570 -216 595 -216 629 c 0
EndSplineSet
Validated: 1
EndChar

StartChar: uni030C
Encoding: 780 780 102
Width: 0
VWidth: 0
Flags: W
HStem: 556 189
VStem: -238 234
AnchorPoint: "top" -153 580 mark 0
LayerCount: 2
Fore
SplineSet
-159 556 m 1
 -238 719 l 1
 -201 745 l 1
 -135 657 l 1
 -29 745 l 1
 -4 719 l 1
 -159 556 l 1
EndSplineSet
Validated: 1
EndChar

StartChar: uni0311
Encoding: 785 785 104
Width: 0
VWidth: 0
Flags: W
HStem: 656 57<-195.119 -81.9914>
VStem: -71 41<620 641.702>
AnchorPoint: "top" -153 580 mark 0
LayerCount: 2
Fore
SplineSet
-136 656 m 0
 -173 656 -213 632 -221 610 c 1
 -257 620 l 1
 -239 670 -180 713 -122 713 c 0
 -68 713 -30 675 -30 629 c 0
 -30 626 -31 623 -31 620 c 1
 -71 610 l 1
 -71 612 l 2
 -71 633 -100 656 -136 656 c 0
EndSplineSet
Validated: 1
EndChar

StartChar: uni0312
Encoding: 786 786 105
Width: 0
VWidth: 0
Flags: W
HStem: 620 179
VStem: -183 72<620 655.484>
AnchorPoint: "top" -153 580 mark 0
LayerCount: 2
Fore
SplineSet
-67 799 m 1
 -107 756 -110 720 -110 706 c 0
 -110 691 -107 675 -107 656 c 0
 -107 645 -108 633 -111 620 c 1
 -183 620 l 1
 -153 750 -125 772 -104 799 c 1
 -67 799 l 1
EndSplineSet
Validated: 1
EndChar

StartChar: uni0313
Encoding: 787 787 106
Width: 0
VWidth: 0
Flags: W
HStem: 620 179
VStem: -122 72<763.516 799>
AnchorPoint: "top" -153 580 mark 0
LayerCount: 2
Fore
SplineSet
-166 620 m 1
 -126 663 -123 699 -123 713 c 0
 -123 728 -126 744 -126 763 c 0
 -126 774 -125 786 -122 799 c 1
 -50 799 l 1
 -80 669 -108 647 -129 620 c 1
 -166 620 l 1
EndSplineSet
Validated: 1
EndChar

StartChar: uni0314
Encoding: 788 788 107
Width: 0
VWidth: 0
Flags: W
HStem: 620 179<-163.476 -136>
VStem: -175 39<620.749 729.945>
AnchorPoint: "top" -153 580 mark 0
LayerCount: 2
Fore
SplineSet
-87 799 m 1
 -101 739 -136 721 -136 665 c 0
 -136 651 -133 636 -125 620 c 1
 -162 620 l 1
 -167 636 -175 650 -175 685 c 0
 -175 710 -171 745 -159 799 c 1
 -87 799 l 1
EndSplineSet
Validated: 1
EndChar

StartChar: uni0326
Encoding: 806 806 108
Width: 0
VWidth: 0
Flags: W
HStem: -196 24<-404 -315.657> -80 28<-340 -296.97>
VStem: -284 63<-152.202 -88.6045>
AnchorPoint: "cedilla" -288 0 mark 0
LayerCount: 2
Fore
SplineSet
-404 -172 m 17
 -344 -172 -284 -166 -284 -116 c 0
 -284 -95 -301 -85 -346 -80 c 1
 -340 -52 l 17
 -269 -52 -221 -78 -221 -113 c 0
 -221 -146 -268 -196 -409 -196 c 1
 -404 -172 l 17
EndSplineSet
Validated: 1
EndChar

StartChar: uni0327
Encoding: 807 807 109
Width: 0
VWidth: 0
Flags: W
HStem: -196 24<-404 -316.325> -80 80<-314 -287.805>
VStem: -284 63<-152.171 -88.6948>
AnchorPoint: "cedilla" -288 0 mark 0
LayerCount: 2
Fore
SplineSet
-404 -172 m 17
 -344 -172 -284 -166 -284 -116 c 0
 -284 -95 -301 -85 -346 -80 c 1
 -314 0 l 25
 -262 0 l 25
 -280 -54 l 17
 -246 -60 -221 -78 -221 -108 c 0
 -221 -170 -316 -196 -409 -196 c 1
 -404 -172 l 17
EndSplineSet
Validated: 1
EndChar

StartChar: uni0328
Encoding: 808 808 110
Width: 0
VWidth: 0
Flags: W
HStem: -156 18<-290.738 -246>
VStem: -370 58<-130.121 -54.9173>
AnchorPoint: "ogonek" -236 0 mark 0
LayerCount: 2
Fore
SplineSet
-233 12 m 9
 -236 0 l 1
 -258 -10 -312 -38 -312 -95 c 0
 -312 -122 -295 -138 -242 -138 c 9
 -246 -156 l 1
 -345 -156 -370 -127 -370 -101 c 0
 -370 -56 -301 -6 -233 12 c 9
EndSplineSet
Validated: 1
EndChar

StartChar: uni0237
Encoding: 567 567 111
Width: 164
VWidth: 0
Flags: W
HStem: -170 50<-112.799 0.429579> 420 20G<137.364 222>
AnchorPoint: "bottom" -51 -170 basechar 0
AnchorPoint: "top" 193 490 basechar 0
LayerCount: 2
Fore
SplineSet
-89 -95 m 1
 -80 -115 -61 -120 -42 -120 c 0
 -2 -120 21 -82 40 0 c 2
 142 440 l 1
 222 440 l 1
 112 -33 l 2
 90 -132 2 -170 -68 -170 c 0
 -106 -170 -140 -156 -159 -125 c 1
 -89 -95 l 1
EndSplineSet
Validated: 1
EndChar

StartChar: dotlessi
Encoding: 305 305 112
Width: 236
VWidth: 0
Flags: W
HStem: -10 50<123 209.138> 420 20G<142.357 227>
VStem: 66 85<41.4688 133.037> 210 34<45.4626 64>
AnchorPoint: "ogonek" 121 0 basechar 0
AnchorPoint: "bottom" 84 0 basechar 0
AnchorPoint: "top" 199 490 basechar 0
LayerCount: 2
Fore
SplineSet
156 135 m 2
 152 118 151 103 151 89 c 0
 151 60 158 40 172 40 c 8
 190 40 207 51 210 64 c 25
 244 64 l 25
 235 23 192 -10 147 -10 c 16
 99 -10 66 26 66 76 c 0
 66 85 67 94 69 104 c 10
 147 440 l 1
 227 440 l 1
 156 135 l 2
EndSplineSet
Validated: 1
EndChar

StartChar: Agrave
Encoding: 192 192 138
Width: 623
VWidth: 0
HStem: 0 21<15 106.9 530.3 613> 200 50<244 500> 680 20<420.086 522.657> 733 189
VStem: 399 144
AnchorPoint: "ogonek" 533 0 basechar 0
LayerCount: 2
Fore
SplineSet
533 0 m 1,16,-1
EndSplineSet
Refer: 92 768 N 1 0 0 1 564 120 2
Refer: 27 65 N 1 0 0 1 0 0 3
Validated: 1
EndChar

StartChar: Aacute
Encoding: 193 193 139
Width: 623
VWidth: 0
HStem: 0 21<15 106.9 530.3 613> 200 50<244 500> 680 20<420.086 522.657> 733 189
VStem: 437.097 198
AnchorPoint: "bottom" 312 0 basechar 0
AnchorPoint: "ogonek" 533 0 basechar 0
LayerCount: 2
Fore
SplineSet
533 0 m 1,16,-1
EndSplineSet
Refer: 93 769 N 1 0 0 1 629.097 120 2
Refer: 27 65 N 1 0 0 1 0 0 3
Validated: 1
EndChar

StartChar: Acircumflex
Encoding: 194 194 140
Width: 623
VWidth: 0
HStem: 0 21<15 106.9 530.3 613> 200 50<244 500> 680 20<420.086 522.657> 734 146
VStem: 360.097 269
AnchorPoint: "top" 508 840 basechar 0
AnchorPoint: "bottom" 312 0 basechar 0
AnchorPoint: "ogonek" 533 0 basechar 0
LayerCount: 2
Fore
SplineSet
533 0 m 1,18,-1
EndSplineSet
Refer: 94 770 S 1 0 0 1 629.097 120 2
Refer: 27 65 N 1 0 0 1 0 0 3
Validated: 1
EndChar

StartChar: Atilde
Encoding: 195 195 141
Width: 623
VWidth: 0
HStem: 0 21<15 106.9 530.3 613> 200 50<244 500> 680 20<420.086 522.657> 740 57<504.95 599.071> 772 57<401.929 496.05>
VStem: 352 297
AnchorPoint: "bottom" 312 0 basechar 0
AnchorPoint: "ogonek" 533 0 basechar 0
LayerCount: 2
Fore
SplineSet
533 0 m 5,32,-1
EndSplineSet
Refer: 95 771 N 1 0 0 1 629 120 2
Refer: 27 65 N 1 0 0 1 0 0 3
Validated: 1
EndChar

StartChar: Adieresis
Encoding: 196 196 142
Width: 623
VWidth: 0
HStem: 0 21<15 106.9 530.3 613> 200 50<244 500> 680 20<420.086 522.657> 740 73<384 440 544 600>
VStem: 367 90 527 90
AnchorPoint: "top" 508 840 basechar 0
AnchorPoint: "bottom" 312 0 basechar 0
AnchorPoint: "ogonek" 533 0 basechar 0
LayerCount: 2
Fore
SplineSet
533 0 m 1,20,-1
EndSplineSet
Refer: 99 776 N 1 0 0 1 629 120 2
Refer: 27 65 N 1 0 0 1 0 0 3
Validated: 1
EndChar

StartChar: Thorn
Encoding: 222 222 163
Width: 474
VWidth: 0
Flags: W
HStem: 0 21G<45 134.625> 160 50<179 381.25> 490 50<255 436.351> 680 20G<202.371 292>
VStem: 468 85<306.106 460.541>
LayerCount: 2
Fore
SplineSet
553 391 m 0
 553 289 457 160 287 160 c 2
 167 160 l 1
 130 0 l 1
 45 0 l 1
 207 700 l 1
 292 700 l 1
 255 540 l 1
 375 540 l 2
 509 540 553 463 553 391 c 0
243 490 m 1
 179 210 l 1
 313 210 l 2
 406 210 468 310 468 390 c 0
 468 440 445 490 378 490 c 2
 243 490 l 1
EndSplineSet
Validated: 1
EndChar

StartChar: thorn
Encoding: 254 254 164
Width: 491
VWidth: 0
Flags: W
HStem: -8 50<196.81 317.958> 402 50<261.876 400.915> 620 50<108.856 195>
VStem: 74 34<596 614.537> 167 84<527.788 618.953> 435 80<178.723 364.446>
LayerCount: 2
Fore
SplineSet
260 42 m 0
 334 42 435 156 435 279 c 0
 435 345 407 402 353 402 c 0
 246 402 199 342 177 246 c 0
 170 217 166 186 166 157 c 0
 166 95 188 42 260 42 c 0
515 281 m 0
 515 128 373 -8 233 -8 c 0
 187 -8 152 5 127 29 c 1
 74 -200 l 1
 -6 -200 l 1
 161 525 l 2
 165 542 167 557 167 571 c 0
 167 600 159 620 145 620 c 0
 127 620 111 609 108 596 c 1
 74 596 l 1
 83 637 126 670 171 670 c 0
 219 670 251 634 251 585 c 0
 251 576 250 566 248 556 c 2
 218 423 l 1
 256 443 300 452 349 452 c 0
 454 452 515 378 515 281 c 0
EndSplineSet
Validated: 1
EndChar

StartChar: multiply
Encoding: 215 215 165
Width: 418
VWidth: 0
Flags: W
HStem: 112 274
VStem: 106 321
LayerCount: 2
Fore
SplineSet
301 249 m 1
 380 147 l 1
 337 112 l 1
 258 214 l 1
 133 112 l 1
 106 147 l 1
 231 249 l 1
 153 351 l 1
 196 386 l 1
 275 284 l 1
 400 386 l 1
 427 351 l 1
 301 249 l 1
EndSplineSet
Validated: 1
EndChar

StartChar: Oslash
Encoding: 216 216 166
Width: 669
VWidth: 0
Flags: W
HStem: -10 50<269.075 420.448> 0 21G<162 227> 660 50<395.865 555.989> 680 20G<598 666>
VStem: 97 86<137.975 376.175> 642 86<318.974 566.036>
AnchorPoint: "top" 487 700 basechar 0
AnchorPoint: "ogonek" 334 0 basechar 0
AnchorPoint: "bottom" 332 0 basechar 0
LayerCount: 2
Fore
SplineSet
473 660 m 0x2c
 327 660 183 445 183 248 c 0
 183 183 201 135 226 101 c 1
 565 633 l 1
 537 651 505 660 473 660 c 0x2c
601 599 m 1
 263 66 l 1
 288 48 315 40 339 40 c 0x8c
 487 40 642 239 642 458 c 0
 642 520 626 566 601 599 c 1
598 686 m 1
 607 700 l 1
 666 700 l 1
 641 661 l 1
 694 621 728 556 728 463 c 0
 728 273 599 -10 322 -10 c 0x9c
 290 -10 257 -4 227 10 c 1
 221 0 l 1
 162 0 l 1
 184 35 l 1
 133 75 97 142 97 239 c 0
 97 460 260 710 479 710 c 0x6c
 522 710 563 702 598 686 c 1
EndSplineSet
Validated: 1
EndChar

StartChar: oslash
Encoding: 248 248 167
Width: 495
VWidth: 0
Flags: W
HStem: -10 50<217.623 326.191> 400 50<270.281 378.317>
VStem: 72 80<75.1837 258.664> 438 82<178.475 360.345>
LayerCount: 2
Fore
SplineSet
520 290 m 0
 520 185 451 -10 234 -10 c 0
 216 -10 200 -8 185 -5 c 1
 156 -50 l 1
 97 -50 l 1
 137 13 l 1
 94 39 72 86 72 147 c 0
 72 321 217 450 340 450 c 0
 365 450 388 447 409 441 c 1
 440 490 l 1
 499 490 l 1
 455 421 l 1
 496 395 520 352 520 290 c 0
260 40 m 0
 363 40 438 172 438 281 c 0
 438 314 430 341 417 361 c 1
 217 46 l 1
 229 42 244 40 260 40 c 0
175 73 m 1
 379 393 l 1
 368 397 356 400 343 400 c 0
 243 400 152 282 152 152 c 0
 152 119 159 92 175 73 c 1
EndSplineSet
Validated: 1
EndChar

StartChar: AE
Encoding: 198 198 168
Width: 726
VWidth: 0
Flags: W
HStem: 0 50<393 716> 200 50<244 342> 390 50<483 700> 650 50<531 850>
AnchorPoint: "bottom" 402 0 basechar 0
AnchorPoint: "top" 536 700 basechar 0
LayerCount: 2
Fore
SplineSet
15 0 m 1
 432 700 l 1
 862 700 l 1
 850 650 l 1
 531 650 l 1
 483 440 l 1
 712 440 l 1
 700 390 l 1
 471 390 l 1
 393 50 l 1
 728 50 l 1
 716 0 l 1
 296 0 l 1
 342 200 l 1
 214 200 l 1
 95 0 l 1
 15 0 l 1
244 250 m 1
 354 250 l 1
 423 552 l 1
 244 250 l 1
EndSplineSet
Validated: 1
EndChar

StartChar: ae
Encoding: 230 230 169
Width: 767
VWidth: 0
Flags: W
HStem: -10 50<175.21 337.423 499.696 654.284> 220 50<474 722> 254 50<211.348 380.608> 400 50<222.037 383.926 565.622 693.461>
VStem: 62 83<70.6092 194.152> 370 81<88.7798 219.153> 722 78<270.024 370.003>
AnchorPoint: "bottom" 403 0 basechar 0
AnchorPoint: "top" 501 487 basechar 0
LayerCount: 2
Fore
SplineSet
62 103 m 0xde
 62 213 143 304 287 304 c 0xbe
 325 304 360 301 393 296 c 1
 396 311 397 324 397 336 c 0
 397 382 374 400 308 400 c 0
 273 400 227 385 174 353 c 1
 137 405 l 1
 189 429 250 450 305 450 c 0
 409 450 458 434 471 379 c 1
 520 423 580 450 636 450 c 0
 750 450 800 369 800 279 c 0
 800 260 797 240 793 220 c 1
 457 220 l 1
 453 202 451 184 451 166 c 0
 451 88 498 40 576 40 c 0
 627 40 668 63 700 100 c 1
 755 77 l 1
 703 26 632 -10 550 -10 c 0
 490 -10 441 9 410 44 c 1
 351 10 276 -10 215 -10 c 0
 126 -10 62 20 62 103 c 0xde
382 243 m 1
 354 250 324 254 291 254 c 0
 205 254 145 195 145 126 c 0
 145 72 189 40 241 40 c 0
 289 40 339 56 385 84 c 1
 375 106 370 131 370 159 c 0
 370 183 373 207 379 230 c 2
 382 243 l 1
474 270 m 1xde
 721 270 l 1
 722 277 722 283 722 290 c 0
 722 354 696 400 639 400 c 0
 569 400 506 343 474 270 c 1xde
EndSplineSet
Validated: 1
EndChar

StartChar: eth
Encoding: 240 240 170
Width: 492
VWidth: 0
Flags: W
HStem: -10 50<205.945 338.569> 400 50<282.124 417.882>
VStem: 84 81<84.9234 265.498> 438 82<186.669 377.841>
AnchorPoint: "top" 423 700 basechar 0
AnchorPoint: "bottom" 237 0 basechar 0
LayerCount: 2
Fore
SplineSet
84 161 m 0
 84 272 171 450 346 450 c 0
 378 450 408 444 434 431 c 1
 423 479 404 518 376 553 c 1
 314 510 l 1
 297 537 l 1
 355 578 l 1
 338 596 319 612 299 628 c 1
 360 674 l 1
 378 657 396 638 412 618 c 1
 471 660 l 1
 488 632 l 1
 431 592 l 1
 483 521 520 434 520 328 c 0
 520 118 401 -10 240 -10 c 0
 144 -10 84 64 84 161 c 0
438 310 m 0
 438 375 411 400 349 400 c 0
 253 400 165 277 165 170 c 0
 165 102 198 40 266 40 c 0
 418 40 438 250 438 310 c 0
EndSplineSet
Validated: 1
EndChar

StartChar: Eth
Encoding: 208 208 173
Width: 594
VWidth: 0
UnlinkRmOvrlpSave: 1
Flags: W
HStem: 0 50<142 381.707> 390 50<110 135 232 300> 650 50<280 518.773>
VStem: 565 84<350.702 598.965>
AnchorPoint: "top" 406 700 basechar 0
AnchorPoint: "bottom" 250 0 basechar 0
LayerCount: 2
Fore
SplineSet
649 498 m 0
 649 378 577 0 287 0 c 2
 45 0 l 1
 135 390 l 1
 98 390 l 1
 110 440 l 1
 147 440 l 1
 207 700 l 1
 449 700 l 2
 574 700 649 640 649 498 c 0
232 440 m 1
 312 440 l 1
 300 390 l 1
 220 390 l 1
 142 50 l 1
 314 50 l 2
 488 50 565 380 565 500 c 0
 565 611 515 650 452 650 c 2
 280 650 l 1
 232 440 l 1
EndSplineSet
EndChar

StartChar: germandbls
Encoding: 223 223 174
Width: 441
VWidth: 0
Flags: W
HStem: -135 50<-38.5414 14.9089> 390 50<227 369> 620 50<282.655 426.623>
VStem: -75 36<-83.0896 -61> 326 81<12.8342 144.404>
LayerCount: 2
Fore
SplineSet
162 -74 m 1
 162 -74 326 -30 326 72 c 0
 326 152 233 234 233 234 c 1
 369 390 l 1
 215 390 l 1
 120 -21 l 2
 105 -84 47 -135 -10 -135 c 0
 -49 -135 -75 -110 -75 -77 c 0
 -75 -72 -74 -66 -73 -61 c 1
 -39 -61 l 1
 -39 -65 l 2
 -39 -76 -29 -85 -13 -85 c 0
 7 -85 35 -42 47 10 c 2
 142 422 l 2
 188 622 213 670 390 670 c 0
 445 670 482 649 522 625 c 1
 460 573 l 1
 421 605 398 620 363 620 c 0
 258 620 259 577 227 440 c 1
 481 440 l 1
 313 246 l 1
 348 211 407 143 407 75 c 0
 407 -47 181 -112 178 -114 c 1
 162 -74 l 1
EndSplineSet
Validated: 1
EndChar

StartChar: Abreve
Encoding: 258 258 192
Width: 623
VWidth: 0
HStem: 0 21<15 106.9 530.3 613> 200 50<244 500> 680 20<420.086 522.657> 740 57<443.822 557.916>
VStem: 393 41<811.298 833>
AnchorPoint: "bottom" 312 0 basechar 0
AnchorPoint: "ogonek" 533 0 basechar 0
LayerCount: 2
Fore
SplineSet
533 0 m 1,30,-1
EndSplineSet
Refer: 97 774 S 1 0 0 1 629 120 2
Refer: 27 65 N 1 0 0 1 0 0 3
Validated: 1
EndChar

StartChar: Lslash
Encoding: 321 321 224
Width: 514
VWidth: 0
UnlinkRmOvrlpSave: 1
Flags: W
HStem: 0 50<137 460> 680 20G<197.396 287>
AnchorPoint: "top" 332 700 basechar 0
AnchorPoint: "bottom" 250 0 basechar 0
AnchorPoint: "cedilla" 246 0 basechar 0
LayerCount: 2
Fore
SplineSet
137 50 m 1
 472 50 l 1
 460 0 l 1
 40 0 l 1
 123 359 l 1
 61 327 l 1
 39 372 l 1
 138 422 l 1
 202 700 l 1
 287 700 l 1
 234 472 l 1
 296 503 l 1
 318 458 l 1
 220 408 l 1
 137 50 l 1
EndSplineSet
EndChar

StartChar: lslash
Encoding: 322 322 225
Width: 242
VWidth: 0
UnlinkRmOvrlpSave: 1
Flags: W
HStem: -10 50<123 209.138>
VStem: 66 85<41.4688 133.016> 210 34<45.4626 64>
AnchorPoint: "top" 247 700 basechar 0
AnchorPoint: "cedilla" 140 -2 basechar 0
AnchorPoint: "bottom" 84 0 basechar 0
LayerCount: 2
Fore
SplineSet
156 135 m 2
 152 118 151 103 151 89 c 0
 151 60 158 40 172 40 c 0
 190 40 207 51 210 64 c 1
 244 64 l 1
 235 23 192 -10 147 -10 c 0
 99 -10 66 26 66 76 c 0
 66 85 67 94 69 104 c 2
 128 361 l 1
 61 327 l 1
 39 372 l 1
 143 425 l 1
 197 660 l 1
 277 660 l 1
 233 471 l 1
 296 503 l 1
 318 458 l 1
 219 407 l 1
 156 135 l 2
EndSplineSet
EndChar

StartChar: dcroat
Encoding: 273 273 226
Width: 558
VWidth: 0
UnlinkRmOvrlpSave: 1
Flags: W
HStem: -10 50<197.062 325.435 451.5 531.138> 400 50<271.347 394.934> 530 50<393 489 581 618>
VStem: 73 82<84.7649 262.479> 423 50<89 286> 532 34<45.4626 64>
AnchorPoint: "top" 359 490 basechar 0
AnchorPoint: "bottom" 237 0 basechar 0
LayerCount: 2
Fore
SplineSet
256 40 m 0
 356 40 423 157 423 286 c 0
 423 348 402 400 339 400 c 0
 243 400 155 277 155 170 c 0
 155 102 188 40 256 40 c 0
73 155 m 0
 73 289 179 450 336 450 c 0
 389 450 431 432 460 402 c 1
 489 530 l 1
 381 530 l 1
 393 580 l 1
 501 580 l 1
 519 660 l 1
 599 660 l 1
 581 580 l 1
 630 580 l 1
 618 530 l 1
 569 530 l 1
 478 135 l 2
 474 118 473 103 473 89 c 0
 473 60 480 40 494 40 c 0
 512 40 529 51 532 64 c 1
 566 64 l 1
 557 23 514 -10 469 -10 c 0
 434 -10 407 9 395 38 c 1
 349 4 293 -10 230 -10 c 0
 127 -10 73 60 73 155 c 0
EndSplineSet
EndChar

StartChar: Hbar
Encoding: 294 294 246
Width: 581
VWidth: 0
UnlinkRmOvrlpSave: 1
Flags: W
HStem: 0 21G<40 129.629 447 536.629> 350 50<217 528> 566 50<142 171 267 578 674 703> 680 20G<197.238 287 604.238 694>
AnchorPoint: "top" 452 700 basechar 0
AnchorPoint: "bottom" 284 0 basechar 0
LayerCount: 2
Fore
SplineSet
171 566 m 1
 131 566 l 1
 142 616 l 1
 182 616 l 1
 202 700 l 1
 287 700 l 1
 267 616 l 1
 589 616 l 1
 609 700 l 1
 694 700 l 1
 674 616 l 1
 714 616 l 1
 703 566 l 1
 663 566 l 1
 532 0 l 1
 447 0 l 1
 528 350 l 1
 206 350 l 1
 125 0 l 1
 40 0 l 1
 171 566 l 1
578 566 m 1
 256 566 l 1
 217 400 l 1
 539 400 l 1
 578 566 l 1
EndSplineSet
EndChar

StartChar: hbar
Encoding: 295 295 247
Width: 475
VWidth: 0
UnlinkRmOvrlpSave: 1
Flags: W
HStem: 0 21G<70 154.646 381 465.583> 400 50<273.387 426.164> 530 50<146 192 286 371>
VStem: 446 80<190.031 379.739>
AnchorPoint: "bottom" 268 0 basechar 0
LayerCount: 2
Fore
SplineSet
192 530 m 1
 134 530 l 1
 146 580 l 1
 203 580 l 1
 222 660 l 1
 306 660 l 1
 286 580 l 1
 383 580 l 1
 371 530 l 1
 274 530 l 1
 248 425 l 1
 283 441 319 450 356 450 c 0
 469 450 526 405 526 313 c 0
 526 291 522 267 516 240 c 2
 461 0 l 1
 381 0 l 1
 434 228 l 2
 442 263 446 291 446 314 c 0
 446 382 411 400 359 400 c 0
 314 400 272 382 232 353 c 1
 150 0 l 1
 70 0 l 1
 192 530 l 1
EndSplineSet
EndChar

StartChar: Amacron
Encoding: 256 256 252
Width: 623
VWidth: 0
HStem: 0 21<15 106.9 530.3 613> 200 50<244 500> 680 20<420.086 522.657> 740 40<374 595>
VStem: 365 239
AnchorPoint: "bottom" 312 0 basechar 0
AnchorPoint: "ogonek" 533 0 basechar 0
LayerCount: 2
Fore
SplineSet
533 0 m 1,16,-1
EndSplineSet
Refer: 96 772 N 1 0 0 1 629 120 2
Refer: 27 65 N 1 0 0 1 0 0 3
Validated: 1
EndChar

StartChar: kgreenlandic
Encoding: 312 312 305
Width: 448
VWidth: 0
Flags: W
HStem: 0 21G<40 124.697 316.808 414> 420 20G<137.364 222 383.476 498>
AnchorPoint: "top" 312 490 basechar 0
AnchorPoint: "bottom" 218 0 basechar 0
LayerCount: 2
Fore
SplineSet
151 132 m 1
 120 0 l 1
 40 0 l 1
 142 440 l 1
 222 440 l 1
 174 234 l 1
 406 440 l 1
 498 440 l 1
 278 245 l 1
 414 0 l 1
 328 0 l 1
 220 193 l 1
 151 132 l 1
EndSplineSet
Validated: 1
EndChar

StartChar: Tbar
Encoding: 358 358 306
Width: 585
VWidth: 0
UnlinkRmOvrlpSave: 1
Flags: W
HStem: 0 21G<260 349.636> 440 50<295 362 458 520> 650 50<172 410 495 745>
AnchorPoint: "top" 466 700 basechar 0
AnchorPoint: "bottom" 304 0 basechar 0
AnchorPoint: "cedilla" 302 0 basechar 0
LayerCount: 2
Fore
SplineSet
172 700 m 1
 759 700 l 1
 745 650 l 1
 495 650 l 1
 458 490 l 1
 532 490 l 1
 520 440 l 1
 447 440 l 1
 345 0 l 1
 260 0 l 1
 362 440 l 1
 283 440 l 1
 295 490 l 1
 373 490 l 1
 410 650 l 1
 160 650 l 1
 172 700 l 1
EndSplineSet
EndChar

StartChar: tbar
Encoding: 359 359 307
Width: 282
VWidth: 0
Flags: W
HStem: -10 50<169 255.138> 244 50<90 147 239 315> 390 50<142 181 273 340>
VStem: 112 85<41.4688 132> 256 34<45.4626 64>
AnchorPoint: "top" 284 660 basechar 0
AnchorPoint: "cedilla" 192 2 basechar 0
AnchorPoint: "bottom" 128 0 basechar 0
LayerCount: 2
Fore
SplineSet
202 135 m 2
 198 118 197 103 197 89 c 0
 197 60 204 40 218 40 c 0
 236 40 253 51 256 64 c 1
 290 64 l 1
 281 23 238 -10 193 -10 c 0
 145 -10 112 26 112 76 c 0
 112 85 113 94 115 104 c 2
 147 244 l 1
 78 244 l 1
 90 294 l 1
 159 294 l 1
 181 390 l 1
 115 390 l 1
 142 440 l 1
 193 440 l 1
 226 585 l 1
 310 600 l 1
 273 440 l 1
 352 440 l 1
 340 390 l 1
 261 390 l 1
 239 294 l 1
 327 294 l 1
 315 244 l 1
 227 244 l 1
 202 135 l 2
EndSplineSet
Validated: 1
EndChar

StartChar: Eng
Encoding: 330 330 308
Width: 611
VWidth: 0
Flags: W
HStem: -10 50<312.299 436.506> 0 21G<72 161.621> 620 50<365.599 539.726>
VStem: 574 86<395.703 585.935>
LayerCount: 2
Fore
SplineSet
619 312 m 2x70
 573 112 508 -10 352 -10 c 0
 297 -10 256 11 216 35 c 1
 278 87 l 1
 317 55 343 40 378 40 c 0xb0
 471 40 499 158 529 290 c 2
 565 448 l 2
 571 474 574 496 574 515 c 0
 574 598 522 620 465 620 c 0
 393 620 325 583 285 554 c 1
 157 0 l 1
 72 0 l 1
 224 660 l 1
 309 660 l 1
 302 626 l 1
 337 642 389 670 462 670 c 0
 581 670 660 621 660 518 c 0
 660 500 658 481 653 460 c 2
 619 312 l 2x70
EndSplineSet
Validated: 1
Substitution2: "'locl' Localized Forms in Sami-1" Engsami
EndChar

StartChar: eng
Encoding: 331 331 309
Width: 475
VWidth: 0
Flags: W
HStem: -170 50<197.201 310.329> 0 21G<40 124.643> 400 50<57.8561 135.5 243.827 396.164>
VStem: 23 34<376 394.537> 416 80<190.945 379.739>
AnchorPoint: "top" 351 490 basechar 0
LayerCount: 2
Fore
SplineSet
422 -33 m 2
 399 -132 312 -170 242 -170 c 0
 204 -170 170 -156 151 -125 c 1
 221 -95 l 1
 230 -115 249 -120 268 -120 c 0
 308 -120 331 -82 350 0 c 2
 404 228 l 2
 412 263 416 291 416 314 c 0
 416 382 381 400 329 400 c 0
 284 400 240 381 200 352 c 1
 199 347 199 342 198 336 c 2
 120 0 l 1
 40 0 l 1
 110 305 l 2
 114 322 116 337 116 351 c 0
 116 380 108 400 94 400 c 0
 76 400 60 389 57 376 c 1
 23 376 l 1
 32 417 75 450 120 450 c 0
 151 450 175 435 189 411 c 1
 232 436 279 450 326 450 c 0
 439 450 496 405 496 313 c 0
 496 291 492 267 486 240 c 2
 422 -33 l 2
EndSplineSet
Validated: 1
EndChar

StartChar: asciicircum
Encoding: 94 94 310
Width: 418
VWidth: 0
Flags: W
HStem: 94 306
LayerCount: 2
Fore
SplineSet
300 400 m 1
 430 122 l 1
 384 94 l 1
 280 312 l 1
 78 94 l 1
 44 122 l 1
 300 400 l 1
EndSplineSet
Validated: 1
EndChar

StartChar: asciitilde
Encoding: 126 126 312
Width: 406
VWidth: 0
Flags: W
HStem: 205 57<259.556 378.132> 237 57<142.868 261.444>
LayerCount: 2
Fore
SplineSet
393 294 m 1x40
 434 294 l 1x40
 416 244 363 205 305 205 c 0x80
 271 205 220 237 198 237 c 0x40
 168 237 136 227 128 205 c 1
 87 205 l 1x80
 105 255 158 294 216 294 c 0x40
 250 294 301 262 323 262 c 0x80
 353 262 385 272 393 294 c 1x40
EndSplineSet
Validated: 1
EndChar

StartChar: exclamdown
Encoding: 161 161 313
Width: 174
VWidth: 0
Flags: W
HStem: 504 80<180 241>
VStem: 153 50<377.037 404>
LayerCount: 2
Fore
SplineSet
241 504 m 1
 161 504 l 1
 180 584 l 1
 260 584 l 1
 241 504 l 1
18 -116 m 25
 153 404 l 25
 203 404 l 25
 98 -116 l 25
 18 -116 l 25
EndSplineSet
Validated: 1
EndChar

StartChar: questiondown
Encoding: 191 191 314
Width: 431
VWidth: 0
Flags: W
HStem: -116 50<157.691 299.457> -26 20G<324 386.957> 269 105<297 338> 474 80<324 385>
VStem: 38 80<-26.7491 154.864>
LayerCount: 2
Fore
SplineSet
385 474 m 1
 305 474 l 1
 324 554 l 1
 404 554 l 1
 385 474 l 1
276 318 m 1
 297 374 l 1
 347 374 l 1
 338 269 l 1
 303 269 l 2
 181 269 118 158 118 50 c 0
 118 -22 156 -66 231 -66 c 0
 282 -66 308 -43 340 -6 c 1
 394 -29 l 1
 342 -80 286 -116 204 -116 c 0
 97 -116 38 -55 38 44 c 0
 38 199 150 306 276 318 c 1
EndSplineSet
Validated: 1
EndChar

StartChar: cent
Encoding: 162 162 315
Width: 461
VWidth: 0
Flags: W
HStem: 10 50<232.518 259> 380 50<316.48 344.844>
VStem: 92 81<90.0317 261.337> 401 73<306.836 365.804>
LayerCount: 2
Fore
SplineSet
185 19 m 1
 124 37 92 81 92 151 c 0
 92 262 160 391 279 423 c 1
 294 490 l 1
 330 490 l 1
 316 429 l 1
 322 430 328 430 335 430 c 0
 342 430 349 430 356 429 c 1
 370 490 l 1
 406 490 l 1
 390 422 l 1
 440 405 462 362 474 310 c 1
 401 277 l 1
 400 318 397 351 378 368 c 1
 307 62 l 1
 343 68 363 89 389 120 c 1
 443 97 l 1
 400 54 357 22 296 13 c 1
 281 -50 l 1
 245 -50 l 1
 259 10 l 1
 258 10 l 2
 244 10 232 10 220 12 c 1
 205 -50 l 1
 169 -50 l 1
 185 19 l 1
200 84 m 1
 264 359 l 1
 191 312 173 201 173 158 c 0
 173 125 182 100 200 84 c 1
232 67 m 1
 243 63 257 61 271 60 c 1
 345 380 l 1
 343 380 341 380 339 380 c 0
 326 380 315 379 304 376 c 1
 232 67 l 1
EndSplineSet
Validated: 1
EndChar

StartChar: brokenbar
Encoding: 166 166 316
Width: 149
VWidth: 0
Flags: W
HStem: 0 21G<45 104.625> 680 20G<202.375 262>
VStem: 45 217
LayerCount: 2
Fore
SplineSet
262 700 m 25
 188 380 l 25
 133 380 l 25
 207 700 l 25
 262 700 l 25
174 320 m 25
 100 0 l 25
 45 0 l 25
 119 320 l 25
 174 320 l 25
EndSplineSet
Validated: 1
EndChar

StartChar: OE
Encoding: 338 338 317
Width: 904
VWidth: 0
Flags: W
HStem: -10 50<270.251 423.5> 0 50<571 894> 390 50<661 878> 650 50<709 1028> 660 50<395.435 556.413>
VStem: 97 86<139.589 380.148>
AnchorPoint: "top" 607 700 basechar 0
AnchorPoint: "bottom" 452 0 basechar 0
LayerCount: 2
Fore
SplineSet
894 0 m 1x74
 474 0 l 1x74
 480 27 l 1
 429 2 375 -10 322 -10 c 0
 211 -10 97 67 97 239 c 0
 97 454 257 710 479 710 c 0xac
 535 710 587 696 629 669 c 1
 636 700 l 1
 1040 700 l 1
 1028 650 l 1
 709 650 l 1
 661 440 l 1
 890 440 l 1
 878 390 l 1
 649 390 l 1
 571 50 l 1
 906 50 l 1
 894 0 l 1x74
501 115 m 1
 610 587 l 1
 578 637 526 660 473 660 c 0
 327 660 183 445 183 248 c 0
 183 102 273 40 339 40 c 0xac
 387 40 447 65 501 115 c 1
EndSplineSet
Validated: 1
EndChar

StartChar: oe
Encoding: 339 339 318
Width: 822
VWidth: 0
Flags: W
HStem: -10 50<187.624 328.291 553.927 709.284> 220 50<528 777> 400 50<270.281 401.33 620.397 748.461>
VStem: 72 80<76.6797 258.664> 438 67<176.804 219.25> 777 78<270.616 370.242>
LayerCount: 2
Fore
SplineSet
260 40 m 0
 363 40 438 172 438 281 c 0
 438 353 402 400 343 400 c 0
 243 400 152 282 152 152 c 0
 152 82 186 40 260 40 c 0
511 220 m 1
 507 204 505 188 505 166 c 0
 505 88 553 40 631 40 c 0
 682 40 723 63 755 100 c 1
 810 77 l 1
 758 26 687 -10 605 -10 c 0
 527 -10 468 23 441 79 c 1
 396 28 329 -10 234 -10 c 0
 128 -10 72 50 72 147 c 0
 72 321 217 450 340 450 c 0
 421 450 482 420 507 360 c 1
 559 415 627 450 691 450 c 0
 805 450 855 369 855 279 c 0
 855 259 853 240 848 220 c 1
 511 220 l 1
528 270 m 1
 776 270 l 1
 777 277 777 284 777 291 c 0
 777 355 751 400 694 400 c 0
 624 400 561 343 528 270 c 1
EndSplineSet
Validated: 1
EndChar

StartChar: Euro
Encoding: 8364 8364 319
Width: 588
VWidth: 0
Flags: W
HStem: -10 50<304.632 447.462> 250 50<119 151 236 414> 400 50<154 179 276 448> 650 50<414.686 573.851>
VStem: 151 80<125.967 250 300 377.894>
LayerCount: 2
Fore
SplineSet
572 102 m 1
 517 38 431 -10 344 -10 c 0
 257 -10 151 66 151 236 c 2
 151 250 l 1
 93 250 l 1
 119 300 l 1
 156 300 l 1
 161 333 170 370 179 400 c 1
 127 400 l 1
 154 450 l 1
 197 450 l 1
 270 627 403 700 492 700 c 0
 601 700 662 665 686 608 c 1
 615 575 l 1
 599 622 560 650 492 650 c 0
 416 650 331 589 276 450 c 1
 460 450 l 1
 448 400 l 1
 258 400 l 1
 252 380 242 340 236 300 c 1
 425 300 l 1
 414 250 l 1
 231 250 l 1
 231 237 l 2
 231 99 306 40 367 40 c 0
 428 40 476 72 519 129 c 1
 572 102 l 1
EndSplineSet
Validated: 1
EndChar

StartChar: yen
Encoding: 165 165 320
Width: 525
VWidth: 0
UnlinkRmOvrlpSave: 1
Flags: W
HStem: 0 21G<220 309.627> 134 50<181 251 348 406> 236 50<209 274 371 434> 680 20G<202 297.517 543.134 648>
LayerCount: 2
Fore
SplineSet
364 439 m 1
 558 700 l 1
 648 700 l 1
 385 346 l 1
 371 286 l 1
 446 286 l 1
 434 236 l 1
 360 236 l 1
 348 184 l 1
 418 184 l 1
 406 134 l 1
 336 134 l 1
 305 0 l 1
 220 0 l 1
 251 134 l 1
 169 134 l 1
 181 184 l 1
 262 184 l 1
 274 236 l 1
 197 236 l 1
 209 286 l 1
 286 286 l 1
 300 347 l 1
 202 700 l 1
 292 700 l 1
 364 439 l 1
EndSplineSet
EndChar

StartChar: sterling
Encoding: 163 163 321
Width: 441
VWidth: 0
Flags: W
HStem: 0 50<37 62.7146 124 401> 390 50<227 340> 620 50<281.699 426.623>
LayerCount: 2
Fore
SplineSet
124 50 m 1
 413 50 l 1
 401 0 l 1
 25 0 l 1
 37 50 l 1
 56 50 67 72 77 116 c 2
 140 390 l 1
 115 390 l 1
 142 440 l 1
 151 440 l 1
 194 625 218 670 390 670 c 0
 445 670 482 649 522 625 c 1
 460 573 l 1
 421 605 398 620 363 620 c 0
 258 620 259 577 227 440 c 1
 352 440 l 1
 340 390 l 1
 215 390 l 1
 152 116 l 2
 145 84 134 56 124 50 c 1
EndSplineSet
Validated: 1
EndChar

StartChar: section
Encoding: 167 167 322
Width: 395
VWidth: 0
Flags: W
HStem: -9 50<134.074 245.969> 619 50<296.2 408.141>
VStem: 68 48<59.3674 107.458> 140 73<279.862 395.847> 185 74<468.607 580.178> 284 74<82.5734 190.955> 329 73<262.241 380.138> 427 47<552.511 600.404>
LayerCount: 2
Fore
SplineSet
358 150 m 0xe5
 358 90 299 -9 181 -9 c 0
 133 -9 81 9 68 106 c 1
 116 116 l 1
 120 83 126 41 194 41 c 0
 265 41 284 127 284 146 c 0
 284 181 256 201 222 213 c 0
 167 234 140 275 140 323 c 0xf5
 140 350 151 409 203 452 c 1
 191 470 185 489 185 510 c 0
 185 570 243 669 361 669 c 0
 409 669 461 651 474 554 c 1
 427 544 l 1
 423 577 416 619 348 619 c 0
 277 619 259 533 259 514 c 0
 259 479 286 459 320 447 c 0
 375 426 402 385 402 337 c 0xeb
 402 310 391 251 339 208 c 1
 351 190 358 171 358 150 c 0xe5
246 412 m 1
 219 381 213 339 213 323 c 0
 213 272 251 278 297 248 c 1
 324 279 329 321 329 337 c 0xf3
 329 388 292 382 246 412 c 1
EndSplineSet
Validated: 1
EndChar

StartChar: copyright
Encoding: 169 169 323
Width: 538
VWidth: 0
Flags: W
HStem: -10 40<216.967 338.547> 94 30<264.059 354.531> 358 30<302.91 399.492> 462 40<307.066 429.033>
VStem: 107 56<89.2849 288.783> 190 45<145.574 289.18> 483 56<202.617 402.715>
LayerCount: 2
Fore
SplineSet
373 462 m 0
 275 462 163 322 163 181 c 0
 163 91 211 30 273 30 c 0
 371 30 483 170 483 311 c 0
 483 401 435 462 373 462 c 0
107 178 m 0
 107 351 262 502 382 502 c 0
 462 502 539 431 539 314 c 0
 539 138 382 -10 264 -10 c 0
 184 -10 107 61 107 178 c 0
350 358 m 0
 275 358 235 265 235 206 c 0
 235 147 275 124 304 124 c 0
 346 124 368 148 380 161 c 1
 410 146 l 1
 394 130 355 94 291 94 c 0
 244 94 190 127 190 201 c 0
 190 293 261 388 351 388 c 0
 414 388 438 372 454 344 c 1
 410 327 l 1
 403 343 391 358 350 358 c 0
EndSplineSet
Validated: 1
EndChar

StartChar: registered
Encoding: 174 174 324
Width: 538
VWidth: 0
Flags: W
HStem: -10 40<216.967 338.547> 229 30<282 322.498> 361 30<305 381.395> 462 40<307.066 429.033>
VStem: 107 56<89.2849 288.783> 346 44<101 211.4> 386 44<272.938 359.471> 483 56<202.617 402.715>
LayerCount: 2
Fore
SplineSet
373 462 m 0xf9
 275 462 163 322 163 181 c 0
 163 91 211 30 273 30 c 0
 371 30 483 170 483 311 c 0
 483 401 435 462 373 462 c 0xf9
107 178 m 0
 107 351 262 502 382 502 c 0
 462 502 539 431 539 314 c 0
 539 138 382 -10 264 -10 c 0
 184 -10 107 61 107 178 c 0
430 327 m 0xfb
 430 291 402 252 362 237 c 1
 370 224 390 177 390 131 c 0xfd
 390 121 388 111 386 101 c 1xfb
 343 101 l 1
 345 110 346 119 346 128 c 0xfd
 346 172 326 216 312 229 c 1
 275 229 l 1
 245 101 l 1
 201 101 l 1
 268 391 l 1
 355 391 l 2
 413 391 430 357 430 327 c 0xfb
331 259 m 2
 366 259 386 296 386 325 c 0xfb
 386 344 378 361 354 361 c 2
 305 361 l 1
 282 259 l 1
 331 259 l 2
EndSplineSet
Validated: 1
EndChar

StartChar: ordfeminine
Encoding: 170 170 325
Width: 305
VWidth: 0
Flags: W
HStem: 170 30<81 307> 252 30<164.483 247.579 282 323.082> 458 30<202.971 281.644>
VStem: 112 44<286.139 410.256> 248 47<285.619 400.125> 320 22<283.582 294>
LayerCount: 2
Fore
SplineSet
81 200 m 1
 314 200 l 1
 307 170 l 1
 74 170 l 1
 81 200 l 1
112 335 m 0
 112 410 181 488 244 488 c 0
 287 488 309 476 330 466 c 1
 298 328 l 2
 296 319 295 312 295 305 c 0
 295 290 299 282 303 282 c 0
 307 282 317 283 320 294 c 1
 342 294 l 1
 335 264 308 252 289 252 c 0
 275 252 265 259 257 268 c 1
 233 258 208 252 183 252 c 0
 138 252 112 288 112 335 c 0
245 458 m 0
 174 458 156 360 156 329 c 0
 156 292 175 282 198 282 c 0
 215 282 231 286 248 293 c 1
 247 299 248 306 249 312 c 2
 282 453 l 1
 273 456 262 458 245 458 c 0
EndSplineSet
Validated: 1
EndChar

StartChar: ordmasculine
Encoding: 186 186 326
Width: 303
VWidth: 0
Flags: W
HStem: 170 30<81 307> 252 30<181.204 259.066> 458 30<219.814 292.336>
VStem: 122 46<289.906 410.227> 306 45<327.139 450.824>
LayerCount: 2
Fore
SplineSet
81 200 m 1
 314 200 l 1
 307 170 l 1
 74 170 l 1
 81 200 l 1
220 282 m 0
 271 282 306 351 306 400 c 0
 306 435 289 458 261 458 c 0
 214 458 168 402 168 336 c 0
 168 302 185 282 220 282 c 0
351 406 m 0
 351 352 315 252 205 252 c 0
 151 252 122 283 122 333 c 0
 122 425 200 488 260 488 c 0
 316 488 351 460 351 406 c 0
EndSplineSet
Validated: 1
EndChar

StartChar: guilsinglright
Encoding: 8250 8250 327
Width: 288
VWidth: 0
Flags: W
VStem: 64 225
LayerCount: 2
Fore
SplineSet
235 220 m 1
 138 380 l 1
 180 399 l 1
 289 220 l 1
 98 42 l 1
 64 61 l 1
 235 220 l 1
EndSplineSet
Validated: 1
EndChar

StartChar: guilsinglleft
Encoding: 8249 8249 328
Width: 288
VWidth: 0
Flags: W
VStem: 101 225
LayerCount: 2
Fore
SplineSet
155 221 m 1
 252 61 l 1
 210 42 l 1
 101 221 l 1
 292 399 l 1
 326 380 l 1
 155 221 l 1
EndSplineSet
Validated: 1
EndChar

StartChar: quoteleft
Encoding: 8216 8216 331
Width: 174
VWidth: 0
Flags: W
HStem: 481 179
VStem: 156 72<481 516.484>
LayerCount: 2
Fore
SplineSet
272 660 m 1
 232 617 229 581 229 567 c 0
 229 552 232 536 232 517 c 0
 232 506 231 494 228 481 c 1
 156 481 l 1
 186 611 214 633 235 660 c 1
 272 660 l 1
EndSplineSet
Validated: 1
EndChar

StartChar: quoteright
Encoding: 8217 8217 332
Width: 174
VWidth: 0
Flags: W
HStem: 481 179
VStem: 200 72<624.516 660>
LayerCount: 2
Fore
SplineSet
156 481 m 1
 196 524 199 560 199 574 c 0
 199 589 196 605 196 624 c 0
 196 635 197 647 200 660 c 1
 272 660 l 1
 242 530 214 508 193 481 c 1
 156 481 l 1
EndSplineSet
Validated: 1
EndChar

StartChar: bullet
Encoding: 8226 8226 338
Width: 303
VWidth: 0
Flags: W
HStem: 140 236<169.644 255.097>
VStem: 96 229<215.201 298.986>
LayerCount: 2
Fore
SplineSet
325 294 m 0
 325 240 289 140 179 140 c 0
 125 140 96 171 96 221 c 0
 96 313 174 376 234 376 c 0
 290 376 325 348 325 294 c 0
EndSplineSet
Validated: 1
EndChar

StartChar: endash
Encoding: 8211 8211 339
Width: 392
VWidth: 0
Flags: W
HStem: 170 50<91 391>
VStem: 79 324
LayerCount: 2
Fore
SplineSet
91 220 m 1
 403 220 l 1
 391 170 l 1
 79 170 l 1
 91 220 l 1
EndSplineSet
Validated: 1
EndChar

StartChar: emdash
Encoding: 8212 8212 340
Width: 542
VWidth: 0
Flags: W
HStem: 170 50<91 541>
LayerCount: 2
Fore
SplineSet
91 220 m 1
 553 220 l 1
 541 170 l 1
 79 170 l 1
 91 220 l 1
EndSplineSet
Validated: 1
EndChar

StartChar: degree
Encoding: 176 176 342
Width: 282
VWidth: 0
Flags: W
HStem: 493 47<233.642 307.67> 628 47<244.214 318.319>
VStem: 182 49<542.462 615.115> 321 48<552.885 625.538>
LayerCount: 2
Fore
SplineSet
286 628 m 0
 262 628 231 605 231 574 c 0
 231 555 245 540 266 540 c 0
 290 540 321 563 321 594 c 0
 321 613 307 628 286 628 c 0
182 564 m 0
 182 621 239 675 297 675 c 0
 340 675 369 644 369 604 c 0
 369 547 313 493 255 493 c 0
 212 493 182 524 182 564 c 0
EndSplineSet
Validated: 1
EndChar

StartChar: currency
Encoding: 164 164 343
Width: 354
VWidth: 0
Flags: W
HStem: 121 47<178.728 260.399> 274 47<195.601 277.272>
VStem: 125 49<172.717 254.914> 282 49<187.086 269.283>
LayerCount: 2
Fore
SplineSet
240 274 m 0
 210 274 174 245 174 209 c 0
 174 186 191 168 216 168 c 0
 246 168 282 197 282 233 c 0
 282 256 265 274 240 274 c 0
130 170 m 1
 127 179 125 189 125 199 c 0
 125 224 136 250 154 272 c 1
 115 323 l 1
 158 358 l 1
 197 307 l 1
 214 316 232 321 251 321 c 0
 270 321 286 316 299 307 c 1
 362 358 l 1
 389 323 l 1
 326 272 l 1
 329 263 331 253 331 243 c 0
 331 218 320 192 302 170 c 1
 341 119 l 1
 298 84 l 1
 259 135 l 1
 242 126 224 121 205 121 c 0
 186 121 170 126 157 135 c 1
 94 84 l 1
 67 119 l 1
 130 170 l 1
EndSplineSet
Validated: 1
EndChar

StartChar: logicalnot
Encoding: 172 172 347
Width: 340
VWidth: 0
Flags: W
HStem: 170 50<91 299>
VStem: 79 272
LayerCount: 2
Fore
SplineSet
91 220 m 1
 351 220 l 1
 322 95 l 1
 282 95 l 1
 299 170 l 1
 79 170 l 1
 91 220 l 1
EndSplineSet
Validated: 1
EndChar

StartChar: plusminus
Encoding: 177 177 348
Width: 418
VWidth: 0
Flags: W
HStem: 26 50<58 384> 221 50<103 235 297 429>
LayerCount: 2
Fore
SplineSet
58 76 m 1
 396 76 l 1
 384 26 l 1
 46 26 l 1
 58 76 l 1
285 221 m 1
 263 127 l 1
 213 127 l 1
 235 221 l 1
 91 221 l 1
 103 271 l 1
 247 271 l 1
 268 365 l 1
 318 365 l 1
 297 271 l 1
 441 271 l 1
 429 221 l 1
 285 221 l 1
EndSplineSet
Validated: 1
EndChar

StartChar: uni00B5
Encoding: 181 181 349
Width: 542
VWidth: 0
Flags: W
HStem: -10 50<192.857 330.096 435.5 515.138> 420 20G<137.369 222 448.357 533>
VStem: 516 34<45.4626 64>
LayerCount: 2
Fore
SplineSet
462 135 m 2
 458 118 457 103 457 89 c 0
 457 60 464 40 478 40 c 0
 496 40 513 51 516 64 c 1
 550 64 l 1
 541 23 498 -10 453 -10 c 0
 418 -10 391 9 379 38 c 1
 334 7 276 -10 232 -10 c 0
 185 -10 149 0 124 18 c 1
 87 -143 l 1
 7 -143 l 1
 142 440 l 1
 222 440 l 1
 173 228 l 2
 166 197 162 171 162 149 c 0
 162 69 203 40 258 40 c 0
 302 40 338 59 373 92 c 1
 374 96 374 100 375 104 c 2
 453 440 l 1
 533 440 l 1
 462 135 l 2
EndSplineSet
Validated: 1
EndChar

StartChar: divide
Encoding: 247 247 350
Width: 347
VWidth: 0
Flags: W
HStem: 57 73<164 220> 170 50<91 346> 260 73<211 267>
VStem: 79 279
CounterMasks: 1 e0
LayerCount: 2
Fore
SplineSet
164 130 m 1
 237 130 l 1
 220 57 l 1
 147 57 l 1
 164 130 l 1
211 333 m 1
 284 333 l 1
 267 260 l 1
 194 260 l 1
 211 333 l 1
91 220 m 1
 358 220 l 1
 346 170 l 1
 79 170 l 1
 91 220 l 1
EndSplineSet
Validated: 1
EndChar

StartChar: paragraph
Encoding: 182 182 351
Width: 486
VWidth: 0
Flags: W
HStem: 0 21G<253 317.615 377 441.629> 320 50<267.377 327> 650 50<322.206 403 463 527>
VStem: 153 85<398.267 555.752>
LayerCount: 2
Fore
SplineSet
392 650 m 2
 300 650 238 551 238 469 c 0
 238 419 260 370 327 370 c 2
 338 370 l 1
 403 650 l 1
 392 650 l 2
527 650 m 1
 463 650 l 1
 313 0 l 1
 253 0 l 1
 327 320 l 1
 197 322 153 398 153 470 c 0
 153 567 244 700 415 700 c 2
 599 700 l 1
 437 0 l 1
 377 0 l 1
 527 650 l 1
EndSplineSet
Validated: 1
EndChar

StartChar: uni00B9
Encoding: 185 185 352
Width: 157
VWidth: 0
Flags: W
HStem: 626 32<192 213>
VStem: 153 118
LayerCount: 2
Fore
SplineSet
271 667 m 1
 202 368 l 1
 153 368 l 1
 213 629 l 1
 185 626 l 1
 192 658 l 1
 271 667 l 1
EndSplineSet
Validated: 1
EndChar

StartChar: uni00B2
Encoding: 178 178 353
Width: 273
VWidth: 0
Flags: W
HStem: 367 32<182 318> 631 32<237.73 311.279>
VStem: 317 49<540.1 628.34>
LayerCount: 2
Fore
SplineSet
126 367 m 1
 159 508 317 491 317 593 c 0
 317 620 300 631 282 631 c 0
 248 631 229 611 216 588 c 1
 179 603 l 1
 200 632 235 663 298 663 c 0
 339 663 366 636 366 596 c 0
 366 485 204 480 182 399 c 1
 325 399 l 1
 318 367 l 1
 126 367 l 1
EndSplineSet
Validated: 1
EndChar

StartChar: uni00B3
Encoding: 179 179 354
Width: 285
VWidth: 0
Flags: W
HStem: 362 33<191.756 272.936> 505 32<240 289.094> 630 33<244.249 318.134>
VStem: 138 43<402.584 425.442> 301 50<416.555 496.072> 322 49<553.048 627.552>
LayerCount: 2
Fore
SplineSet
240 537 m 1xf8
 309 537 322 573 322 597 c 0xf4
 322 621 304 630 285 630 c 0
 253 630 240 612 224 588 c 1
 188 603 l 1
 212 636 243 663 301 663 c 0xf8
 344 663 371 631 371 597 c 0xf4
 371 547 326 525 318 521 c 1
 342 507 351 488 351 468 c 0
 351 413 297 362 232 362 c 0
 205 362 152 368 138 423 c 1
 181 438 l 1
 183 418 195 395 231 395 c 0
 254 395 301 418 301 461 c 0
 301 483 287 505 233 505 c 1
 240 537 l 1xf8
EndSplineSet
Validated: 1
EndChar

StartChar: threequarters
Encoding: 190 190 355
Width: 528
VWidth: 0
Flags: W
HStem: 0 21G<357 410.688> 64 32<298 372 428 451> 362 33<191.756 272.936> 505 32<240 289.094> 630 33<244.249 318.134>
VStem: 138 43<402.584 425.442> 301 50<416.555 496.072> 322 49<553.048 627.552>
LayerCount: 2
Fore
SplineSet
240 537 m 1xfe
 309 537 322 573 322 597 c 0xfd
 322 621 304 630 285 630 c 0
 253 630 240 612 224 588 c 1
 188 603 l 1
 212 636 243 663 301 663 c 0xfe
 344 663 371 631 371 597 c 0xfd
 371 547 326 525 318 521 c 1
 342 507 351 488 351 468 c 0
 351 413 297 362 232 362 c 0
 205 362 152 368 138 423 c 1
 181 438 l 1
 183 418 195 395 231 395 c 0
 254 395 301 418 301 461 c 0
 301 483 287 505 233 505 c 1
 240 537 l 1xfe
70 129 m 1
 529 511 l 1
 606 511 l 1
 147 129 l 1
 70 129 l 1
250 85 m 1
 426 296 l 1
 474 296 l 1
 428 96 l 1
 458 96 l 1
 451 64 l 1
 421 64 l 1
 406 0 l 1
 357 0 l 1
 372 64 l 1
 245 64 l 1
 250 85 l 1
410 231 m 1
 298 96 l 1
 379 96 l 1
 410 231 l 1
EndSplineSet
Validated: 1
EndChar

StartChar: onequarter
Encoding: 188 188 356
Width: 528
VWidth: 0
Flags: W
HStem: 0 21G<357 410.688> 64 32<298 372 428 451> 626 32<279 300>
LayerCount: 2
Fore
SplineSet
358 667 m 1
 289 368 l 1
 240 368 l 1
 300 629 l 1
 272 626 l 1
 279 658 l 1
 358 667 l 1
70 129 m 1
 529 511 l 1
 606 511 l 1
 147 129 l 1
 70 129 l 1
250 85 m 1
 426 296 l 1
 474 296 l 1
 428 96 l 1
 458 96 l 1
 451 64 l 1
 421 64 l 1
 406 0 l 1
 357 0 l 1
 372 64 l 1
 245 64 l 1
 250 85 l 1
410 231 m 1
 298 96 l 1
 379 96 l 1
 410 231 l 1
EndSplineSet
Validated: 1
EndChar

StartChar: onehalf
Encoding: 189 189 357
Width: 530
VWidth: 0
Flags: W
HStem: 0 32<354 490> 264 32<409.73 483.279> 626 32<279 300>
VStem: 489 49<173.1 261.34>
LayerCount: 2
Fore
SplineSet
358 667 m 1
 289 368 l 1
 240 368 l 1
 300 629 l 1
 272 626 l 1
 279 658 l 1
 358 667 l 1
70 129 m 1
 529 511 l 1
 606 511 l 1
 147 129 l 1
 70 129 l 1
298 0 m 1
 331 141 489 124 489 226 c 0
 489 253 472 264 454 264 c 0
 420 264 401 244 388 221 c 1
 351 236 l 1
 372 265 407 296 470 296 c 0
 511 296 538 269 538 229 c 0
 538 118 376 113 354 32 c 1
 497 32 l 1
 490 0 l 1
 298 0 l 1
EndSplineSet
Validated: 1
EndChar

StartChar: afii00208
Encoding: 8213 8213 358
Width: 676
VWidth: 0
Flags: W
HStem: 170 50<91 675>
LayerCount: 2
Fore
SplineSet
91 220 m 1
 687 220 l 1
 675 170 l 1
 79 170 l 1
 91 220 l 1
EndSplineSet
Validated: 1
EndChar

StartChar: longs
Encoding: 383 383 363
Width: 357
VWidth: 0
Flags: W
HStem: 0 21G<45 129.64> 620 50<282.55 426.623>
LayerCount: 2
Fore
SplineSet
45 0 m 1
 142 422 l 22
 188 622 213 670 390 670 c 4
 445 670 482 649 522 625 c 5
 460 573 l 5
 421 605 398 620 363 620 c 4
 258 620 258 576 228 444 c 6
 125 0 l 1
 45 0 l 1
EndSplineSet
Validated: 1
EndChar

StartChar: uniFB00
Encoding: 64256 64256 365
Width: 572
VWidth: 0
Flags: W
HStem: -135 50<7.45861 60.9089 292.459 345.909> 390 50<142 181 273 466 558 625> 620 50<325.26 416.861 610.26 701.861>
VStem: -29 36<-83.7963 -61> 256 36<-83.7963 -61>
LayerCount: 2
Fore
SplineSet
115 390 m 1
 142 440 l 1
 193 440 l 1
 215 535 l 2
 234 615 291 670 371 670 c 0
 400 670 422 666 439 659 c 1
 406 605 l 1
 400 615 391 620 374 620 c 0
 334 620 309 597 289 509 c 2
 273 440 l 1
 478 440 l 1
 500 535 l 2
 519 615 576 670 656 670 c 0
 685 670 707 666 724 659 c 1
 691 605 l 1
 685 615 676 620 659 620 c 0
 619 620 594 597 574 509 c 2
 558 440 l 1
 637 440 l 1
 625 390 l 1
 546 390 l 1
 451 -21 l 2
 436 -84 378 -135 321 -135 c 0
 282 -135 256 -110 256 -76 c 0
 256 -71 257 -66 258 -61 c 1
 292 -61 l 1
 292 -65 l 2
 292 -76 302 -85 318 -85 c 0
 338 -85 366 -42 378 10 c 2
 466 390 l 5
 261 390 l 1
 166 -21 l 2
 151 -84 93 -135 36 -135 c 0
 -3 -135 -29 -110 -29 -76 c 0
 -29 -71 -28 -66 -27 -61 c 1
 7 -61 l 1
 7 -65 l 2
 7 -76 17 -85 33 -85 c 0
 53 -85 81 -42 93 10 c 2
 181 390 l 1
 115 390 l 1
EndSplineSet
Validated: 1
LCarets2: 1 0 
Ligature2: "'liga' Standard Ligatures in Latin lookup 0-1" f f
EndChar

StartChar: fi
Encoding: 64257 64257 366
Width: 558
VWidth: 0
Flags: W
HStem: -135 50<7.45861 60.9089> -10 50<445 531.138> 390 50<142 181 273 457> 520 80<506 567> 620 50<325.26 416.861>
VStem: -29 36<-83.7963 -61> 388 84<41.4688 133.014> 532 34<45.4626 64>
LayerCount: 2
Fore
SplineSet
506 600 m 1
 586 600 l 1
 567 520 l 1
 487 520 l 1
 506 600 l 1
166 -21 m 2
 151 -84 93 -135 36 -135 c 0
 -3 -135 -29 -110 -29 -76 c 0
 -29 -71 -28 -66 -27 -61 c 1
 7 -61 l 1
 7 -65 l 2
 7 -76 17 -85 33 -85 c 0
 53 -85 81 -42 93 10 c 2
 181 390 l 1
 115 390 l 1
 142 440 l 1
 193 440 l 1
 215 535 l 2
 234 615 291 670 371 670 c 0
 400 670 422 666 439 659 c 1
 406 605 l 1
 400 615 391 620 374 620 c 0
 334 620 309 597 289 509 c 2
 273 440 l 1
 549 440 l 1
 478 135 l 2
 474 118 472 103 472 89 c 0
 472 60 480 40 494 40 c 0
 512 40 529 51 532 64 c 1
 566 64 l 1
 557 23 514 -10 469 -10 c 0
 421 -10 388 26 388 76 c 0
 388 85 389 94 391 104 c 2
 457 390 l 1
 261 390 l 1
 166 -21 l 2
EndSplineSet
Validated: 1
LCarets2: 1 0 
Ligature2: "'liga' Standard Ligatures in Latin lookup 0-1" f i
EndChar

StartChar: fl
Encoding: 64258 64258 367
Width: 467
VWidth: 0
Flags: W
HStem: -135 50<7.45861 60.9089> -10 50<434 520.138> 390 50<142 181 273 340> 620 50<335.475 495.127>
VStem: -29 36<-83.7963 -61> 377 84<41.8906 133.529> 521 34<45.4626 64>
LayerCount: 2
Fore
SplineSet
166 -21 m 2
 151 -84 93 -135 36 -135 c 0
 -3 -135 -29 -110 -29 -76 c 0
 -29 -71 -28 -66 -27 -61 c 1
 7 -61 l 1
 7 -65 l 2
 7 -76 17 -85 33 -85 c 0
 53 -85 81 -42 93 10 c 2
 181 390 l 1
 115 390 l 1
 142 440 l 1
 193 440 l 1
 215 535 l 2
 241 648 331 670 411 670 c 0
 439 670 499 666 516 660 c 1
 588 660 l 1
 467 135 l 2
 463 118 461 103 461 89 c 0
 461 60 469 40 483 40 c 0
 501 40 518 51 521 64 c 1
 555 64 l 1
 546 23 503 -10 458 -10 c 0
 410 -10 377 27 377 76 c 0
 377 85 378 94 380 104 c 2
 496 606 l 1
 486 613 430 620 414 620 c 0
 374 620 315 620 289 509 c 2
 273 440 l 1
 352 440 l 1
 340 390 l 1
 261 390 l 1
 166 -21 l 2
EndSplineSet
Validated: 1
LCarets2: 1 0 
Ligature2: "'liga' Standard Ligatures in Latin lookup 0-1" f l
EndChar

StartChar: uniFB03
Encoding: 64259 64259 368
Width: 843
VWidth: 0
Flags: W
HStem: -135 50<7.45861 60.9089 292.459 345.909> -10 50<730 816.138> 390 50<142 181 273 466 558 742> 520 80<791 852> 620 50<325.26 416.861 610.26 701.861>
VStem: -29 36<-83.7963 -61> 256 36<-83.7963 -61> 673 84<41.4688 133.014> 817 34<45.4626 64>
LayerCount: 2
Fore
SplineSet
115 390 m 1
 142 440 l 1
 193 440 l 1
 215 535 l 2
 234 615 291 670 371 670 c 0
 400 670 422 666 439 659 c 1
 406 605 l 1
 400 615 391 620 374 620 c 0
 334 620 309 597 289 509 c 2
 273 440 l 1
 478 440 l 1
 500 535 l 2
 519 615 576 670 656 670 c 0
 685 670 707 666 724 659 c 1
 691 605 l 1
 685 615 676 620 659 620 c 0
 619 620 594 597 574 509 c 2
 558 440 l 1
 834 440 l 1
 763 135 l 2
 759 118 757 103 757 89 c 0
 757 60 765 40 779 40 c 0
 797 40 814 51 817 64 c 1
 851 64 l 1
 842 23 799 -10 754 -10 c 0
 706 -10 673 26 673 76 c 0
 673 85 674 94 676 104 c 2
 742 390 l 1
 546 390 l 1
 451 -21 l 2
 436 -84 378 -135 321 -135 c 0
 282 -135 256 -110 256 -76 c 0
 256 -71 257 -66 258 -61 c 1
 292 -61 l 1
 292 -65 l 2
 292 -76 302 -85 318 -85 c 0
 338 -85 366 -42 378 10 c 2
 466 390 l 1
 261 390 l 1
 166 -21 l 2
 151 -84 93 -135 36 -135 c 0
 -3 -135 -29 -110 -29 -76 c 0
 -29 -71 -28 -66 -27 -61 c 1
 7 -61 l 1
 7 -65 l 2
 7 -76 17 -85 33 -85 c 0
 53 -85 81 -42 93 10 c 2
 181 390 l 1
 115 390 l 1
791 600 m 1
 871 600 l 1
 852 520 l 1
 772 520 l 1
 791 600 l 1
EndSplineSet
Validated: 1
LCarets2: 2 0 0 
Ligature2: "'liga' Standard Ligatures in Latin lookup 0-1" f f i
EndChar

StartChar: uniFB04
Encoding: 64260 64260 369
Width: 753
VWidth: 0
Flags: W
HStem: -135 50<7.45861 60.9089 293.459 346.909> -10 50<720 806.138> 390 50<142 181 273 467 559 626> 620 50<325.26 416.861 621.475 781.127>
VStem: -29 36<-83.7963 -61> 257 36<-83.7963 -61> 663 84<41.8906 133.529> 807 34<45.4626 64>
LayerCount: 2
Fore
SplineSet
452 -21 m 2
 437 -84 379 -135 322 -135 c 0
 283 -135 257 -110 257 -76 c 0
 257 -71 258 -66 259 -61 c 1
 293 -61 l 1
 293 -65 l 2
 293 -76 303 -85 319 -85 c 0
 339 -85 367 -42 379 10 c 2
 467 390 l 1
 261 390 l 1
 166 -21 l 2
 151 -84 93 -135 36 -135 c 0
 -3 -135 -29 -110 -29 -76 c 0
 -29 -71 -28 -66 -27 -61 c 1
 7 -61 l 1
 7 -65 l 2
 7 -76 17 -85 33 -85 c 0
 53 -85 81 -42 93 10 c 2
 181 390 l 1
 115 390 l 1
 142 440 l 1
 193 440 l 1
 215 535 l 2
 234 615 291 670 371 670 c 0
 400 670 422 666 439 659 c 1
 406 605 l 1
 400 615 391 620 374 620 c 0
 334 620 309 597 289 509 c 2
 273 440 l 1
 479 440 l 1
 501 535 l 2
 527 648 617 670 697 670 c 0
 725 670 785 666 802 660 c 1
 874 660 l 1
 753 135 l 2
 749 118 747 103 747 89 c 0
 747 60 755 40 769 40 c 0
 787 40 804 51 807 64 c 1
 841 64 l 1
 832 23 789 -10 744 -10 c 0
 696 -10 663 27 663 76 c 0
 663 85 664 94 666 104 c 2
 782 606 l 1
 772 613 716 620 700 620 c 0
 660 620 601 620 575 509 c 2
 559 440 l 1
 638 440 l 1
 626 390 l 1
 547 390 l 1
 452 -21 l 2
EndSplineSet
Validated: 1
LCarets2: 2 276 462 
Ligature2: "'liga' Standard Ligatures in Latin lookup 0-1" f f l
EndChar

StartChar: afii10051
Encoding: 1026 1026 384
Width: 708
VWidth: 0
Flags: W
HStem: -170 50<363.113 522.443> 0 21G<260 349.589> 400 50<468.023 621.332> 650 50<172 410 495 745>
VStem: 641 80<188.531 379.739>
AnchorPoint: "top" 466 700 basechar 0
LayerCount: 2
Fore
SplineSet
172 700 m 1
 759 700 l 1
 745 650 l 1
 495 650 l 1
 443 425 l 1
 478 441 514 450 551 450 c 0
 664 450 721 405 721 313 c 0
 721 291 718 267 711 240 c 2
 674 78 l 2
 628 -122 589 -170 412 -170 c 0
 357 -170 305 -149 264 -125 c 1
 326 -73 l 1
 365 -105 403 -120 438 -120 c 0
 543 -120 558 -76 589 56 c 2
 629 228 l 2
 637 263 641 291 641 314 c 0
 641 382 607 400 554 400 c 0
 509 400 466 382 426 353 c 1
 345 0 l 1
 260 0 l 1
 410 650 l 1
 160 650 l 1
 172 700 l 1
EndSplineSet
Validated: 1
EndChar

StartChar: afii10053
Encoding: 1028 1028 386
Width: 647
VWidth: 0
Flags: W
HStem: -10 50<285.802 467.033> 348 50<208 518> 660 50<400.321 582.825>
VStem: 98 86<149.872 345.817>
AnchorPoint: "top" 492 700 basechar 0
LayerCount: 2
Fore
SplineSet
195 348 m 1
 188 316 184 284 184 255 c 0
 184 104 286 40 366 40 c 0
 443 40 511 72 561 129 c 1
 614 102 l 1
 549 38 449 -10 340 -10 c 0
 229 -10 98 70 98 249 c 0
 98 478 280 710 487 710 c 0
 623 710 695 665 727 608 c 1
 645 575 l 1
 623 622 574 660 490 660 c 0
 351 660 252 531 208 398 c 1
 530 398 l 1
 518 348 l 1
 195 348 l 1
EndSplineSet
Validated: 1
EndChar

StartChar: afii10058
Encoding: 1033 1033 391
Width: 900
VWidth: 0
Flags: W
HStem: -10 50<69.2012 182.909> 0 50<533 711.464> 390 50<623 785.873> 650 50<420 586>
VStem: 820 84<176.545 353.553>
AnchorPoint: "top" 513 700 basechar 0
LayerCount: 2
Fore
SplineSet
904 267 m 0xb8
 904 163 806 0 626 0 c 2
 436 0 l 1x78
 586 650 l 1
 420 650 l 1
 299 127 l 2
 276 28 184 -10 114 -10 c 0
 76 -10 42 4 23 35 c 1
 93 65 l 1
 102 45 121 40 140 40 c 0
 180 40 203 78 222 160 c 2
 347 700 l 1
 683 700 l 1
 623 440 l 1
 726 440 l 2
 843 440 904 355 904 267 c 0xb8
653 50 m 2
 742 50 820 173 820 274 c 0
 820 332 797 390 731 390 c 2
 611 390 l 1
 533 50 l 1
 653 50 l 2
EndSplineSet
Validated: 1
EndChar

StartChar: afii10059
Encoding: 1034 1034 392
Width: 871
VWidth: 0
Flags: W
HStem: 0 50<504 682.464> 390 50<227 497 594 756.873> 680 20G<197.371 287 564.385 654>
VStem: 791 84<176.545 353.553>
AnchorPoint: "top" 432 700 basechar 0
LayerCount: 2
Fore
SplineSet
875 267 m 0
 875 163 777 0 597 0 c 2
 407 0 l 1
 497 390 l 1
 215 390 l 1
 125 0 l 1
 40 0 l 1
 202 700 l 1
 287 700 l 1
 227 440 l 1
 509 440 l 1
 569 700 l 1
 654 700 l 1
 594 440 l 1
 697 440 l 2
 814 440 875 355 875 267 c 0
624 50 m 2
 713 50 791 173 791 274 c 0
 791 332 768 390 702 390 c 2
 582 390 l 1
 504 50 l 1
 624 50 l 2
EndSplineSet
Validated: 1
EndChar

StartChar: afii10060
Encoding: 1035 1035 393
Width: 708
VWidth: 0
Flags: W
HStem: 0 21G<260 349.589 576 660.583> 400 50<468.023 621.332> 650 50<172 410 495 745>
VStem: 641 80<190.031 379.739>
AnchorPoint: "top" 466 700 basechar 0
LayerCount: 2
Fore
SplineSet
172 700 m 1
 759 700 l 1
 745 650 l 1
 495 650 l 1
 443 425 l 1
 478 441 514 450 551 450 c 0
 664 450 721 405 721 313 c 0
 721 291 718 267 711 240 c 2
 656 0 l 1
 576 0 l 1
 629 228 l 2
 637 263 641 291 641 314 c 0
 641 382 607 400 554 400 c 0
 509 400 466 382 426 353 c 1
 345 0 l 1
 260 0 l 1
 410 650 l 1
 160 650 l 1
 172 700 l 1
EndSplineSet
Validated: 1
EndChar

StartChar: afii10145
Encoding: 1039 1039 397
Width: 573
VWidth: 0
Flags: W
HStem: 0 50<142 260 307 448> 680 20G<202.371 292 593.385 683>
VStem: 273 57<-156.188 -90.8211>
AnchorPoint: "top" 438 700 basechar 0
LayerCount: 2
Fore
SplineSet
45 0 m 1
 207 700 l 1
 292 700 l 1
 142 50 l 1
 448 50 l 1
 598 700 l 1
 683 700 l 1
 521 0 l 1
 307 0 l 1
 286 -61 l 1
 318 -72 330 -99 330 -116 c 0
 330 -151 281 -180 242 -194 c 1
 235 -182 l 1
 252 -171 273 -148 273 -124 c 0
 273 -103 255 -89 228 -80 c 1
 260 0 l 1
 45 0 l 1
EndSplineSet
Validated: 1048577
EndChar

StartChar: afii10018
Encoding: 1041 1041 399
Width: 514
VWidth: 0
Flags: W
HStem: 0 50<137 325.464> 390 50<227 399.873> 650 50<275 524>
VStem: 434 84<176.545 353.553>
AnchorPoint: "top" 412 700 basechar 0
LayerCount: 2
Fore
SplineSet
267 50 m 2
 356 50 434 173 434 274 c 0
 434 332 411 390 345 390 c 2
 215 390 l 1
 137 50 l 1
 267 50 l 2
518 267 m 0
 518 163 420 0 240 0 c 2
 40 0 l 1
 202 700 l 1
 536 700 l 17
 524 650 l 9
 275 650 l 1
 227 440 l 1
 340 440 l 2
 457 440 518 355 518 267 c 0
EndSplineSet
Validated: 1
EndChar

StartChar: afii10020
Encoding: 1043 1043 401
Width: 439
VWidth: 0
Flags: W
HStem: 0 21G<45 134.615> 650 50<280 599>
AnchorPoint: "top" 417 700 basechar 0
LayerCount: 2
Fore
SplineSet
130 0 m 1
 45 0 l 1
 207 700 l 1
 611 700 l 17
 599 650 l 9
 280 650 l 1
 130 0 l 1
EndSplineSet
Validated: 1
EndChar

StartChar: afii10021
Encoding: 1044 1044 402
Width: 601
VWidth: 0
Flags: W
HStem: -69 119<44 96 512 559> -0 50<112 114.515 188 427> 650 50<377 385 460.569 565 650 671>
AnchorPoint: "top" 527 700 basechar 0
LayerCount: 2
Fore
SplineSet
377 700 m 1x60
 683 700 l 1
 671 650 l 1
 650 650 l 1
 512 50 l 1xa0
 587 50 l 1x60
 559 -69 l 1
 479 -69 l 1xa0
 495 0 l 1
 368 0 240 -0 112 -0 c 1x60
 96 -69 l 1
 16 -69 l 1xa0
 32 0 l 1x60
 44 50 l 1xa0
 101 50 l 1
 153 124 280 332 385 650 c 1
 365 650 l 1
 377 700 l 1x60
565 650 m 1
 465 650 l 1
 371 364 242 138 188 50 c 1
 427 50 l 1x60
 565 650 l 1
EndSplineSet
Validated: 1
EndChar

StartChar: afii10024
Encoding: 1046 1046 404
Width: 745
VWidth: 0
Flags: W
HStem: 0 21G<18 105.5 328 417.615 638 723> 650 50<190 214.375 817.867 863>
VStem: 18 85<0 33.115> 638 86<0 87.0441>
AnchorPoint: "top" 534 700 basechar 0
LayerCount: 2
Fore
SplineSet
488 325 m 1
 413 0 l 1
 328 0 l 1
 403 325 l 1
 312 292 108 19 103 0 c 1
 18 0 l 1
 25 33 198 268 343 350 c 1
 240 428 260 650 178 650 c 1
 190 700 l 1
 373 700 345 426 416 380 c 1
 490 700 l 1
 575 700 l 1
 501 380 l 1
 593 427 692 700 875 700 c 1
 863 650 l 1
 780 650 699 427 560 349 c 1
 661 271 724 57 724 7 c 0
 724 4 723 2 723 0 c 1
 638 0 l 1
 638 1 638 1 638 2 c 0
 638 35 563 292 489 325 c 1
 488 325 l 1
EndSplineSet
Validated: 1
EndChar

StartChar: afii10025
Encoding: 1047 1047 405
Width: 497
VWidth: 0
Flags: W
HStem: -10 50<160.723 317.813> 390 50<269 389.871> 660 50<301.881 462.981>
VStem: 436 86<170.659 341.225> 484 85<512.49 639.612>
AnchorPoint: "top" 407 700 basechar 0
LayerCount: 2
Fore
SplineSet
522 262 m 0xf0
 522 142 399 -10 224 -10 c 0
 116 -10 64 46 52 119 c 1
 131 139 l 18
 131 138 131 137 131 136 c 0
 131 68 165 40 250 40 c 0
 345 40 436 159 436 257 c 0xf0
 436 317 410 390 322 390 c 2
 257 390 l 1
 269 440 l 1
 304 440 l 2
 442 440 484 526 484 584 c 0
 484 629 456 660 403 660 c 0
 329 660 278 642 257 585 c 1
 188 605 l 1
 242 676 331 710 400 710 c 0
 515 710 569 653 569 586 c 0xe8
 569 530 535 455 435 416 c 1
 501 381 522 317 522 262 c 0xf0
EndSplineSet
Validated: 1
EndChar

StartChar: afii10026
Encoding: 1048 1048 406
Width: 616
VWidth: 0
Flags: W
HStem: 0 21G<45 134.667 479 568.629> 680 20G<202.371 292 636.333 726>
AnchorPoint: "top" 461 700 basechar 0
LayerCount: 2
Fore
SplineSet
641 700 m 1
 726 700 l 1
 564 0 l 1
 479 0 l 1
 606 548 l 1
 137 30 l 1
 130 0 l 1
 45 0 l 1
 207 700 l 1
 292 700 l 1
 165 151 l 1
 634 670 l 1
 641 700 l 1
EndSplineSet
Validated: 1
EndChar

StartChar: afii10028
Encoding: 1050 1050 408
Width: 605
VWidth: 0
Flags: W
HStem: 0 58<502.689 542> 680 20G<202.371 292 589.556 712>
AnchorPoint: "top" 418 700 basechar 0
LayerCount: 2
Fore
SplineSet
555 58 m 1
 542 0 l 1
 314 0 389 312 311 344 c 1
 183 229 l 1
 130 0 l 1
 45 0 l 1
 207 700 l 1
 292 700 l 1
 208 340 l 1
 612 700 l 1
 712 700 l 1
 366 393 l 1
 491 333 422 58 555 58 c 1
EndSplineSet
Validated: 1
EndChar

StartChar: afii10029
Encoding: 1051 1051 409
Width: 593
VWidth: 0
Flags: W
HStem: -10 50<69.2012 182.909> 0 21G<456 545.629> 650 50<420 606>
AnchorPoint: "top" 523 700 basechar 0
LayerCount: 2
Fore
SplineSet
456 0 m 1x60
 606 650 l 1
 420 650 l 1
 299 127 l 2
 276 28 184 -10 114 -10 c 0
 76 -10 42 4 23 35 c 1
 93 65 l 1
 102 45 121 40 140 40 c 0xa0
 180 40 203 78 222 160 c 2
 347 700 l 1
 703 700 l 1
 541 0 l 1
 456 0 l 1x60
EndSplineSet
Validated: 1
EndChar

StartChar: afii10033
Encoding: 1055 1055 413
Width: 573
VWidth: 0
Flags: W
HStem: 0 21G<45 134.615 436 525.629> 650 50<280 586>
AnchorPoint: "top" 443 700 basechar 0
LayerCount: 2
Fore
SplineSet
45 0 m 9
 207 700 l 1
 683 700 l 1
 521 0 l 1
 436 0 l 1
 586 650 l 1
 280 650 l 1
 130 0 l 17
 45 0 l 9
EndSplineSet
Validated: 1
EndChar

StartChar: afii10037
Encoding: 1059 1059 417
Width: 490
VWidth: 0
Flags: W
HStem: -10 50<124.029 186.402> 680 20G<177 252.636 559.045 656>
AnchorPoint: "top" 416 700 basechar 0
LayerCount: 2
Fore
SplineSet
126 -10 m 0
 87 -10 64 18 38 56 c 1
 109 88 l 1
 132 42 141 40 152 40 c 0
 179 40 200 78 236 138 c 2
 249 160 l 1
 177 700 l 1
 250 700 l 1
 308 260 l 1
 571 700 l 1
 656 700 l 1
 319 136 l 2
 261 37 208 -10 126 -10 c 0
EndSplineSet
Validated: 1
EndChar

StartChar: afii10038
Encoding: 1060 1060 418
Width: 669
VWidth: 0
Flags: W
HStem: 0 21G<289 378.731> 92 52<265.952 310> 558 51<349.334 418 514 551.306> 680 20G<446.385 536>
VStem: 105 85<217.902 395.663> 635 85<306.627 479.955>
AnchorPoint: "top" 495 700 basechar 0
LayerCount: 2
Fore
SplineSet
322 144 m 1
 418 558 l 1
 285 541 190 417 190 300 c 0
 190 214 246 158 322 144 c 1
430 609 m 1
 451 700 l 1
 536 700 l 1
 514 606 l 1
 631 587 720 514 720 403 c 0
 720 256 580 115 396 93 c 1
 374 0 l 1
 289 0 l 1
 310 92 l 1
 204 106 105 182 105 299 c 0
 105 461 274 595 430 609 c 1
502 555 m 1
 407 144 l 1
 528 166 635 274 635 400 c 0
 635 483 582 538 502 555 c 1
EndSplineSet
Validated: 1
EndChar

StartChar: afii10040
Encoding: 1062 1062 420
Width: 630
VWidth: 0
Flags: W
HStem: 0 50<142 448> 680 20G<202.371 292 593.385 683>
VStem: 537 57<-156.188 -90.8211>
AnchorPoint: "top" 438 700 basechar 0
LayerCount: 2
Fore
SplineSet
588 50 m 13
 550 -61 l 5
 582 -72 594 -99 594 -116 c 4
 594 -151 545 -180 506 -194 c 5
 499 -182 l 5
 516 -171 537 -148 537 -124 c 4
 537 -103 519 -89 492 -80 c 5
 524 0 l 5
 45 0 l 1
 207 700 l 1
 292 700 l 1
 142 50 l 1
 448 50 l 1
 598 700 l 1
 683 700 l 1
 533 50 l 5
 588 50 l 13
EndSplineSet
Validated: 1048577
EndChar

StartChar: afii10041
Encoding: 1063 1063 421
Width: 518
VWidth: 0
Flags: W
HStem: 0 21G<381 470.629> 255 50<261.113 420.754> 680 20G<197.294 287 538.345 628>
VStem: 146 87<333.615 554.125>
AnchorPoint: "top" 418 700 basechar 0
LayerCount: 2
Fore
SplineSet
462 352 m 1
 543 700 l 1
 628 700 l 1
 466 0 l 1
 381 0 l 1
 446 280 l 1
 411 264 345 255 308 255 c 0
 201 255 146 302 146 411 c 0
 146 444 152 484 162 530 c 2
 202 700 l 1
 287 700 l 1
 250 542 l 2
 238 489 233 448 233 416 c 0
 233 318 282 305 334 305 c 0
 379 305 423 323 462 352 c 1
EndSplineSet
Validated: 1
EndChar

StartChar: afii10042
Encoding: 1064 1064 422
Width: 738
VWidth: 0
Flags: W
HStem: 0 50<142 335 420 613> 680 20G<202.371 292 480.385 570 758.385 848>
AnchorPoint: "top" 529 700 basechar 0
LayerCount: 2
Fore
SplineSet
848 700 m 1
 686 0 l 1
 45 0 l 1
 207 700 l 1
 292 700 l 1
 142 50 l 1
 335 50 l 1
 485 700 l 1
 570 700 l 1
 420 50 l 1
 613 50 l 1
 763 700 l 1
 848 700 l 1
EndSplineSet
Validated: 1
EndChar

StartChar: afii10043
Encoding: 1065 1065 423
Width: 795
VWidth: 0
Flags: W
HStem: 0 50<142 335 420 613> 680 20G<202.371 292 480.385 570 758.385 848>
VStem: 702 57<-156.188 -90.8211>
AnchorPoint: "top" 529 700 basechar 0
LayerCount: 2
Fore
SplineSet
689 0 m 1
 45 0 l 1
 207 700 l 1
 292 700 l 1
 142 50 l 1
 335 50 l 1
 485 700 l 1
 570 700 l 1
 420 50 l 1
 613 50 l 1
 763 700 l 1
 848 700 l 1
 698 50 l 1
 753 50 l 9
 715 -61 l 1
 747 -72 759 -99 759 -116 c 0
 759 -151 710 -180 671 -194 c 1
 664 -182 l 1
 681 -171 702 -148 702 -124 c 0
 702 -103 684 -89 657 -80 c 1
 689 0 l 1
EndSplineSet
Validated: 1048577
EndChar

StartChar: afii10044
Encoding: 1066 1066 424
Width: 638
VWidth: 0
Flags: W
HStem: 0 50<261 449.464> 390 50<351 523.873> 650 50<172 314>
VStem: 558 84<176.545 353.553>
AnchorPoint: "top" 369 700 basechar 0
LayerCount: 2
Fore
SplineSet
642 267 m 0
 642 163 544 0 364 0 c 2
 164 0 l 1
 314 650 l 1
 160 650 l 1
 172 700 l 1
 411 700 l 1
 351 440 l 1
 464 440 l 2
 581 440 642 355 642 267 c 0
391 50 m 2
 480 50 558 173 558 274 c 0
 558 332 535 390 469 390 c 2
 339 390 l 1
 261 50 l 1
 391 50 l 2
EndSplineSet
Validated: 1
EndChar

StartChar: afii10046
Encoding: 1068 1068 426
Width: 514
VWidth: 0
Flags: W
HStem: 0 50<137 325.464> 390 50<227 399.873> 680 20G<197.371 287>
VStem: 434 84<176.545 353.553>
AnchorPoint: "top" 364 700 basechar 0
LayerCount: 2
Fore
SplineSet
267 50 m 2
 356 50 434 173 434 274 c 0
 434 332 411 390 345 390 c 2
 215 390 l 1
 137 50 l 1
 267 50 l 2
518 267 m 0
 518 163 420 0 240 0 c 2
 40 0 l 1
 202 700 l 1
 287 700 l 1
 227 440 l 1
 340 440 l 2
 457 440 518 355 518 267 c 0
EndSplineSet
Validated: 1
EndChar

StartChar: afii10047
Encoding: 1069 1069 427
Width: 626
VWidth: 0
Flags: W
HStem: -10 50<171.672 372.134> 348 50<350 585> 660 50<330.707 530.763>
VStem: 602 84<399.498 581.387>
AnchorPoint: "top" 452 700 basechar 0
LayerCount: 2
Fore
SplineSet
54 102 m 1
 119 129 l 1
 143 72 173 40 287 40 c 0
 382 40 534 129 585 348 c 1
 338 348 l 1
 350 398 l 1
 595 398 l 1
 599 425 602 450 602 473 c 0
 602 599 540 660 449 660 c 0
 344 660 285 622 241 575 c 1
 173 608 l 1
 233 665 310 710 446 710 c 0
 583 710 686 635 686 470 c 0
 686 434 681 394 671 350 c 0
 613 100 430 -10 261 -10 c 0
 152 -10 89 38 54 102 c 1
EndSplineSet
Validated: 1
EndChar

StartChar: afii10048
Encoding: 1070 1070 428
Width: 789
VWidth: 0
Flags: W
HStem: -10 50<412.488 560.159> 0 21G<45 134.598> 348 50<222 270> 660 50<535.642 690.369> 680 20G<202.371 292>
VStem: 256 85<126.114 346.467> 764 85<326.133 580.818>
AnchorPoint: "top" 446 700 basechar 0
LayerCount: 2
Fore
SplineSet
613 660 m 0xb6
 456 660 341 407 341 235 c 0
 341 98 415 40 479 40 c 0
 642 40 764 279 764 472 c 0
 764 604 696 660 613 660 c 0xb6
849 474 m 0
 849 310 750 -10 462 -10 c 0xb6
 353 -10 256 64 256 228 c 0
 256 263 260 303 270 348 c 1
 210 348 l 1
 130 0 l 1
 45 0 l 1
 207 700 l 1
 292 700 l 1x6e
 222 398 l 1
 284 398 l 1
 349 614 494 710 619 710 c 0
 752 710 849 637 849 474 c 0
EndSplineSet
Validated: 1
EndChar

StartChar: afii10049
Encoding: 1071 1071 429
Width: 547
VWidth: 0
Flags: W
HStem: 0 58<33 76.7814> 320 50<353.938 484> 650 50<356.202 560>
VStem: 186 85<399.069 555.97>
AnchorPoint: "top" 468 700 basechar 0
LayerCount: 2
Fore
SplineSet
425 650 m 2
 333 650 271 551 271 469 c 0
 271 419 294 370 360 370 c 2
 495 370 l 1
 560 650 l 1
 425 650 l 2
186 470 m 0
 186 568 278 700 452 700 c 2
 657 700 l 1
 495 0 l 1
 410 0 l 1
 484 320 l 1
 373 320 l 1
 286 240 186 0 20 0 c 1
 33 58 l 1
 104 58 177 231 284 332 c 1
 212 357 186 415 186 470 c 0
EndSplineSet
Validated: 1
EndChar

StartChar: afii10066
Encoding: 1073 1073 431
Width: 492
VWidth: 0
Flags: W
HStem: -10 50<202.602 328.04> 400 50<249.521 402.775> 587 50<329.98 493.996>
VStem: 89 78<77.2904 293.846> 435 82<183.127 366.356>
AnchorPoint: "top" 421 700 basechar 0
LayerCount: 2
Fore
SplineSet
89 161 m 0
 89 346 226 637 390 637 c 2
 415 637 l 2
 453 637 505 656 523 682 c 1
 537 677 553 669 553 669 c 1
 553 669 518 582 442 582 c 0
 412 582 413 587 379 587 c 0
 335 587 281 541 232 423 c 1
 269 440 309 450 344 450 c 0
 469 450 517 384 517 294 c 0
 517 133 390 -10 238 -10 c 0
 181 -10 89 15 89 161 c 0
199 329 m 1
 177 259 167 204 167 162 c 0
 167 73 210 40 264 40 c 0
 365 40 435 179 435 284 c 0
 435 348 409 400 347 400 c 0
 291 400 225 382 199 329 c 1
EndSplineSet
Validated: 1
EndChar

StartChar: afii10067
Encoding: 1074 1074 432
Width: 492
VWidth: 0
Flags: W
HStem: -10 50<189.5 345.981> 215 50<181 356.776> 400 50<258.53 395.237>
VStem: 72 81<77.8905 212.754> 396 80<86.5556 187.194> 403 77<303.334 389.663>
AnchorPoint: "top" 329 490 basechar 0
LayerCount: 2
Fore
SplineSet
318 400 m 0xf4
 268 400 201 346 181 265 c 1
 269 265 l 2
 343 265 392 304 397 325 c 0
 399 334 403 346 403 358 c 0
 403 380 389 400 318 400 c 0xf4
480 351 m 0
 480 269 414 254 389 248 c 1
 452 237 476 191 476 151 c 0xf8
 476 84 399 -10 227 -10 c 0
 133 -10 72 41 72 120 c 0
 72 132 74 145 77 159 c 2
 107 288 l 2
 120 344 195 450 310 450 c 0
 445 450 480 400 480 351 c 0
258 40 m 0
 375 40 396 116 396 144 c 0
 396 185 354 215 270 215 c 2
 170 215 l 1
 155 152 153 144 153 136 c 0
 153 102 178 40 258 40 c 0
EndSplineSet
Validated: 1
EndChar

StartChar: afii10068
Encoding: 1075 1075 433
Width: 387
VWidth: 0
Flags: W
HStem: -10 50<180.914 303.293> 400 50<186.656 308.086>
VStem: 91 85<47.0141 127.451> 313 85<322.989 392.824>
AnchorPoint: "top" 303 490 basechar 0
LayerCount: 2
Fore
SplineSet
176 80 m 0
 176 50 199 40 242 40 c 0
 277 40 337 77 353 108 c 9
 385 100 l 17
 351 32 295 -10 217 -10 c 0
 125 -10 91 26 91 76 c 0
 91 182 313 306 313 360 c 0
 313 389 290 400 247 400 c 0
 212 400 152 362 135 331 c 9
 103 339 l 17
 137 408 193 450 272 450 c 0
 364 450 398 414 398 364 c 0
 398 283 176 158 176 80 c 0
EndSplineSet
Validated: 1
EndChar

StartChar: afii10069
Encoding: 1076 1076 434
Width: 492
VWidth: 0
Flags: W
HStem: -10 50<205.945 338.08> 400 50<282.124 417.006>
VStem: 84 81<84.7249 265.498> 438 82<187.765 379.322>
LayerCount: 2
Fore
SplineSet
84 161 m 0
 84 272 171 450 346 450 c 0
 378 450 409 444 435 431 c 1
 426 465 409 542 299 628 c 1
 360 674 l 1
 453 586 520 471 520 327 c 0
 520 291 515 252 506 212 c 0
 468 48 340 -10 240 -10 c 0
 144 -10 84 64 84 161 c 0
349 400 m 0
 253 400 165 277 165 170 c 0
 165 101 198 40 266 40 c 0
 404 40 438 222 438 310 c 0
 438 374 411 400 349 400 c 0
EndSplineSet
Validated: 1
EndChar

StartChar: afii10072
Encoding: 1078 1078 436
Width: 628
VWidth: 0
Flags: W
HStem: -10 50<20.6735 74.4491> 0 21G<274 358.649 504 589> 390 50<136 167.457 627.892 684>
VStem: -16 36<41.7456 64> 505 85<0 89.3762>
AnchorPoint: "top" 428 490 basechar 0
LayerCount: 2
Fore
SplineSet
397 185 m 1x78
 354 0 l 1
 274 0 l 1x78
 317 185 l 1
 306 186 296 188 287 190 c 1
 242 157 186 97 154 50 c 1
 127 13 88 -10 49 -10 c 0
 11 -10 -16 14 -16 48 c 0
 -16 53 -15 59 -14 64 c 1
 20 64 l 1
 20 63 20 61 20 60 c 0
 20 49 32 40 46 40 c 0xb8
 72 40 93 108 235 221 c 1
 180 280 212 390 124 390 c 1
 136 440 l 1
 318 440 265 269 329 239 c 1
 376 440 l 1
 456 440 l 1
 409 239 l 1
 488 269 514 440 696 440 c 1
 684 390 l 1
 596 390 577 280 495 221 c 1
 553 149 590 45 590 8 c 0
 590 5 589 2 589 0 c 1
 504 0 l 1
 505 4 505 8 505 13 c 0
 505 57 469 147 430 190 c 1
 419 188 408 186 397 185 c 1x78
EndSplineSet
Validated: 1
EndChar

StartChar: afii10073
Encoding: 1079 1079 437
Width: 438
VWidth: 0
Flags: W
HStem: -10 50<141.767 296.294> 220 50<206 322.444> 400 50<215.591 361.525>
VStem: 50 62<68.3875 88.3548> 348 81<87.5593 196.145> 372 81<305.151 388.958>
AnchorPoint: "top" 323 490 basechar 0
LayerCount: 2
Fore
SplineSet
429 156 m 0xf8
 429 90 382 -10 197 -10 c 0
 111 -10 63 44 50 87 c 1
 112 99 l 1
 120 64 168 40 220 40 c 0
 308 40 348 101 348 149 c 0xf8
 348 197 306 220 230 220 c 2
 195 220 l 1
 206 270 l 1
 234 270 l 2
 342 270 372 319 372 352 c 0
 372 381 347 400 303 400 c 0
 244 400 202 381 188 347 c 1
 132 359 l 1
 158 404 213 450 303 450 c 0
 410 450 453 415 453 364 c 0xf4
 453 315 418 275 363 250 c 1
 410 229 429 195 429 156 c 0xf8
EndSplineSet
Validated: 1
EndChar

StartChar: afii10076
Encoding: 1082 1082 440
Width: 448
VWidth: 0
Flags: W
HStem: 0 21G<40 124.697 316.808 414> 400 50<58.8561 145> 420 20G<383.476 498>
VStem: 24 34<376 394.537> 117 85<261.602 399.258>
AnchorPoint: "top" 297 490 basechar 0
LayerCount: 2
Fore
SplineSet
111 305 m 2xb8
 115 322 117 337 117 351 c 0
 117 380 109 400 95 400 c 0
 77 400 61 389 58 376 c 1
 24 376 l 1
 33 417 76 450 121 450 c 0xd8
 169 450 202 414 202 364 c 0
 202 355 200 346 198 336 c 2
 174 234 l 1
 406 440 l 1
 498 440 l 1
 278 245 l 1
 414 0 l 1
 328 0 l 1
 220 193 l 1
 151 132 l 1
 120 0 l 1
 40 0 l 1
 111 305 l 2xb8
EndSplineSet
Validated: 1
EndChar

StartChar: afii10077
Encoding: 1083 1083 441
Width: 556
VWidth: 0
Flags: W
HStem: -10 50<69.2012 182.329 502.5 587.048> 390 50<401.063 495.425>
VStem: 444 86<40.6581 179.453> 499 83<246.258 386.286> 589 34<45.7963 64>
AnchorPoint: "top" 494 490 basechar 0
LayerCount: 2
Fore
SplineSet
535 135 m 2xd8
 532 120 530 104 530 90 c 0
 530 62 536 40 551 40 c 0
 567 40 586 51 589 64 c 9
 623 64 l 17
 614 24 571 -10 526 -10 c 0
 479 -10 444 23 444 74 c 0xe8
 444 84 446 94 448 104 c 2
 491 289 l 2
 496 314 499 333 499 347 c 0
 499 384 481 390 452 390 c 0
 395 390 338 315 294 127 c 0
 271 28 184 -10 114 -10 c 0
 76 -10 42 4 23 35 c 1
 93 65 l 1
 102 45 121 40 140 40 c 0
 180 40 203 78 222 160 c 0
 277 397 427 440 471 440 c 0
 528 440 582 423 582 355 c 0
 582 343 580 329 576 314 c 2
 535 135 l 2xd8
EndSplineSet
Validated: 1
EndChar

StartChar: afii10078
Encoding: 1084 1084 442
Width: 578
VWidth: 0
Flags: W
HStem: -10 50<15.4586 68.4431> 0 21G<446 530.636> 420 20G<167.344 257.625 533.069 628>
VStem: -21 36<41.4029 64>
AnchorPoint: "top" 414 490 basechar 0
LayerCount: 2
Fore
SplineSet
516 300 m 1x70
 301 12 l 1
 219 299 l 1
 174 104 l 2
 159 38 99 -10 44 -10 c 0
 5 -10 -21 16 -21 49 c 0
 -21 54 -20 59 -19 64 c 1
 15 64 l 1
 15 63 15 61 15 60 c 0
 15 49 25 40 41 40 c 0xb0
 65 40 93 98 101 135 c 2
 172 440 l 1
 252 440 l 1
 333 152 l 1
 548 440 l 1
 628 440 l 1
 526 0 l 1
 446 0 l 1
 516 300 l 1x70
EndSplineSet
Validated: 1
EndChar

StartChar: afii10079
Encoding: 1085 1085 443
Width: 493
VWidth: 0
Flags: W
HStem: -10 50<439.5 524.827> 0 21G<45 129.651> 215 50<186 411> 420 20G<142.364 227 458.314 543>
VStem: 382 85<40.2031 130.793> 526 34<45.5627 64>
AnchorPoint: "top" 359 490 basechar 0
LayerCount: 2
Fore
SplineSet
472 135 m 6x7c
 469 121 467 105 467 90 c 4
 467 63 473 40 488 40 c 4
 505 40 523 51 526 64 c 13
 560 64 l 21
 550 23 508 -10 463 -10 c 4xbc
 416 -10 382 24 382 75 c 4
 382 84 383 94 385 104 c 6
 411 215 l 1
 175 215 l 1
 125 0 l 1
 45 0 l 1
 147 440 l 1
 227 440 l 1
 186 265 l 1
 422 265 l 1
 463 440 l 1
 543 440 l 1
 472 135 l 6x7c
EndSplineSet
Validated: 1
EndChar

StartChar: afii10085
Encoding: 1091 1091 449
Width: 475
VWidth: 0
Flags: W
HStem: -170 50<163.755 304.023> -10 50<185.772 337.74> 420 20G<137.333 222 448.337 533>
VStem: 75 84<67.0918 244.531>
AnchorPoint: "top" 351 490 basechar 0
LayerCount: 2
Fore
SplineSet
370 84 m 1
 453 440 l 1
 533 440 l 1
 449 78 l 2
 403 -122 379 -170 202 -170 c 0
 147 -170 110 -149 69 -125 c 1
 131 -73 l 1
 170 -105 193 -120 228 -120 c 0
 312 -120 330 -85 355 16 c 1
 315 -1 270 -10 232 -10 c 0
 123 -10 75 31 75 117 c 0
 75 141 79 169 86 200 c 2
 142 440 l 1
 222 440 l 1
 169 212 l 2
 162 183 159 158 159 137 c 0
 159 60 203 40 258 40 c 0
 301 40 336 57 370 84 c 1
EndSplineSet
Validated: 1
EndChar

StartChar: afii10086
Encoding: 1092 1092 450
Width: 713
VWidth: 0
Flags: W
HStem: -210 50<216.626 269.715> -8 50<175.913 292.654 454.245 570.197> 402 50<245.809 355.187 527.618 651.197> 612 50<548.785 602.846>
VStem: 75 79<63.677 263.392> 181 35<-157.963 -136> 379 55<180.303 252.678> 603 35<588 609.963> 665 78<196.044 390.766>
AnchorPoint: "top" 518 700 basechar 0
LayerCount: 2
Fore
SplineSet
743 321 m 0
 743 180 658 -8 490 -8 c 0
 444 -8 428 6 404 29 c 1
 375 -96 l 2
 360 -162 302 -210 246 -210 c 0
 212 -210 181 -189 181 -153 c 0
 181 -147 181 -142 183 -136 c 1
 217 -136 l 1
 217 -138 216 -140 216 -141 c 0
 216 -151 225 -160 242 -160 c 0
 265 -160 293 -102 302 -65 c 2
 324 29 l 1
 288 6 251 -8 205 -8 c 0
 112 -8 75 52 75 134 c 0
 75 212 118 452 301 452 c 0
 350 452 387 444 415 423 c 1
 444 548 l 2
 459 614 517 662 573 662 c 0
 606 662 638 641 638 605 c 0
 638 599 637 594 636 588 c 1
 602 588 l 1
 602 589 603 591 603 592 c 0
 603 602 593 612 576 612 c 0
 553 612 525 554 516 517 c 2
 495 423 l 1
 533 444 557 452 606 452 c 0
 701 452 743 409 743 321 c 0
371 232 m 0
 376 256 379 279 379 300 c 0
 379 358 357 402 305 402 c 0
 171 402 154 157 154 134 c 0
 154 82 172 42 232 42 c 0
 317 42 349 140 371 232 c 0
517 42 m 0
 626 42 665 263 665 324 c 0
 665 369 651 402 610 402 c 0
 498 402 471 321 451 232 c 0
 442 196 434 158 434 126 c 0
 434 78 453 42 517 42 c 0
EndSplineSet
Validated: 1
EndChar

StartChar: afii10088
Encoding: 1094 1094 452
Width: 542
VWidth: 0
Flags: W
HStem: -10 50<185.772 337.145> 420 20G<137.333 222 448.357 533>
VStem: 75 84<67.0918 244.531> 372 85<69.3494 182.656> 450 57<-156.188 -90.8211> 516 34<45.1975 64>
AnchorPoint: "top" 351 490 basechar 0
LayerCount: 2
Fore
SplineSet
462 135 m 2xf4
 458 118 457 103 457 89 c 0xf4
 457 60 464 40 478 40 c 0
 496 40 513 51 516 64 c 1
 550 64 l 1
 543 32 515 4 481 -6 c 1
 463 -61 l 1
 495 -72 507 -99 507 -116 c 0
 507 -151 458 -180 419 -194 c 1
 412 -182 l 1
 429 -171 450 -148 450 -124 c 0xec
 450 -103 432 -89 405 -80 c 1
 434 -8 l 1
 412 -3 394 11 383 30 c 1
 337 5 279 -10 232 -10 c 0
 123 -10 75 31 75 117 c 0
 75 141 79 169 86 200 c 2
 142 440 l 1
 222 440 l 1
 169 212 l 2
 162 183 159 158 159 137 c 0
 159 60 203 40 258 40 c 0
 302 40 337 57 372 85 c 1
 372 91 374 98 375 104 c 2
 453 440 l 1
 533 440 l 1
 462 135 l 2xf4
EndSplineSet
Validated: 1
EndChar

StartChar: afii10089
Encoding: 1095 1095 453
Width: 458
VWidth: 0
Flags: W
HStem: -10 50<404.5 489.827> 153 50<218.559 355.045> 420 20G<138.5 227 423.368 508>
VStem: 119 84<217.812 412.671> 347 85<40.2031 129.9> 491 34<45.5627 64>
AnchorPoint: "top" 341 490 basechar 0
LayerCount: 2
Fore
SplineSet
437 135 m 2
 434 121 432 105 432 90 c 0
 432 63 438 40 453 40 c 0
 470 40 488 51 491 64 c 9
 525 64 l 17
 515 23 473 -10 428 -10 c 0
 381 -10 347 24 347 75 c 0
 347 84 348 94 350 104 c 2
 367 178 l 1
 332 162 291 153 254 153 c 0
 155 153 119 187 119 268 c 0
 119 311 130 368 147 440 c 1
 227 440 l 1
 210 370 203 320 203 285 c 0
 203 213 234 203 281 203 c 0
 326 203 358 221 384 250 c 1
 428 440 l 1
 508 440 l 1
 437 135 l 2
EndSplineSet
Validated: 1
EndChar

StartChar: afii10090
Encoding: 1096 1096 454
Width: 784
VWidth: 0
Flags: W
HStem: -10 50<163.449 302.808 435.409 579.723 679.5 757.144> 420 20G<137.417 222 409.385 494 690.357 775>
VStem: 75 77<50.4579 230.156> 614 85<69.3494 182.656> 758 34<45.4626 64>
AnchorPoint: "top" 462 490 basechar 0
LayerCount: 2
Fore
SplineSet
705 135 m 2
 701 118 699 103 699 89 c 0
 699 60 707 40 721 40 c 0
 739 40 755 51 758 64 c 1
 792 64 l 1
 783 23 740 -10 695 -10 c 0
 664 -10 640 5 626 29 c 1
 585 4 551 -10 504 -10 c 0
 434 -10 389 7 366 42 c 1
 324 14 274 -10 227 -10 c 0
 119 -10 75 30 75 113 c 0
 75 138 79 167 87 200 c 2
 142 440 l 1
 222 440 l 1
 166 196 l 2
 157 157 152 127 152 105 c 0
 152 51 178 40 224 40 c 0
 269 40 305 56 333 89 c 1
 414 440 l 1
 494 440 l 1
 438 196 l 2
 429 158 424 128 424 106 c 0
 424 51 451 40 501 40 c 0
 545 40 579 57 614 85 c 1
 614 91 616 97 617 104 c 2
 695 440 l 1
 775 440 l 1
 705 135 l 2
EndSplineSet
Validated: 1
EndChar

StartChar: afii10091
Encoding: 1097 1097 455
Width: 784
VWidth: 0
Flags: W
HStem: -10 50<163.449 302.808 435.409 579.723> 420 20G<137.417 222 409.385 494 690.357 775>
VStem: 75 77<50.4579 230.156> 614 85<69.3494 182.656> 689 57<-156.188 -90.8211> 758 34<45.9648 64>
AnchorPoint: "top" 462 490 basechar 0
LayerCount: 2
Fore
SplineSet
705 135 m 2xf4
 701 118 699 103 699 89 c 0xf4
 699 60 707 40 721 40 c 0
 739 40 755 51 758 64 c 1
 792 64 l 1
 785 31 755 2 720 -7 c 5
 702 -61 l 5
 734 -72 746 -99 746 -116 c 4
 746 -151 697 -180 658 -194 c 5
 651 -182 l 5
 668 -171 689 -148 689 -124 c 4xec
 689 -103 671 -89 644 -80 c 5
 673 -7 l 5
 653 -2 636 11 626 29 c 1
 585 4 551 -10 504 -10 c 0
 434 -10 389 7 366 42 c 1
 324 14 274 -10 227 -10 c 0
 119 -10 75 30 75 113 c 0
 75 138 79 167 87 200 c 2
 142 440 l 1
 222 440 l 1
 166 196 l 2
 157 157 152 127 152 105 c 0
 152 51 178 40 224 40 c 0
 269 40 305 56 333 89 c 1
 414 440 l 1
 494 440 l 1
 438 196 l 2
 429 158 424 128 424 106 c 0
 424 51 451 40 501 40 c 0
 545 40 579 57 614 85 c 1
 614 91 616 97 617 104 c 2
 695 440 l 1
 775 440 l 1
 705 135 l 2xf4
EndSplineSet
Validated: 1
EndChar

StartChar: afii10092
Encoding: 1098 1098 456
Width: 544
VWidth: 0
Flags: W
HStem: -10 50<284.288 417.424> 235 50<318.621 457.919> 390 50<125 246>
VStem: 188 76<60.7662 179.667> 472 82<97.9682 220.636>
AnchorPoint: "top" 383 490 basechar 0
LayerCount: 2
Fore
SplineSet
396 235 m 0
 290 235 264 148 264 109 c 0
 264 61 303 40 352 40 c 0
 427 40 472 111 472 172 c 0
 472 207 455 235 396 235 c 0
554 186 m 0
 554 108 504 -10 321 -10 c 0
 284 -10 188 4 188 114 c 0
 188 130 190 149 195 170 c 2
 246 390 l 1
 113 390 l 1
 125 440 l 1
 338 440 l 1
 295 255 l 1
 310 270 365 285 396 285 c 0
 509 285 554 252 554 186 c 0
EndSplineSet
Validated: 1
EndChar

StartChar: afii10094
Encoding: 1100 1100 458
Width: 428
VWidth: 0
Flags: W
HStem: -10 50<168.288 301.424> 235 50<202.621 341.919> 420 20G<137.333 222>
VStem: 72 76<60.7662 178.73> 356 82<97.9682 220.636>
AnchorPoint: "top" 191 490 basechar 0
LayerCount: 2
Fore
SplineSet
438 186 m 0
 438 108 388 -10 205 -10 c 0
 168 -10 72 4 72 114 c 0
 72 130 74 149 79 170 c 2
 142 440 l 1
 222 440 l 1
 179 255 l 1
 194 270 249 285 280 285 c 0
 393 285 438 252 438 186 c 0
280 235 m 0
 174 235 148 148 148 109 c 0
 148 61 187 40 236 40 c 0
 311 40 356 111 356 172 c 0
 356 207 339 235 280 235 c 0
EndSplineSet
Validated: 1
EndChar

StartChar: afii10095
Encoding: 1101 1101 459
Width: 461
VWidth: 0
Flags: W
HStem: -10 50<140.197 291.056> 210 50<235 409> 400 50<234.574 378.627>
VStem: 418 82<260 358.412>
AnchorPoint: "top" 338 490 basechar 0
LayerCount: 2
Fore
SplineSet
500 288 m 0
 500 197 446 -10 198 -10 c 0
 116 -10 76 26 48 77 c 1
 113 100 l 1
 128 63 151 40 224 40 c 0
 283 40 380 106 409 210 c 1
 223 210 l 1
 235 260 l 1
 418 260 l 1
 418 276 l 2
 418 353 376 400 327 400 c 0
 247 400 208 373 178 313 c 1
 121 346 l 1
 169 414 232 450 324 450 c 0
 438 450 500 389 500 288 c 0
EndSplineSet
Validated: 1
EndChar

StartChar: afii10096
Encoding: 1102 1102 460
Width: 617
VWidth: 0
Flags: W
HStem: -10 50<333.958 457.366> 0 21G<45 129.571> 210 50<185 231> 400 50<414.384 531.593> 420 20G<142.364 227>
VStem: 222 81<70.7914 206.691> 561 81<176.849 370.294>
AnchorPoint: "top" 339 490 basechar 0
LayerCount: 2
Fore
SplineSet
642 296 m 0x36
 642 212 595 -10 371 -10 c 0xb6
 269 -10 222 45 222 136 c 0
 222 159 225 183 231 210 c 1
 173 210 l 1
 125 0 l 1
 45 0 l 1
 147 440 l 1
 227 440 l 1x6e
 185 260 l 1
 245 260 l 1
 287 377 387 450 477 450 c 0
 579 450 642 399 642 296 c 0x36
397 40 m 0
 493 40 561 182 561 289 c 0
 561 357 532 400 480 400 c 0
 384 400 303 270 303 147 c 0
 303 80 334 40 397 40 c 0
EndSplineSet
Validated: 1
EndChar

StartChar: afii10097
Encoding: 1103 1103 461
Width: 461
VWidth: 0
Flags: W
HStem: -10 50<407.5 492.048> 0 50<40 85.2024> 175 50<239.893 369> 390 50<245.868 419>
VStem: 117 82<246.743 347.788> 349 86<40.6581 173.508> 494 34<45.7963 64>
AnchorPoint: "top" 368 490 basechar 0
LayerCount: 2
Fore
SplineSet
327 390 m 2x3e
 257 390 199 351 199 293 c 0
 199 254 232 225 299 225 c 2
 381 225 l 1
 419 390 l 1
 327 390 l 2x3e
117 278 m 0
 117 376 220 440 329 440 c 2
 511 440 l 1
 440 135 l 2
 437 120 435 104 435 90 c 0
 435 62 441 40 456 40 c 0
 472 40 491 51 494 64 c 1
 528 64 l 1
 519 24 476 -10 431 -10 c 0xbe
 384 -10 349 23 349 74 c 0
 349 84 351 94 353 104 c 2
 369 175 l 1
 298 175 l 2
 178 175 228 0 28 0 c 1
 40 50 l 1x7e
 110 50 116 137 184 188 c 1
 143 204 117 232 117 278 c 0
EndSplineSet
Validated: 1
EndChar

StartChar: afii10099
Encoding: 1106 1106 464
Width: 475
VWidth: 0
Flags: W
HStem: -170 50<138.02 297.575> 0 21G<40 124.589> 400 50<243.024 396.164> 530 50<134 162 254 328>
VStem: 416 80<188.531 379.739>
LayerCount: 2
Fore
SplineSet
449 78 m 2
 403 -122 364 -170 187 -170 c 0
 132 -170 79 -149 39 -125 c 1
 101 -73 l 1
 140 -105 178 -120 213 -120 c 0
 318 -120 334 -76 364 56 c 2
 404 228 l 2
 412 263 416 291 416 314 c 0
 416 382 381 400 329 400 c 0
 284 400 241 382 201 353 c 1
 120 0 l 1
 40 0 l 1
 162 530 l 1
 122 530 l 1
 134 580 l 1
 174 580 l 1
 192 660 l 1
 272 660 l 1
 254 580 l 1
 340 580 l 1
 328 530 l 1
 242 530 l 1
 218 425 l 1
 253 441 289 450 326 450 c 0
 439 450 496 405 496 313 c 0
 496 291 492 267 486 240 c 2
 449 78 l 2
EndSplineSet
Validated: 1
EndChar

StartChar: afii10101
Encoding: 1108 1108 466
Width: 461
VWidth: 0
Flags: W
HStem: -10 50<204.408 358.496> 210 50<173 355> 400 50<269.463 410.054>
VStem: 73 81<88.6373 209.435> 435 73<343.836 373.724>
AnchorPoint: "top" 359 490 basechar 0
LayerCount: 2
Fore
SplineSet
73 158 m 0
 73 319 216 450 340 450 c 0
 432 450 492 415 508 347 c 1
 435 314 l 1
 433 374 398 400 343 400 c 0
 278 400 207 347 173 260 c 1
 367 260 l 1
 355 210 l 1
 159 210 l 1
 156 194 154 180 154 166 c 0
 154 88 202 40 280 40 c 0
 331 40 373 63 404 100 c 1
 459 77 l 1
 407 26 336 -10 254 -10 c 0
 144 -10 73 54 73 158 c 0
EndSplineSet
Validated: 1
EndChar

StartChar: afii10106
Encoding: 1113 1113 471
Width: 812
VWidth: 0
Flags: W
HStem: -10 50<69.2012 182.329 552.288 685.424> 235 50<586.621 725.919> 390 50<401.063 495.425>
VStem: 456 76<60.7662 179.003> 499 83<255.859 386.286> 740 82<97.9682 220.636>
AnchorPoint: "top" 494 490 basechar 0
LayerCount: 2
Fore
SplineSet
490 285 m 2xf4
 495 310 499 333 499 347 c 0
 499 384 481 390 452 390 c 0
 395 390 338 315 294 127 c 0
 271 28 184 -10 114 -10 c 0
 76 -10 42 4 23 35 c 1
 93 65 l 1
 102 45 121 40 140 40 c 0
 180 40 203 78 222 160 c 0
 277 397 427 440 471 440 c 0
 528 440 582 423 582 355 c 0xec
 582 343 574 300 570 285 c 2
 563 255 l 1
 578 270 633 285 664 285 c 0
 777 285 822 252 822 186 c 0
 822 108 772 -10 589 -10 c 0
 552 -10 456 4 456 114 c 0
 456 130 458 149 463 170 c 2
 490 285 l 2xf4
664 235 m 0
 558 235 532 148 532 109 c 0xf4
 532 61 571 40 620 40 c 0
 695 40 740 111 740 172 c 0
 740 207 723 235 664 235 c 0
EndSplineSet
Validated: 1
EndChar

StartChar: afii10107
Encoding: 1114 1114 472
Width: 705
VWidth: 0
Flags: W
HStem: -10 50<445.288 578.424> 0 21G<45 129.651> 215 50<186 366> 235 50<479.621 618.919> 420 20G<142.364 227 414.314 499>
VStem: 349 76<60.7662 179.433> 633 82<97.9682 220.636>
AnchorPoint: "top" 337 490 basechar 0
LayerCount: 2
Fore
SplineSet
557 235 m 0x9e
 451 235 425 148 425 109 c 0
 425 61 464 40 513 40 c 0
 588 40 633 111 633 172 c 0
 633 207 616 235 557 235 c 0x9e
715 186 m 0
 715 108 665 -10 482 -10 c 0x9e
 445 -10 349 4 349 114 c 0
 349 130 351 149 356 170 c 2
 366 215 l 1
 175 215 l 1
 125 0 l 1
 45 0 l 1
 147 440 l 1
 227 440 l 1
 186 265 l 1
 378 265 l 1x6e
 419 440 l 1
 499 440 l 1
 456 255 l 1
 471 270 526 285 557 285 c 0
 670 285 715 252 715 186 c 0
EndSplineSet
Validated: 1
EndChar

StartChar: afii10108
Encoding: 1115 1115 473
Width: 475
VWidth: 0
UnlinkRmOvrlpSave: 1
Flags: W
HStem: 0 21G<40 124.589 351 435.583> 400 50<243.024 396.164> 530 50<134 162 254 328>
VStem: 416 80<190.031 379.739>
LayerCount: 2
Fore
SplineSet
201 353 m 1
 120 0 l 1
 40 0 l 1
 162 530 l 5
 122 530 l 5
 134 580 l 5
 174 580 l 5
 192 660 l 5
 272 660 l 5
 254 580 l 5
 340 580 l 5
 328 530 l 5
 242 530 l 5
 218 425 l 1
 253 441 289 450 326 450 c 0
 439 450 496 405 496 313 c 0
 496 291 492 267 486 240 c 2
 431 0 l 1
 351 0 l 1
 404 228 l 2
 412 263 416 291 416 314 c 0
 416 382 381 400 329 400 c 0
 284 400 241 382 201 353 c 1
EndSplineSet
EndChar

StartChar: afii10193
Encoding: 1119 1119 477
Width: 542
VWidth: 0
Flags: W
HStem: -10 50<202.025 337.145 437.5 515.138> 420 20G<137.333 222 448.357 533>
VStem: 75 84<66.8804 244.531> 175 57<-156.188 -90.8211> 372 85<69.3494 182.656> 516 34<45.4626 64>
AnchorPoint: "top" 351 490 basechar 0
LayerCount: 2
Fore
SplineSet
462 135 m 2
 458 118 457 103 457 89 c 0
 457 60 464 40 478 40 c 0
 496 40 513 51 516 64 c 1
 550 64 l 1
 541 23 498 -10 453 -10 c 0
 422 -10 397 6 383 30 c 1
 337 5 279 -10 232 -10 c 0
 223 -10 214 -10 205 -9 c 1
 188 -61 l 1
 220 -72 232 -99 232 -116 c 0
 232 -151 183 -180 144 -194 c 1
 137 -182 l 1
 154 -171 175 -148 175 -124 c 0
 175 -103 157 -89 130 -80 c 1
 161 -2 l 1
 102 14 75 53 75 117 c 0
 75 141 79 169 86 200 c 2
 142 440 l 1
 222 440 l 1
 169 212 l 2
 162 183 159 158 159 137 c 0
 159 60 203 40 258 40 c 0
 302 40 337 57 372 85 c 1
 372 91 374 98 375 104 c 2
 453 440 l 1
 533 440 l 1
 462 135 l 2
EndSplineSet
Validated: 1
EndChar

StartChar: afii61352
Encoding: 8470 8470 478
Width: 1019
VWidth: 0
Flags: W
HStem: -10 50<59.7314 171.506> 0 21G<599.108 698.63> 170 30<787 1013> 252 30<887.204 965.066> 458 30<925.814 998.336> 660 50<857.464 971.263> 680 20G<332.37 430.878>
VStem: 828 46<289.906 410.227> 1012 45<327.139 450.824>
LayerCount: 2
Fore
SplineSet
787 200 m 1x3980
 1020 200 l 1
 1013 170 l 1
 780 170 l 1
 787 200 l 1x3980
926 282 m 0
 977 282 1012 351 1012 400 c 0
 1012 435 995 458 967 458 c 0
 920 458 874 402 874 336 c 0
 874 302 891 282 926 282 c 0
1057 406 m 0
 1057 352 1021 252 911 252 c 0
 857 252 828 283 828 333 c 0
 828 425 906 488 966 488 c 0
 1022 488 1057 460 1057 406 c 0
694 0 m 1x7d80
 607 0 l 1x7d80
 388 555 l 1
 290 128 l 2
 267 28 179 -10 109 -10 c 0
 71 -10 32 4 13 35 c 1
 83 65 l 1
 92 45 111 40 130 40 c 0
 170 40 193 78 212 160 c 2
 337 700 l 1
 423 700 l 1xbb80
 642 144 l 1
 741 572 l 2
 764 672 852 710 922 710 c 0
 960 710 999 696 1018 665 c 1
 948 635 l 1
 939 655 919 660 900 660 c 0
 860 660 838 622 819 540 c 2
 694 0 l 1x7d80
EndSplineSet
Validated: 1
EndChar

StartChar: afii10050
Encoding: 1168 1168 479
Width: 439
VWidth: 0
Flags: W
HStem: 0 21G<45 134.615> 650 50<280 545>
AnchorPoint: "top" 417 700 basechar 0
LayerCount: 2
Fore
SplineSet
130 0 m 1
 45 0 l 1
 207 700 l 1
 545 700 l 1
 564 784 l 1
 630 784 l 1
 599 650 l 1
 280 650 l 1
 130 0 l 1
EndSplineSet
Validated: 1
EndChar

StartChar: afii10098
Encoding: 1169 1169 480
Width: 349
VWidth: 0
Flags: W
HStem: 0 21G<45 129.615> 390 50<215 370>
AnchorPoint: "top" 304 490 basechar 0
LayerCount: 2
Fore
SplineSet
125 0 m 1
 45 0 l 1
 147 440 l 1
 370 440 l 1
 390 530 l 1
 456 530 l 1
 424 390 l 1
 215 390 l 1
 125 0 l 1
EndSplineSet
Validated: 1
EndChar

StartChar: hookabovecomb
Encoding: 777 777 481
Width: 0
VWidth: 0
Flags: W
HStem: 702 30<-162.955 -83.5>
VStem: -107 57<652.086 701.78>
AnchorPoint: "top" -153 580 mark 0
LayerCount: 2
Fore
SplineSet
-50 693 m 0
 -50 641 -130 628 -137 599 c 9
 -162 599 l 1
 -155 629 -107 649 -107 687 c 0
 -107 695 -111 702 -126 702 c 0
 -152 702 -172 694 -172 694 c 9
 -167 715 l 1
 -167 715 -136 732 -105 732 c 0
 -62 732 -50 711 -50 693 c 0
EndSplineSet
Validated: 1
EndChar

StartChar: uni031B
Encoding: 795 795 482
Width: 0
VWidth: 0
Flags: W
HStem: 515 21<20 52.2676> 680 20G<88.5 162>
VStem: 90 72<664.516 700>
AnchorPoint: "horn" 17 525 mark 0
LayerCount: 2
Fore
SplineSet
20 536 m 1
 54 536 88 568 88 614 c 0
 88 629 86 645 86 664 c 0
 86 675 87 687 90 700 c 1
 162 700 l 1
 132 570 67 515 15 515 c 1
 20 536 l 1
EndSplineSet
Validated: 1
EndChar

StartChar: dotbelowcomb
Encoding: 803 803 483
Width: 0
VWidth: 0
Flags: W
HStem: -133 73<-339 -283>
VStem: -356 90
AnchorPoint: "bottom" -288 0 mark 0
LayerCount: 2
Fore
SplineSet
-339 -60 m 1
 -266 -60 l 1
 -283 -133 l 1
 -356 -133 l 1
 -339 -60 l 1
EndSplineSet
Validated: 1
EndChar

StartChar: uni0325
Encoding: 805 805 485
Width: 0
VWidth: 0
Flags: W
HStem: -192 30<-354.215 -287.326> -70 30<-340.26 -274.023>
VStem: -392 31<-155.304 -90.4654> -267 31<-142.05 -76.45>
AnchorPoint: "bottom" -287 0 mark 0
LayerCount: 2
Fore
SplineSet
-303 -70 m 0
 -328 -70 -361 -93 -361 -126 c 0
 -361 -146 -346 -162 -324 -162 c 0
 -299 -162 -267 -139 -267 -106 c 0
 -267 -86 -282 -70 -303 -70 c 0
-392 -133 m 0
 -392 -81 -341 -40 -296 -40 c 0
 -260 -40 -236 -65 -236 -99 c 0
 -236 -151 -287 -192 -331 -192 c 0
 -367 -192 -392 -167 -392 -133 c 0
EndSplineSet
Validated: 1
EndChar

StartChar: uni032C
Encoding: 812 812 486
Width: 0
VWidth: 0
Flags: W
HStem: -219 189
VStem: -416 234
AnchorPoint: "bottom" -286 0 mark 0
LayerCount: 2
Fore
SplineSet
-337 -219 m 1
 -416 -56 l 1
 -379 -30 l 1
 -313 -118 l 1
 -207 -30 l 1
 -182 -56 l 1
 -337 -219 l 1
EndSplineSet
Validated: 1
EndChar

StartChar: uni032D
Encoding: 813 813 487
Width: 0
VWidth: 0
Flags: W
HStem: -219 189
VStem: -448 234
AnchorPoint: "bottom" -286 0 mark 0
LayerCount: 2
Fore
SplineSet
-293 -30 m 1
 -214 -193 l 1
 -251 -219 l 1
 -316 -131 l 1
 -423 -219 l 1
 -448 -193 l 1
 -293 -30 l 1
EndSplineSet
Validated: 1
EndChar

StartChar: uni032E
Encoding: 814 814 488
Width: 0
VWidth: 0
Flags: W
HStem: -133 57<-359.178 -245.084>
VStem: -410 41<-61.7018 -40.1406>
AnchorPoint: "bottom" -287 0 mark 0
LayerCount: 2
Fore
SplineSet
-305 -76 m 0
 -268 -76 -227 -52 -219 -30 c 1
 -183 -40 l 1
 -201 -90 -260 -133 -318 -133 c 0
 -372 -133 -410 -95 -410 -49 c 0
 -410 -46 -410 -43 -409 -40 c 1
 -369 -30 l 2
 -369 -31 -369 -31 -369 -32 c 0
 -369 -54 -341 -76 -305 -76 c 0
EndSplineSet
Validated: 1
EndChar

StartChar: uni032F
Encoding: 815 815 489
Width: 0
VWidth: 0
Flags: W
HStem: -97 57<-368.916 -254.822>
VStem: -245 41<-132.859 -111.298>
AnchorPoint: "bottom" -287 0 mark 0
LayerCount: 2
Fore
SplineSet
-309 -97 m 0
 -346 -97 -387 -121 -395 -143 c 1
 -431 -133 l 1
 -413 -83 -354 -40 -296 -40 c 0
 -242 -40 -204 -78 -204 -124 c 0
 -204 -127 -204 -130 -205 -133 c 1
 -245 -143 l 2
 -245 -142 -245 -142 -245 -141 c 0
 -245 -119 -273 -97 -309 -97 c 0
EndSplineSet
Validated: 1
EndChar

StartChar: uni0330
Encoding: 816 816 490
Width: 0
VWidth: 0
Flags: W
HStem: -139 57<-310.143 -215.068> -107 57<-412.932 -317.857>
VStem: -462 296
AnchorPoint: "bottom" -287 0 mark 0
LayerCount: 2
Fore
SplineSet
-207 -50 m 1x60
 -166 -50 l 1x60
 -183 -100 -226 -139 -284 -139 c 0xa0
 -318 -139 -340 -107 -362 -107 c 0x60
 -392 -107 -413 -117 -421 -139 c 1
 -462 -139 l 1xa0
 -445 -89 -402 -50 -344 -50 c 0x60
 -310 -50 -288 -82 -266 -82 c 0xa0
 -236 -82 -215 -72 -207 -50 c 1x60
EndSplineSet
Validated: 1
EndChar

StartChar: uni0331
Encoding: 817 817 491
Width: 0
VWidth: 0
Flags: W
HStem: -100 40<-421 -200>
VStem: -430 239
AnchorPoint: "bottom" -287 0 mark 0
LayerCount: 2
Fore
SplineSet
-421 -60 m 1
 -191 -60 l 1
 -200 -100 l 1
 -430 -100 l 1
 -421 -60 l 1
EndSplineSet
Validated: 1
EndChar

StartChar: uhorn
Encoding: 432 432 492
Width: 542
VWidth: 0
UnlinkRmOvrlpSave: 1
Flags: W
HStem: -10 50<185.772 337.145 437.5 515.138> 300 21<505 537.52> 420 20G<137.333 222 448.357 533>
VStem: 75 84<67.0918 244.531> 372 85<69.3494 182.75> 516 34<45.4626 64> 576 72<449.516 485>
AnchorPoint: "top" 351 490 basechar 0
AnchorPoint: "bottom" 230 0 basechar 0
LayerCount: 2
Fore
SplineSet
462 135 m 2
 458 118 457 103 457 89 c 0
 457 60 464 40 478 40 c 0
 496 40 513 51 516 64 c 1
 550 64 l 1
 541 23 498 -10 453 -10 c 0
 422 -10 397 6 383 30 c 1
 337 5 279 -10 232 -10 c 0
 123 -10 75 31 75 117 c 0
 75 141 79 169 86 200 c 2
 142 440 l 1
 222 440 l 1
 169 212 l 2
 162 183 159 158 159 137 c 0
 159 60 203 40 258 40 c 0
 302 40 337 57 372 85 c 1
 372 91 374 98 375 104 c 2
 453 440 l 1
 533 440 l 1
 505 321 l 1
 539 321 574 353 574 399 c 0
 574 414 572 430 572 449 c 0
 572 460 573 472 576 485 c 1
 648 485 l 1
 618 355 552 300 500 300 c 1
 462 135 l 2
EndSplineSet
EndChar

StartChar: Ohorn
Encoding: 416 416 493
Width: 669
VWidth: 0
UnlinkRmOvrlpSave: 1
Flags: W
HStem: -10 50<270.084 420.448> 660 50<395.865 554.172>
VStem: 97 86<139.589 376.175> 642 86<318.974 545.94> 769 72<669.516 705>
AnchorPoint: "top" 487 700 basechar 0
AnchorPoint: "ogonek" 334 0 basechar 0
AnchorPoint: "bottom" 332 0 basechar 0
LayerCount: 2
Fore
SplineSet
473 660 m 0
 327 660 183 445 183 248 c 0
 183 102 273 40 339 40 c 0
 487 40 642 239 642 458 c 0
 642 600 559 660 473 660 c 0
322 -10 m 0
 210 -10 97 67 97 239 c 0
 97 460 260 710 479 710 c 0
 591 710 687 657 718 544 c 1
 745 553 767 582 767 619 c 0
 767 634 765 650 765 669 c 0
 765 680 766 692 769 705 c 1
 841 705 l 1
 816 598 767 541 722 525 c 1
 726 506 728 485 728 463 c 0
 728 273 599 -10 322 -10 c 0
EndSplineSet
EndChar

StartChar: ohorn
Encoding: 417 417 494
Width: 495
VWidth: 0
UnlinkRmOvrlpSave: 1
Flags: W
HStem: -10 50<187.836 326.191> 400 50<270.281 402.475>
VStem: 72 80<76.4648 258.664> 438 82<180.145 320.127> 561 72<449.516 485>
AnchorPoint: "top" 360 490 basechar 0
AnchorPoint: "bottom" 238 0 basechar 0
LayerCount: 2
Fore
SplineSet
520 290 m 0
 520 185 451 -10 234 -10 c 0
 128 -10 72 49 72 147 c 0
 72 321 217 450 340 450 c 0
 435 450 502 409 517 327 c 1
 541 338 559 365 559 399 c 0
 559 414 557 430 557 449 c 0
 557 460 558 472 561 485 c 1
 633 485 l 1
 609 382 563 326 519 307 c 1
 519 301 520 296 520 290 c 0
260 40 m 0
 363 40 438 172 438 281 c 0
 438 354 403 400 343 400 c 0
 243 400 152 282 152 152 c 0
 152 82 187 40 260 40 c 0
EndSplineSet
EndChar

StartChar: Uhorn
Encoding: 431 431 495
Width: 658
VWidth: 0
UnlinkRmOvrlpSave: 1
Flags: W
HStem: -10 50<230.153 393.849> 520 21<688 720.268> 680 20G<187.373 277 635.373 725 756.5 830>
VStem: 86 85<102.955 335.688> 192 85<669.742 700> 758 72<669.516 705>
AnchorPoint: "top" 468 700 basechar 0
AnchorPoint: "bottom" 306 0 basechar 0
LayerCount: 2
Fore
SplineSet
640 700 m 1
 725 700 l 1
 688 541 l 1
 722 541 756 573 756 619 c 0
 756 634 754 650 754 669 c 0
 754 680 755 692 758 705 c 1
 830 705 l 1
 800 575 735 520 683 520 c 1
 632 298 l 2
 574 48 436 -10 292 -10 c 0
 202 -10 86 31 86 194 c 0
 86 224 90 259 99 298 c 2
 192 700 l 1
 277 700 l 1
 184 298 l 2
 175 258 171 225 171 196 c 0
 171 66 253 40 309 40 c 0
 385 40 498 88 547 298 c 2
 640 700 l 1
EndSplineSet
EndChar

StartChar: uni0181
Encoding: 385 385 590
Width: 655
VWidth: 0
Flags: W
HStem: 0 50<292 496.681> 355 50<374 533.299> 448 21G<205 230.615> 650 50<292.981 344 430 594.934>
VStem: 145 87<489.29 592.678> 581 86<144.315 320.532> 616 87<487.792 630.119>
LayerCount: 2
Fore
SplineSet
462 405 m 2xfa
 535 405 616 473 616 566 c 0
 616 606 601 650 540 650 c 2
 430 650 l 1
 374 405 l 1
 462 405 l 2xfa
703 580 m 0
 703 465 616 406 581 388 c 1
 643 360 667 303 667 243 c 0xfc
 667 128 583 0 395 0 c 2
 195 0 l 1
 344 647 l 1
 260 634 232 570 232 526 c 0
 232 510 238 506 246 500 c 1
 221 448 l 1
 189 460 145 480 145 529 c 0
 145 597 223 700 357 700 c 2
 537 700 l 2
 664 700 703 648 703 580 c 0
422 50 m 2
 523 50 581 147 581 239 c 0
 581 297 558 355 492 355 c 2
 362 355 l 1
 292 50 l 1
 422 50 l 2
EndSplineSet
Validated: 1
EndChar

StartChar: uni0253
Encoding: 595 595 591
Width: 527
VWidth: 0
Flags: W
HStem: -10 50<201.486 358.81> 400 50<297.486 431.387> 620 50<303.055 415.905>
VStem: 101 77<63.1212 224.5> 463 82<176.614 367.533>
LayerCount: 2
Fore
SplineSet
545 296 m 0
 545 202 491 -10 266 -10 c 0
 182 -10 101 8 101 113 c 0
 101 132 104 155 110 180 c 2
 191 533 l 6
 214 632 302 670 372 670 c 4
 410 670 443 656 462 625 c 5
 392 595 l 5
 383 615 364 620 345 620 c 4
 305 620 282 582 263 500 c 6
 244 416 l 1
 282 438 327 450 372 450 c 0
 498 450 545 385 545 296 c 0
292 40 m 0
 395 40 463 180 463 284 c 0
 463 346 439 400 375 400 c 0
 282 400 222 322 201 230 c 2
 182 148 l 2
 179 136 178 125 178 115 c 0
 178 52 233 40 292 40 c 0
EndSplineSet
Validated: 1
EndChar

StartChar: uni0257
Encoding: 599 599 592
Width: 588
VWidth: 0
Flags: W
HStem: -10 50<197.062 325.435 451.5 531.138> 400 50<271.347 394.934> 620 50<602.055 714.905>
VStem: 73 82<84.7649 262.479> 423 50<89 286> 532 34<45.4626 64>
LayerCount: 2
Fore
SplineSet
478 135 m 2
 474 118 473 103 473 89 c 0
 473 60 480 40 494 40 c 0
 512 40 529 51 532 64 c 1
 566 64 l 1
 557 23 514 -10 469 -10 c 0
 434 -10 407 9 395 38 c 1
 349 4 293 -10 230 -10 c 0
 127 -10 73 60 73 155 c 0
 73 289 179 450 336 450 c 0
 389 450 431 432 460 402 c 1
 490 533 l 6
 513 632 601 670 671 670 c 4
 709 670 742 656 761 625 c 5
 691 595 l 5
 682 615 663 620 644 620 c 4
 604 620 581 582 562 500 c 6
 478 135 l 2
256 40 m 0
 356 40 423 157 423 286 c 0
 423 348 402 400 339 400 c 0
 243 400 155 277 155 170 c 0
 155 102 188 40 256 40 c 0
EndSplineSet
Validated: 1
EndChar

StartChar: uni018A
Encoding: 394 394 593
Width: 747
VWidth: 0
Flags: W
HStem: 0 50<292 533.013> 448 21G<205 230.615> 650 50<292.981 344 430 668.773>
VStem: 145 87<489.29 593.378> 715 84<349.729 598.965>
LayerCount: 2
Fore
SplineSet
430 650 m 1
 292 50 l 1
 464 50 l 2
 549 50 645 140 696 360 c 0
 709 416 715 462 715 500 c 0
 715 611 665 650 602 650 c 2
 430 650 l 1
799 498 m 0
 799 378 727 0 437 0 c 2
 195 0 l 1
 344 647 l 1
 241 630 232 547 232 526 c 0
 232 510 238 506 246 500 c 1
 221 448 l 1
 189 460 145 480 145 529 c 0
 145 597 223 700 357 700 c 2
 599 700 l 2
 724 700 799 640 799 498 c 0
EndSplineSet
Validated: 1
EndChar

StartChar: uni018E
Encoding: 398 398 594
Width: 546
VWidth: 0
Flags: W
HStem: 0 50<59 394> 390 50<255 472> 650 50<225 532>
LayerCount: 2
Fore
SplineSet
47 0 m 1
 59 50 l 9
 394 50 l 1
 472 390 l 1
 243 390 l 17
 255 440 l 9
 484 440 l 1
 532 650 l 1
 213 650 l 17
 225 700 l 1
 629 700 l 1
 467 0 l 1
 47 0 l 1
EndSplineSet
Validated: 1
EndChar

StartChar: uni01DD
Encoding: 477 477 595
Width: 471
VWidth: 0
Flags: W
HStem: -10 50<179.539 308.135> 170 50<152.596 400> 400 50<218.716 372.592>
VStem: 73 78<69.7582 168.639> 423 81<222.18 351.363>
AnchorPoint: "bottom" 328 440 basechar 0
AnchorPoint: "ogonek" 304 440 basechar 0
AnchorPoint: "top" 219 -50 basechar 0
LayerCount: 2
Fore
SplineSet
73 161 m 0
 73 194 96 220 165 220 c 10
 417 220 l 1
 421 238 423 256 423 274 c 0
 423 352 375 400 297 400 c 0
 246 400 205 377 173 340 c 1
 118 363 l 1
 170 414 241 450 323 450 c 0
 433 450 504 386 504 282 c 0
 504 122 361 -10 237 -10 c 0
 123 -10 73 71 73 161 c 0
400 170 m 1
 193 170 l 2
 165 170 151 165 151 149 c 0
 151 85 177 40 234 40 c 0
 304 40 367 97 400 170 c 1
EndSplineSet
Validated: 1
EndChar

StartChar: uni0198
Encoding: 408 408 597
Width: 671
VWidth: 0
Flags: W
HStem: 0 21G<85 174.629 496.916 602> 655 55<680.293 768.028> 680 20G<242.371 332>
VStem: 775 70<555.127 648.994>
LayerCount: 2
Fore
SplineSet
391 379 m 1xd0
 602 0 l 1
 508 0 l 1
 329 323 l 1
 223 229 l 1
 170 0 l 1
 85 0 l 1
 247 700 l 1
 332 700 l 1xb0
 248 340 l 1
 561 618 l 2
 615 666 671 710 736 710 c 0
 793 710 845 677 845 614 c 0
 845 528 759 478 739 472 c 1
 722 528 l 1
 768 555 775 592 775 608 c 0
 775 634 758 655 733 655 c 0
 705 655 687 642 623 585 c 2
 391 379 l 1xd0
EndSplineSet
Validated: 1
EndChar

StartChar: uni0199
Encoding: 409 409 598
Width: 479
VWidth: 0
Flags: W
HStem: 0 21G<72 156.58 348.808 446> 420 20G<415.585 530> 620 50<307.055 419.905>
LayerCount: 2
Fore
SplineSet
206 233 m 1
 438 440 l 1
 530 440 l 1
 311 245 l 1
 446 0 l 1
 360 0 l 1
 252 193 l 1
 182 131 l 1
 152 0 l 1
 72 0 l 1
 195 533 l 2
 218 632 306 670 376 670 c 0
 414 670 447 656 466 625 c 1
 396 595 l 1
 387 615 368 620 349 620 c 0
 309 620 286 582 267 500 c 2
 206 233 l 1
EndSplineSet
Validated: 1
EndChar

StartChar: Engsami
Encoding: 58626 58626 601
Width: 647
VWidth: 0
Flags: W
HStem: -170 50<266.02 426.458> 0 21G<45 134.613> 680 20G<202.371 300.878 636.36 726>
AnchorPoint: "top" 472 700 basechar 0
LayerCount: 2
Fore
SplineSet
641 700 m 1
 726 700 l 1
 582 78 l 2
 536 -122 492 -170 315 -170 c 0
 260 -170 207 -149 167 -125 c 1
 229 -73 l 1
 268 -105 306 -120 341 -120 c 0
 430 -120 454 -89 478 0 c 1
 258 555 l 1
 130 0 l 1
 45 0 l 1
 207 700 l 1
 293 700 l 1
 512 144 l 1
 641 700 l 1
EndSplineSet
Validated: 1
EndChar

StartChar: uni0193
Encoding: 403 403 602
Width: 744
VWidth: 0
Flags: W
HStem: -10 50<305.802 486.941> 350 50<538 611> 650 50<412.415 611.336 777.848 898.01>
VStem: 118 86<149.872 381.032>
LayerCount: 2
Fore
SplineSet
508 650 m 0
 303 650 204 400 204 255 c 0
 204 104 306 40 386 40 c 0
 450 40 508 62 554 102 c 1
 611 350 l 1
 527 350 l 1
 538 400 l 1
 702 400 l 1
 634 102 l 1
 569 38 469 -10 360 -10 c 0
 249 -10 118 70 118 249 c 0
 118 280 123 313 131 350 c 0
 189 600 374 700 505 700 c 0
 585 700 667 684 711 647 c 1
 749 688 804 705 851 705 c 0
 889 705 922 691 941 660 c 1
 871 630 l 1
 862 650 843 655 824 655 c 0
 784 655 762 617 743 535 c 1
 660 502 l 1
 663 516 665 529 665 541 c 0
 665 627 582 650 508 650 c 0
EndSplineSet
Validated: 1
EndChar

StartChar: uni019D
Encoding: 413 413 603
Width: 623
VWidth: 0
Flags: W
HStem: -170 50<-80.7988 32.9087> 0 21G<462 551.609> 620 50<365.599 539.933>
VStem: 462 85<0 30.3774> 574 86<397.156 585.513>
LayerCount: 2
Fore
SplineSet
224 660 m 1
 309 660 l 1
 302 626 l 1
 337 642 389 670 462 670 c 0
 582 670 660 620 660 517 c 0
 660 499 658 481 653 460 c 2
 547 0 l 17
 462 0 l 9
 565 448 l 2
 571 474 574 496 574 515 c 0
 574 598 522 620 465 620 c 0
 393 620 325 583 285 554 c 1
 149 -33 l 2
 126 -132 34 -170 -36 -170 c 0
 -74 -170 -108 -156 -127 -125 c 1
 -57 -95 l 1
 -48 -115 -29 -120 -10 -120 c 0
 30 -120 53 -82 72 0 c 2
 224 660 l 1
EndSplineSet
Validated: 1
EndChar

StartChar: uni01B3
Encoding: 435 435 604
Width: 581
VWidth: 0
Flags: W
HStem: 0 21G<191 280.624> 657 55<576.031 659.665> 680 20G<173 268.517>
VStem: 668 72<591 649.515>
LayerCount: 2
Fore
SplineSet
666 585 m 1xd0
 668 592 668 598 668 604 c 0
 668 635 650 657 622 657 c 0xd0
 583 657 556 617 517 564 c 2
 356 346 l 1
 276 0 l 1
 191 0 l 1
 271 347 l 1
 173 700 l 1
 263 700 l 1xb0
 335 439 l 1
 438 578 l 2
 477 631 544 712 638 712 c 0
 706 712 740 667 740 617 c 0
 740 609 739 600 737 591 c 1
 666 585 l 1xd0
EndSplineSet
Validated: 1
EndChar

StartChar: uni01B4
Encoding: 436 436 605
Width: 545
VWidth: 0
Flags: W
HStem: -170 50<56.8183 119.781> 400 50<489.838 552.682> 420 20G<124 199.588>
LayerCount: 2
Fore
SplineSet
362 304 m 2xa0
 416 395 474 450 551 450 c 0
 590 450 613 422 639 384 c 1
 567 352 l 1
 545 398 535 400 524 400 c 0xc0
 497 400 477 362 441 302 c 2
 247 -24 l 2
 193 -115 136 -170 59 -170 c 0
 20 -170 -3 -142 -29 -104 c 1
 42 -72 l 1
 64 -118 74 -120 85 -120 c 0
 112 -120 133 -82 169 -22 c 2
 182 0 l 1
 124 440 l 1
 197 440 l 1
 241 100 l 1
 362 304 l 2xa0
EndSplineSet
Validated: 1
EndChar

StartChar: uni0260
Encoding: 608 608 606
Width: 557
VWidth: 0
Flags: W
HStem: -170 50<143.02 303.311> -10 50<206.338 357.624> 400 50<272.165 396.342> 499 50<563.064 675.905>
VStem: 86 81<79.2509 261.481>
LayerCount: 2
Fore
SplineSet
342 400 m 0
 230 400 167 254 167 156 c 0
 167 84 204 40 279 40 c 0
 315 40 345 51 372 71 c 1
 425 297 l 1
 423 357 397 400 342 400 c 0
86 150 m 0
 86 304 208 450 339 450 c 0
 388 450 424 435 451 412 c 1
 474 511 562 549 632 549 c 0
 670 549 703 535 722 504 c 1
 652 474 l 1
 643 494 624 499 605 499 c 0
 573 499 544 475 523 379 c 2
 454 78 l 2
 408 -122 369 -170 192 -170 c 0
 137 -170 84 -149 44 -125 c 1
 106 -73 l 1
 145 -105 183 -120 218 -120 c 0
 310 -120 334 -86 359 11 c 1
 326 -2 291 -10 253 -10 c 0
 146 -10 86 51 86 150 c 0
EndSplineSet
Validated: 1
EndChar

StartChar: uni0272
Encoding: 626 626 607
Width: 475
VWidth: 0
Flags: W
HStem: -170 50<-112.799 0.328871> 0 21G<350 434.667> 400 50<57.8561 135.5 243.827 396.164>
VStem: 23 34<376 394.537> 416 80<190.031 379.739>
LayerCount: 2
Fore
SplineSet
112 -33 m 6
 89 -132 2 -170 -68 -170 c 4
 -106 -170 -140 -156 -159 -125 c 5
 -89 -95 l 5
 -80 -115 -61 -120 -42 -120 c 4
 -2 -120 21 -82 40 0 c 6
 110 305 l 2
 114 322 116 337 116 351 c 0
 116 380 108 400 94 400 c 0
 76 400 60 389 57 376 c 1
 23 376 l 1
 32 417 75 450 120 450 c 0
 151 450 175 435 189 411 c 1
 232 436 279 450 326 450 c 0
 439 450 496 405 496 313 c 0
 496 291 492 267 486 240 c 2
 430 0 l 1
 350 0 l 9
 404 228 l 2
 412 263 416 291 416 314 c 0
 416 382 381 400 329 400 c 0
 284 400 240 381 200 352 c 1
 199 347 199 342 198 336 c 2
 112 -33 l 6
EndSplineSet
Validated: 1
EndChar

StartChar: uni0186
Encoding: 390 390 608
Width: 650
VWidth: 0
Flags: W
HStem: -10 50<198.593 381.225> 660 50<351.16 537.305>
VStem: 620 84<323.444 569.011>
AnchorPoint: "top" 477 700 basechar 0
LayerCount: 2
Fore
SplineSet
74 102 m 1
 139 129 l 1
 163 72 215 40 292 40 c 0
 387 40 555 130 606 350 c 0
 616 392 620 429 620 462 c 0
 620 596 547 660 454 660 c 0
 370 660 305 622 261 575 c 1
 193 608 l 1
 252 665 345 710 481 710 c 0
 591 710 704 633 704 461 c 0
 704 428 700 391 691 350 c 0
 633 100 426 -10 296 -10 c 0
 187 -10 109 38 74 102 c 1
EndSplineSet
Validated: 1
EndChar

StartChar: uni0254
Encoding: 596 596 609
Width: 497
VWidth: 0
Flags: W
HStem: -10 50<154.512 310.382> 400 50<261.824 388.476>
VStem: 432 81<176.186 354.74>
AnchorPoint: "top" 359 490 basechar 0
LayerCount: 2
Fore
SplineSet
223 40 m 0
 353 40 432 166 432 275 c 0
 432 353 388 400 326 400 c 0
 271 400 227 357 197 297 c 1
 139 330 l 1
 187 398 261 450 353 450 c 0
 438 450 513 384 513 278 c 0
 513 141 399 -10 227 -10 c 0
 145 -10 90 26 62 77 c 1
 127 100 l 1
 141 63 172 40 223 40 c 0
EndSplineSet
Validated: 1
EndChar

StartChar: uni0190
Encoding: 400 400 610
Width: 526
VWidth: 0
Flags: W
HStem: -10 50<215.141 375.436> 390 50<315.831 430> 660 50<337.756 500.395>
VStem: 85 85<87.1102 262.434> 194 86<471.606 597.653>
AnchorPoint: "top" 424 700 basechar 0
LayerCount: 2
Fore
SplineSet
365 390 m 2
 256 390 170 269 170 175 c 0
 170 115 196 40 275 40 c 0
 361 40 409 69 440 139 c 1
 509 119 l 1
 464 46 387 -10 279 -10 c 0
 131 -10 85 92 85 172 c 0
 85 269 164 373 264 415 c 1
 213 439 194 479 194 520 c 0
 194 611 281 710 435 710 c 0
 504 710 577 676 599 605 c 1
 520 585 l 1
 520 588 520 591 520 594 c 0
 520 644 478 660 408 660 c 0
 328 660 280 589 280 527 c 0
 280 479 314 440 407 440 c 2
 442 440 l 1
 430 390 l 1
 365 390 l 2
EndSplineSet
Validated: 1
EndChar

StartChar: uni025B
Encoding: 603 603 611
Width: 438
VWidth: 0
Flags: W
HStem: -10 50<155.719 314.116> 220 50<227.757 333> 400 50<239.095 385.038>
VStem: 55 82<59.866 168.98> 131 80<288.107 372.898> 398 62<357.645 384.108>
AnchorPoint: "top" 329 490 basechar 0
LayerCount: 2
Fore
SplineSet
298 220 m 2xec
 161 220 137 144 137 108 c 0
 137 75 158 40 224 40 c 0
 276 40 336 64 360 99 c 1
 416 87 l 1
 383 44 311 -10 225 -10 c 0
 104 -10 55 31 55 93 c 0xf4
 55 149 90 217 179 250 c 1
 145 271 131 299 131 324 c 0
 131 373 176 450 331 450 c 0
 421 450 454 404 460 359 c 1
 398 347 l 17
 398 389 352 400 307 400 c 0
 237 400 211 354 211 326 c 0
 211 295 239 270 316 270 c 2
 344 270 l 1
 333 220 l 1
 298 220 l 2xec
EndSplineSet
Validated: 1
EndChar

StartChar: uni0256
Encoding: 598 598 613
Width: 532
VWidth: 0
Flags: W
HStem: -170 50<454.125 541.842> -10 50<211.062 338.729> 400 50<285.347 408.934>
VStem: 87 82<84.7649 262.479> 369 81<-117.449 21.375>
LayerCount: 2
Fore
SplineSet
87 155 m 0
 87 289 193 450 350 450 c 0
 403 450 445 432 474 402 c 1
 533 660 l 1
 613 660 l 1
 461 0 l 6
 454 -30 450 -54 450 -72 c 4
 450 -104 462 -120 487 -120 c 4
 506 -120 527 -115 546 -95 c 5
 602 -125 l 5
 569 -156 529 -170 491 -170 c 4
 430 -170 369 -141 369 -69 c 4
 369 -58 370 -46 373 -33 c 6
 386 23 l 1
 345 0 297 -10 244 -10 c 0
 141 -10 87 60 87 155 c 0
270 40 m 0
 370 40 437 157 437 286 c 0
 437 348 416 400 353 400 c 0
 257 400 169 277 169 170 c 0
 169 102 202 40 270 40 c 0
EndSplineSet
Validated: 1
EndChar

StartChar: uni0191
Encoding: 401 401 614
Width: 531
VWidth: 0
Flags: W
HStem: -170 50<-67.7988 45.9087> 390 50<272 489> 650 50<320 639>
LayerCount: 2
Fore
SplineSet
162 -33 m 6
 139 -132 47 -170 -23 -170 c 4
 -61 -170 -95 -156 -114 -125 c 5
 -44 -95 l 5
 -35 -115 -16 -120 3 -120 c 4
 43 -120 66 -82 85 0 c 6
 247 700 l 1
 651 700 l 17
 639 650 l 9
 320 650 l 1
 272 440 l 1
 501 440 l 17
 489 390 l 9
 260 390 l 1
 162 -33 l 6
EndSplineSet
Validated: 1
EndChar

StartChar: florin
Encoding: 402 402 615
Width: 273
VWidth: 0
Flags: W
HStem: -170 50<-71.7988 41.3289> 390 50<132 171 263 330> 620 50<315.21 406.861>
LayerCount: 2
Fore
SplineSet
153 -33 m 6
 130 -132 43 -170 -27 -170 c 4
 -65 -170 -99 -156 -118 -125 c 5
 -48 -95 l 5
 -39 -115 -20 -120 -1 -120 c 4
 39 -120 62 -82 81 0 c 6
 171 390 l 5
 105 390 l 1
 132 440 l 1
 183 440 l 1
 205 535 l 2
 223 615 281 670 361 670 c 0
 390 670 412 666 429 659 c 1
 396 605 l 1
 390 615 381 620 364 620 c 0
 324 620 299 597 279 509 c 2
 263 440 l 1
 342 440 l 1
 330 390 l 1
 251 390 l 5
 153 -33 l 6
EndSplineSet
Validated: 1
EndChar

StartChar: uni0194
Encoding: 404 404 616
Width: 563
VWidth: 0
Flags: W
HStem: -204 50<215 267.291> 680 20G<174 255.435 626.229 716>
VStem: 164 72<-153.205 -80.6339> 270 73<-153.722 -60.5339>
LayerCount: 2
Fore
SplineSet
247 -154 m 0
 256 -154 270 -148 270 -110 c 0
 270 -96 269 -78 268 -60 c 1
 253 -87 236 -122 236 -141 c 0
 236 -149 239 -154 247 -154 c 0
164 -149 m 0
 164 -110 220 -10 257 52 c 1
 174 700 l 1
 253 700 l 1
 319 158 l 1
 638 700 l 1
 716 700 l 1
 332 53 l 1
 335 32 343 -34 343 -85 c 0
 343 -103 342 -119 339 -130 c 0
 327 -180 285 -204 236 -204 c 0
 194 -204 164 -186 164 -149 c 0
EndSplineSet
Validated: 1
EndChar

StartChar: uni0263
Encoding: 611 611 617
Width: 402
VWidth: 0
Flags: W
HStem: -204 50<152.051 191.706> 420 20G<111 188.458 412.186 498>
VStem: 84 68<-153.204 -83.1165> 195 68<-151.541 -47.2633>
LayerCount: 2
Fore
SplineSet
84 -149 m 0
 84 -99 177 52 180 56 c 1
 111 440 l 1
 185 440 l 1
 236 145 l 1
 425 440 l 1
 498 440 l 1
 252 57 l 1
 257 27 263 -33 263 -79 c 0
 263 -100 262 -118 259 -130 c 0
 247 -180 205 -204 156 -204 c 0
 114 -204 84 -186 84 -149 c 0
192 -46 m 1
 172 -86 152 -123 152 -136 c 0
 152 -146 158 -154 167 -154 c 0
 178 -154 190 -143 193 -130 c 0
 194 -124 195 -113 195 -101 c 0
 195 -85 194 -66 192 -46 c 1
EndSplineSet
Validated: 1
EndChar

StartChar: uni01B2
Encoding: 434 434 618
Width: 685
VWidth: 0
Flags: W
HStem: -10 50<264.163 425.283> 680 20G<233.35 323 566 673>
VStem: 130 85<92.0793 325> 238 85<669.892 700> 616 88<320.078 617.616>
LayerCount: 2
Fore
SplineSet
566 700 m 1
 661 700 l 1
 685 632 704 578 704 495 c 0
 704 443 696 379 676 292 c 0
 633 104 466 -10 338 -10 c 0
 250 -10 130 10 130 179 c 0
 130 213 134 253 145 300 c 2
 238 700 l 1
 323 700 l 1
 230 300 l 2
 219 253 215 215 215 184 c 0
 215 49 300 40 355 40 c 0
 453 40 563 170 591 292 c 0
 609 370 616 430 616 479 c 0
 616 572 591 629 566 700 c 1
EndSplineSet
Validated: 1
EndChar

StartChar: uni028B
Encoding: 651 651 619
Width: 521
VWidth: 0
Flags: W
HStem: -10 50<215.772 340.816> 426 14G<167.333 252 387.153 428>
VStem: 105 84<67.0918 244.531> 439 80<173.592 351.101>
LayerCount: 2
Fore
SplineSet
288 40 m 0
 362 40 439 165 439 277 c 0
 439 353 397 377 366 387 c 1
 398 446 l 1
 458 431 519 381 519 281 c 0
 519 137 405 -10 262 -10 c 0
 153 -10 105 31 105 117 c 0
 105 141 109 169 116 200 c 2
 172 440 l 1
 252 440 l 1
 199 212 l 2
 192 183 189 158 189 137 c 0
 189 60 233 40 288 40 c 0
EndSplineSet
Validated: 1
EndChar

StartChar: uni01B7
Encoding: 439 439 622
Width: 503
VWidth: 0
Flags: W
HStem: -10 50<170.274 314.184> 650 50<239 471>
VStem: 65 69<76.3624 159> 426 85<162.561 339.538>
AnchorPoint: "top" 412 700 basechar 0
LayerCount: 2
Fore
SplineSet
247 40 m 0
 326 40 426 134 426 261 c 0
 426 325 397 382 309 382 c 2
 249 382 l 1
 471 650 l 1
 227 650 l 1
 239 700 l 1
 602 700 l 1
 381 432 l 1
 445 432 511 371 511 266 c 0
 511 107 367 -10 251 -10 c 0
 117 -10 65 47 65 131 c 0
 65 140 66 149 67 159 c 1
 135 166 l 1
 134 158 134 151 134 144 c 0
 134 82 169 40 247 40 c 0
EndSplineSet
Validated: 1
EndChar

StartChar: uni0292
Encoding: 658 658 623
Width: 459
VWidth: 0
Flags: W
HStem: -200 50<97.2736 250.692> 132 50<290 305.039> 390 50<146 378>
VStem: -6 68<-114.036 -93.5294> 341 81<-57.0348 96.3833>
AnchorPoint: "top" 327 490 basechar 0
LayerCount: 2
Fore
SplineSet
170 -150 m 0
 264 -150 341 -74 341 31 c 0
 341 90 308 132 218 132 c 2
 158 132 l 1
 378 390 l 1
 119 390 l 1
 146 440 l 1
 509 440 l 1
 290 182 l 1
 354 182 422 142 422 43 c 0
 422 -103 302 -200 174 -200 c 0
 72 -200 8 -152 -6 -96 c 1
 62 -72 l 1
 70 -121 117 -150 170 -150 c 0
EndSplineSet
Validated: 1
EndChar

StartChar: uni01E5
Encoding: 485 485 627
Width: 533
VWidth: 0
UnlinkRmOvrlpSave: 1
Flags: W
HStem: -170 50<129.02 275.248> -66 50<220 307 410 487> 30 50<201.338 351.673> 400 50<249.574 382.71 523.852 578.537>
VStem: 81 81<119.251 297.529> 579 36<376 398.09>
LayerCount: 2
Fore
SplineSet
353 51 m 1
 321 38 286 30 248 30 c 0
 141 30 81 91 81 190 c 0
 81 344 194 450 325 450 c 0
 383 450 423 430 450 398 c 1
 476 430 514 450 550 450 c 0
 589 450 615 425 615 392 c 0
 615 387 614 381 613 376 c 1
 579 376 l 1
 579 380 l 2
 579 391 568 400 552 400 c 0
 532 400 504 357 492 305 c 2
 449 118 l 2
 437 66 425 21 410 -16 c 1
 499 -16 l 1
 487 -66 l 1
 387 -66 l 1
 346 -137 286 -170 178 -170 c 0
 123 -170 70 -149 30 -125 c 1
 92 -73 l 1
 131 -105 169 -120 204 -120 c 0
 252 -120 284 -100 307 -66 c 1
 208 -66 l 1
 220 -16 l 1
 332 -16 l 1
 340 4 347 27 353 51 c 1
328 400 m 0
 216 400 162 294 162 196 c 0
 162 124 199 80 274 80 c 0
 310 80 341 91 367 111 c 1
 411 297 l 1
 409 357 383 400 328 400 c 0
EndSplineSet
EndChar

StartChar: uni0187
Encoding: 391 391 628
Width: 744
VWidth: 0
Flags: W
HStem: -10 50<305.802 487.033> 650 50<412.415 611.336 777.848 898.01>
VStem: 118 86<149.872 381.032>
LayerCount: 2
Fore
SplineSet
508 650 m 0
 303 650 204 400 204 255 c 0
 204 104 306 40 386 40 c 0
 463 40 531 72 581 129 c 1
 634 102 l 1
 569 38 469 -10 360 -10 c 0
 249 -10 118 70 118 249 c 0
 118 280 123 313 131 350 c 0
 189 600 374 700 505 700 c 0
 585 700 667 684 711 647 c 1
 749 688 804 705 851 705 c 0
 889 705 922 691 941 660 c 1
 871 630 l 1
 862 650 843 655 824 655 c 0
 784 655 762 617 743 535 c 1
 660 502 l 1
 663 516 665 529 665 541 c 0
 665 627 582 650 508 650 c 0
EndSplineSet
Validated: 1
EndChar

StartChar: uni0188
Encoding: 392 392 629
Width: 557
VWidth: 0
Flags: W
HStem: -10 50<218.408 372.284> 400 50<283.876 411.452> 499 50<562.388 675.905>
VStem: 87 81<88.6373 264.964> 440 72<330 359.615>
LayerCount: 2
Fore
SplineSet
87 158 m 0
 87 318 230 450 354 450 c 0
 396 450 428 440 453 422 c 1
 479 514 564 549 632 549 c 0
 670 549 703 535 722 504 c 1
 652 474 l 1
 643 494 624 499 605 499 c 0
 574 499 546 476 525 385 c 2
 512 330 l 1
 440 297 l 1
 438 357 412 400 357 400 c 0
 255 400 168 279 168 166 c 0
 168 88 216 40 294 40 c 0
 345 40 386 63 418 100 c 1
 473 77 l 1
 421 26 350 -10 268 -10 c 0
 158 -10 87 54 87 158 c 0
EndSplineSet
Validated: 1
EndChar

StartChar: uni0196
Encoding: 406 406 630
Width: 313
VWidth: 0
Flags: W
HStem: -10 50<191.278 271.379> 680 20G<241.358 331>
VStem: 108 82<41.0039 183.016>
LayerCount: 2
Fore
SplineSet
246 700 m 25
 331 700 l 25
 206 160 l 2
 197 120 190 90 190 70 c 0
 190 50 197 40 215 40 c 0
 234 40 240 45 259 65 c 1
 315 35 l 1
 282 4 257 -10 219 -10 c 0
 160 -10 108 17 108 86 c 0
 108 98 110 112 113 127 c 2
 246 700 l 25
EndSplineSet
Validated: 1
EndChar

StartChar: uni0197
Encoding: 407 407 631
Width: 251
VWidth: 0
Flags: W
HStem: 0 21G<84 173.615> 390 50<125 174 271 320> 680 20G<241.385 331>
VStem: 84 247
LayerCount: 2
Fore
SplineSet
113 390 m 1
 125 440 l 1
 186 440 l 1
 246 700 l 1
 331 700 l 1
 271 440 l 1
 332 440 l 1
 320 390 l 1
 259 390 l 1
 169 0 l 1
 84 0 l 1
 174 390 l 1
 113 390 l 1
EndSplineSet
Validated: 1
EndChar

StartChar: uni019F
Encoding: 415 415 632
Width: 701
VWidth: 0
Flags: W
HStem: -10 50<290.377 440.995> 325 50<223 642> 660 50<415.445 573.171>
VStem: 117 87<139.589 323.678> 662 86<376.435 567.798>
CounterMasks: 1 e0
LayerCount: 2
Fore
SplineSet
342 -10 m 0
 231 -10 117 67 117 239 c 0
 117 272 122 309 131 350 c 0
 189 600 365 710 499 710 c 0
 635 710 748 634 748 463 c 0
 748 429 744 391 734 350 c 0
 676 100 506 -10 342 -10 c 0
642 325 m 1
 211 325 l 1
 206 297 204 271 204 248 c 0
 204 102 293 40 359 40 c 0
 453 40 588 132 642 325 c 1
654 375 m 1
 660 405 662 433 662 458 c 0
 662 600 579 660 493 660 c 0
 407 660 277 568 223 375 c 1
 654 375 l 1
EndSplineSet
Validated: 1
EndChar

StartChar: uni01A4
Encoding: 420 420 633
Width: 642
VWidth: 0
Flags: W
HStem: 0 21G<195 284.625> 320 50<365 568.917> 448 21G<205 230.615> 650 50<292.981 344 430 623.273>
VStem: 145 87<489.29 593.378> 654 85<464.216 620.779>
LayerCount: 2
Fore
SplineSet
500 370 m 2
 592 370 654 469 654 551 c 0
 654 601 632 650 565 650 c 2
 430 650 l 1
 365 370 l 1
 500 370 l 2
739 551 m 0
 739 452 646 320 474 320 c 2
 354 320 l 1
 280 0 l 1
 195 0 l 1
 344 647 l 1
 241 630 232 547 232 526 c 0
 232 510 238 506 246 500 c 1
 221 448 l 1
 189 460 145 480 145 529 c 0
 145 597 223 700 357 700 c 2
 562 700 l 2
 696 700 739 623 739 551 c 0
EndSplineSet
Validated: 1
EndChar

StartChar: uni01A5
Encoding: 421 421 634
Width: 531
VWidth: 0
Flags: W
HStem: -8 50<228.641 351.991> 402 50<293.876 433.135> 562 50<293.671 406.799>
VStem: 467 80<178.308 365.472>
LayerCount: 2
Fore
SplineSet
547 281 m 0
 547 129 407 -8 265 -8 c 0
 219 -8 184 6 159 29 c 1
 106 -200 l 1
 26 -200 l 1
 182 475 l 2
 205 574 292 612 362 612 c 0
 400 612 434 598 453 567 c 1
 383 537 l 1
 374 557 355 562 336 562 c 0
 296 562 273 524 254 442 c 1
 250 423 l 1
 288 444 332 452 381 452 c 0
 486 452 547 379 547 281 c 0
292 42 m 0
 365 42 467 154 467 278 c 0
 467 344 440 402 385 402 c 0
 278 402 231 341 209 246 c 0
 202 217 197 186 197 157 c 0
 197 95 220 42 292 42 c 0
EndSplineSet
Validated: 1
EndChar

StartChar: uni01A9
Encoding: 425 425 635
Width: 508
VWidth: 0
Flags: W
HStem: 0 50<162 480> 650 50<305 622>
LayerCount: 2
Fore
SplineSet
305 650 m 1
 440 354 l 1
 162 50 l 1
 492 50 l 1
 480 0 l 1
 30 0 l 1
 350 354 l 1
 196 700 l 1
 622 700 l 1
 625 650 l 1
 305 650 l 1
EndSplineSet
Validated: 1
EndChar

StartChar: uni01B1
Encoding: 433 433 636
Width: 685
VWidth: 0
Flags: W
HStem: -10 50<273.996 432.992> 650 50<284 347 634 709>
VStem: 130 84<105.783 341.716> 611 82<284.406 517.732>
LayerCount: 2
Fore
SplineSet
350 40 m 0
 527 40 611 277 611 415 c 0
 611 498 584 565 533 580 c 1
 561 700 l 1
 721 700 l 1
 709 650 l 1
 634 650 l 1
 624 605 l 1
 658 563 693 485 693 395 c 0
 693 370 690 344 684 318 c 0
 630 86 467 -10 339 -10 c 0
 232 -10 130 57 130 213 c 0
 130 391 245 532 337 605 c 1
 347 650 l 1
 272 650 l 1
 284 700 l 1
 444 700 l 1
 416 580 l 1
 314 554 214 369 214 205 c 0
 214 95 266 40 350 40 c 0
EndSplineSet
Validated: 1
EndChar

StartChar: uni0268
Encoding: 616 616 637
Width: 250
VWidth: 0
Flags: W
HStem: -10 50<165 251.138> 253 50<92 145 237 287> 420 20G<184.328 269> 530 80<228 289>
VStem: 108 85<41.4688 132.189> 252 34<45.4626 64>
LayerCount: 2
Fore
SplineSet
198 135 m 2
 194 118 193 103 193 89 c 0
 193 60 200 40 214 40 c 0
 232 40 249 51 252 64 c 1
 286 64 l 1
 277 23 234 -10 189 -10 c 0
 141 -10 108 26 108 76 c 0
 108 85 109 94 111 104 c 2
 145 253 l 5
 80 253 l 5
 92 303 l 5
 157 303 l 5
 189 440 l 1
 269 440 l 1
 237 303 l 1
 299 303 l 1
 287 253 l 1
 225 253 l 1
 198 135 l 2
228 610 m 1
 308 610 l 1
 289 530 l 1
 209 530 l 1
 228 610 l 1
EndSplineSet
Validated: 1
EndChar

StartChar: uni0269
Encoding: 617 617 638
Width: 308
VWidth: 0
Flags: W
HStem: -10 50<186.517 247.795> 390 50<146 174>
VStem: 108 77<40.9666 183.203> 267 56<56.4034 115>
LayerCount: 2
Fore
SplineSet
146 440 m 1
 266 440 l 1
 201 160 l 2
 192 120 185 90 185 70 c 0
 185 50 194 40 217 40 c 0
 240 40 255 61 267 115 c 1
 323 115 l 1
 300 15 270 -10 214 -10 c 0
 155 -10 108 17 108 84 c 0
 108 97 109 111 113 127 c 2
 174 390 l 1
 134 390 l 1
 146 440 l 1
EndSplineSet
Validated: 1
EndChar

StartChar: uni0275
Encoding: 629 629 639
Width: 516
VWidth: 0
Flags: W
HStem: -10 50<201.624 340.946> 195 50<182 438> 400 50<284.67 416.066>
VStem: 86 80<76.6797 194.489> 452 82<246.286 360.785>
CounterMasks: 1 e0
LayerCount: 2
Fore
SplineSet
534 290 m 0
 534 185 465 -10 248 -10 c 0
 142 -10 86 50 86 147 c 0
 86 321 231 450 354 450 c 0
 462 450 534 397 534 290 c 0
438 195 m 1
 170 195 l 1
 168 180 166 165 166 152 c 0
 166 82 200 40 274 40 c 0
 343 40 409 103 438 195 c 1
182 245 m 1
 450 245 l 1
 452 258 452 270 452 281 c 0
 452 353 417 400 357 400 c 0
 288 400 213 340 182 245 c 1
EndSplineSet
Validated: 1
EndChar

StartChar: uni0283
Encoding: 643 643 640
Width: 353
VWidth: 0
Flags: W
HStem: -10 50<45.2012 158.329> 620 50<395.21 486.861>
LayerCount: 2
Fore
SplineSet
270 127 m 2
 247 28 160 -10 90 -10 c 0
 52 -10 18 4 -1 35 c 1
 69 65 l 1
 78 45 97 40 116 40 c 0
 156 40 179 78 198 160 c 2
 285 535 l 2
 303 615 361 670 441 670 c 0
 470 670 492 666 509 659 c 1
 476 605 l 1
 470 615 461 620 444 620 c 0
 404 620 379 597 359 509 c 2
 270 127 l 2
EndSplineSet
Validated: 1
EndChar

StartChar: uni028A
Encoding: 650 650 641
Width: 515
VWidth: 0
Flags: W
HStem: -10 50<200.646 342.762> 390 50<193 238 458 515>
VStem: 94 79<67.3749 214.115> 420 80<124.609 291.617>
LayerCount: 2
Fore
SplineSet
500 217 m 0
 500 85 383 -10 256 -10 c 0
 140 -10 94 64 94 131 c 0
 94 185 133 285 227 344 c 1
 238 390 l 1
 181 390 l 1
 193 440 l 1
 330 440 l 1
 303 326 l 1
 303 326 206 287 177 162 c 0
 174 150 173 138 173 127 c 0
 173 73 207 40 267 40 c 0
 359 40 420 117 420 214 c 0
 420 298 363 326 363 326 c 1
 390 440 l 1
 527 440 l 1
 515 390 l 1
 458 390 l 1
 447 344 l 1
 465 329 500 287 500 217 c 0
EndSplineSet
Validated: 1
EndChar

StartChar: ij
Encoding: 307 307 643
Width: 412
VWidth: 0
Flags: W
HStem: -170 50<120.201 233.329> 0 21G<60 144.636> 420 20G<157.364 242 370.364 455> 530 80<201 262 414 475>
LayerCount: 2
Fore
SplineSet
201 610 m 1
 281 610 l 1
 262 530 l 1
 182 530 l 1
 201 610 l 1
162 440 m 1
 242 440 l 1
 140 0 l 1
 60 0 l 1
 162 440 l 1
144 -95 m 1
 153 -115 172 -120 191 -120 c 0
 231 -120 254 -82 273 0 c 2
 375 440 l 1
 455 440 l 1
 345 -33 l 2
 322 -132 235 -170 165 -170 c 0
 127 -170 93 -156 74 -125 c 1
 144 -95 l 1
414 610 m 1
 494 610 l 1
 475 530 l 1
 395 530 l 1
 414 610 l 1
EndSplineSet
Validated: 1
EndChar

StartChar: uni018F
Encoding: 399 399 647
Width: 685
VWidth: 0
Flags: W
HStem: -10 50<279.912 431.846> 300 50<195.058 627> 660 50<386.16 568.039>
VStem: 107 87<139.762 298.821> 654 85<350.942 565.381>
LayerCount: 2
Fore
SplineSet
627 300 m 1
 197 300 l 1
 195 282 194 265 194 249 c 0
 194 102 285 40 343 40 c 0
 434 40 567 116 627 300 c 1
641 350 m 1
 650 390 654 426 654 458 c 0
 654 595 577 660 489 660 c 0
 405 660 340 622 296 575 c 1
 228 608 l 1
 287 665 380 710 516 710 c 0
 623 710 739 632 739 459 c 0
 739 426 735 390 726 350 c 0
 665 84 477 -10 332 -10 c 0
 221 -10 107 67 107 239 c 0
 107 272 112 309 121 350 c 1
 641 350 l 1
EndSplineSet
Validated: 1
EndChar

StartChar: uni019E
Encoding: 414 414 648
Width: 505
VWidth: 0
Flags: W
HStem: 0 21G<70 154.643> 400 50<87.8561 165.5 273.827 426.164>
VStem: 53 34<376 394.537> 335 80<-200 -169.737> 446 80<189.875 379.739>
AnchorPoint: "bottom" 262 0 basechar 0
AnchorPoint: "cedilla" 262 0 basechar 0
AnchorPoint: "top" 379 490 basechar 0
LayerCount: 2
Fore
SplineSet
140 305 m 2
 144 322 146 337 146 351 c 0
 146 380 138 400 124 400 c 0
 106 400 90 389 87 376 c 1
 53 376 l 1
 62 417 105 450 150 450 c 0
 181 450 205 435 219 411 c 1
 262 436 309 450 356 450 c 0
 469 450 526 405 526 313 c 0
 526 291 522 267 516 240 c 2
 415 -200 l 1
 335 -200 l 1
 434 228 l 2
 442 263 446 291 446 314 c 0
 446 382 411 400 359 400 c 0
 314 400 270 381 230 352 c 1
 229 347 229 342 228 336 c 2
 150 0 l 1
 70 0 l 1
 140 305 l 2
EndSplineSet
Validated: 1048577
EndChar

StartChar: uni0220
Encoding: 544 544 649
Width: 623
VWidth: 0
Flags: W
HStem: 0 21G<72 161.613> 660 50<374.599 548.933> 680 20G<228.4 318>
VStem: 416 85<-201 -170.522> 583 86<445.086 625.513>
LayerCount: 2
Fore
SplineSet
72 0 m 9xd8
 233 700 l 1
 318 700 l 1xb8
 311 666 l 1
 346 682 398 710 471 710 c 0
 591 710 669 660 669 557 c 0
 669 539 667 521 662 500 c 2
 501 -201 l 17
 416 -201 l 9
 574 488 l 2
 580 514 583 536 583 555 c 0
 583 638 531 660 474 660 c 0
 402 660 334 623 294 594 c 1
 157 0 l 17
 72 0 l 9xd8
EndSplineSet
Validated: 1
EndChar

StartChar: uni01A2
Encoding: 418 418 650
Width: 862
VWidth: 0
Flags: W
HStem: -10 50<290.251 442.93> 554 50<744.559 808.722> 660 50<413.51 573.509>
VStem: 117 86<139.589 375.918> 662 85<318.478 538.741> 810 82<414.484 552.996>
LayerCount: 2
Fore
SplineSet
733 -201 m 1
 648 -201 l 1
 794 434 l 2
 803 474 810 504 810 524 c 0
 810 544 803 554 785 554 c 0
 766 554 760 549 741 529 c 1
 745 508 747 485 747 461 c 0
 747 428 743 391 734 350 c 0
 676 100 506 -10 342 -10 c 0
 231 -10 117 67 117 239 c 0
 117 272 122 309 131 350 c 0
 189 600 365 710 499 710 c 0
 596 710 681 672 722 588 c 1
 741 599 758 604 781 604 c 0
 840 604 892 577 892 508 c 0
 892 496 890 482 887 467 c 2
 733 -201 l 1
493 660 m 0
 403 660 264 560 216 350 c 0
 207 312 203 278 203 248 c 0
 203 102 293 40 359 40 c 0
 457 40 601 140 649 350 c 0
 658 390 662 426 662 458 c 0
 662 600 579 660 493 660 c 0
EndSplineSet
Validated: 1
EndChar

StartChar: uni01A3
Encoding: 419 419 651
Width: 680
VWidth: 0
Flags: W
HStem: -10 50<201.624 340.159> 364 50<530.306 595.189> 400 50<284.281 416.236>
VStem: 86 80<76.6797 258.664> 452 81<178.301 349.862> 596 82<224.008 362.996>
LayerCount: 2
Fore
SplineSet
86 147 m 0xdc
 86 321 231 450 354 450 c 0xbc
 419 450 470 431 501 393 c 1
 521 407 542 414 568 414 c 0
 627 414 678 387 678 318 c 0
 678 306 676 292 673 277 c 2
 563 -200 l 1
 478 -200 l 1
 580 244 l 2
 589 284 596 314 596 334 c 0
 596 354 589 364 571 364 c 0
 552 364 546 359 527 339 c 1
 531 324 533 307 533 289 c 0
 533 185 465 -10 248 -10 c 0
 142 -10 86 50 86 147 c 0xdc
274 40 m 0
 377 40 452 172 452 281 c 0
 452 353 416 400 357 400 c 0
 257 400 166 282 166 152 c 0
 166 82 200 40 274 40 c 0
EndSplineSet
Validated: 1
EndChar

StartChar: uni01AC
Encoding: 428 428 652
Width: 642
VWidth: 0
Flags: W
HStem: 0 21G<270 359.615> 448 21G<205 230.615> 650 50<288.327 420 505 757>
VStem: 145 87<489.29 592.485>
LayerCount: 2
Fore
SplineSet
145 529 m 0
 145 597 223 700 357 700 c 2
 769 700 l 1
 757 650 l 1
 505 650 l 1
 355 0 l 1
 270 0 l 1
 420 650 l 1
 352 650 l 2
 288 650 232 590 232 526 c 0
 232 510 238 506 246 500 c 1
 221 448 l 1
 189 460 145 480 145 529 c 0
EndSplineSet
Validated: 1
EndChar

StartChar: uni01AE
Encoding: 430 430 653
Width: 625
VWidth: 0
Flags: W
HStem: -170 50<347.858 435.842> 650 50<182 420 505 757>
VStem: 258 86<-117.053 41.1641>
LayerCount: 2
Fore
SplineSet
355 0 m 2
 348 -30 344 -54 344 -72 c 0
 344 -104 356 -120 381 -120 c 0
 400 -120 421 -115 440 -95 c 1
 496 -125 l 1
 463 -156 423 -170 385 -170 c 0
 324 -170 258 -141 258 -67 c 0
 258 -57 259 -45 262 -33 c 2
 420 650 l 1
 170 650 l 1
 182 700 l 1
 769 700 l 1
 757 650 l 1
 505 650 l 1
 355 0 l 2
EndSplineSet
Validated: 1
EndChar

StartChar: uni0288
Encoding: 648 648 654
Width: 277
VWidth: 0
Flags: W
HStem: -170 50<165.125 252.842> 390 50<143 182 274 341>
VStem: 80 81<-117.449 41.1797>
LayerCount: 2
Fore
SplineSet
182 390 m 1
 116 390 l 1
 143 440 l 1
 194 440 l 1
 227 585 l 1
 311 600 l 1
 274 440 l 1
 353 440 l 1
 341 390 l 1
 262 390 l 1
 172 0 l 2
 165 -30 161 -54 161 -72 c 0
 161 -104 173 -120 198 -120 c 0
 217 -120 238 -115 257 -95 c 1
 313 -125 l 1
 280 -156 240 -170 202 -170 c 0
 141 -170 80 -141 80 -69 c 0
 80 -58 81 -46 84 -33 c 2
 182 390 l 1
EndSplineSet
Validated: 1
EndChar

StartChar: uni01AD
Encoding: 429 429 655
Width: 282
VWidth: 0
Flags: W
HStem: -10 50<169 255.138> 390 50<142 181 273 340> 620 50<327.055 439.905>
VStem: 112 85<41.4688 133.014> 256 34<45.4626 64>
LayerCount: 2
Fore
SplineSet
273 440 m 1
 352 440 l 1
 340 390 l 1
 261 390 l 1
 202 135 l 2
 198 118 197 103 197 89 c 0
 197 60 204 40 218 40 c 0
 236 40 253 51 256 64 c 1
 290 64 l 1
 281 23 238 -10 193 -10 c 0
 145 -10 112 26 112 76 c 0
 112 85 113 94 115 104 c 2
 181 390 l 1
 115 390 l 1
 142 440 l 1
 193 440 l 1
 215 533 l 2
 238 632 326 670 396 670 c 0
 434 670 467 656 486 625 c 1
 416 595 l 1
 407 615 388 620 369 620 c 0
 329 620 306 582 287 500 c 2
 273 440 l 1
EndSplineSet
Validated: 1
EndChar

StartChar: uni01B5
Encoding: 437 437 656
Width: 508
VWidth: 0
Flags: W
HStem: 0 50<151 480> 340 50<210 284 405 475> 650 50<212 516>
LayerCount: 2
Fore
SplineSet
516 650 m 1
 185 650 l 1
 212 700 l 1
 638 700 l 1
 405 390 l 1
 487 390 l 5
 475 340 l 5
 367 340 l 1
 151 50 l 1
 492 50 l 1
 480 0 l 1
 30 0 l 1
 284 340 l 1
 198 340 l 5
 210 390 l 5
 322 390 l 1
 516 650 l 1
EndSplineSet
Validated: 1
EndChar

StartChar: uni01B6
Encoding: 438 438 657
Width: 420
VWidth: 0
Flags: W
HStem: 0 50<158 402> 203 50<153 205 336 379> 390 50<138 370>
LayerCount: 2
Fore
SplineSet
370 390 m 1
 111 390 l 1
 138 440 l 1
 501 440 l 1
 336 253 l 1
 390 253 l 1
 379 203 l 1
 292 203 l 1
 158 50 l 1
 414 50 l 1
 402 0 l 1
 26 0 l 1
 205 203 l 1
 142 203 l 1
 153 253 l 1
 249 253 l 1
 370 390 l 1
EndSplineSet
Validated: 1
EndChar

StartChar: uni01C2
Encoding: 450 450 660
Width: 346
VWidth: 0
Flags: W
HStem: 0 21G<122 181.643> 280 50<91 187 253 345> 390 50<116 212 279 371> 680 20G<279.385 339>
VStem: 79 303
LayerCount: 2
Fore
SplineSet
187 280 m 1
 79 280 l 1
 91 330 l 1
 198 330 l 1
 212 390 l 1
 105 390 l 1
 116 440 l 1
 224 440 l 1
 284 700 l 1
 339 700 l 1
 279 440 l 1
 382 440 l 1
 371 390 l 1
 267 390 l 1
 253 330 l 1
 357 330 l 1
 345 280 l 1
 242 280 l 1
 177 0 l 1
 122 0 l 1
 187 280 l 1
EndSplineSet
Validated: 1
EndChar

StartChar: uni0222
Encoding: 546 546 692
Width: 550
VWidth: 0
Flags: W
HStem: -10 50<210.684 373.264> 660 50<343.974 394 476 505.027>
VStem: 82 85<82.1615 224.605> 188 88<466.417 579.158> 464 88<135.907 265.715> 531 86<486.124 632.82>
LayerCount: 2
Fore
SplineSet
390 405 m 1xf8
 453 429 531 468 531 562 c 0xf4
 531 615 501 660 464 660 c 1xf8
 476 710 l 1
 556 710 617 650 617 569 c 0xf4
 617 556 615 543 612 530 c 0
 590 436 523 400 446 374 c 1
 503 340 552 298 552 224 c 0
 552 105 443 -10 266 -10 c 0
 150 -10 82 57 82 141 c 0
 82 153 83 165 86 178 c 0
 111 287 193 332 280 365 c 1
 229 394 188 431 188 496 c 0
 188 610 306 710 406 710 c 1
 394 660 l 1
 332 660 276 572 276 518 c 0
 276 465 330 436 390 405 c 1xf8
284 40 m 0
 432 40 464 163 464 206 c 0xf8
 464 273 400 304 333 338 c 1
 259 312 193 273 171 178 c 0
 169 167 167 157 167 147 c 0
 167 86 212 40 284 40 c 0
EndSplineSet
Validated: 1
EndChar

StartChar: uni0223
Encoding: 547 547 693
Width: 490
VWidth: 0
Flags: W
HStem: -10 50<197.074 324.625> 550 49<281.905 356.469> 600 50<422 456.559>
VStem: 79 88<71.2383 218.278> 177 88<424.972 530.416> 405 88<132.163 270.351> 467 85<469.365 591.11>
LayerCount: 2
Fore
SplineSet
346 390 m 1xfc
 390 411 467 451 467 544 c 0
 467 583 446 600 411 600 c 1
 422 650 l 1
 500 650 552 620 552 550 c 0xfa
 552 439 464 391 402 364 c 1
 450 338 493 301 493 230 c 0
 493 214 490 197 486 178 c 0
 456 50 374 -10 236 -10 c 0
 141 -10 79 32 79 121 c 0
 79 263 188 319 255 349 c 1
 213 372 177 401 177 454 c 0
 177 531 236 599 326 599 c 0
 342 599 358 597 374 592 c 1
 350 544 l 1
 338 548 327 550 317 550 c 0
 271 550 265 478 265 471 c 0
 265 431 301 410 346 390 c 1xfc
254 40 m 0
 351 40 405 145 405 210 c 0xfc
 405 271 358 298 307 323 c 1
 259 301 167 250 167 140 c 0
 167 82 200 40 254 40 c 0
EndSplineSet
Validated: 1
EndChar

StartChar: uni0241
Encoding: 577 577 704
Width: 456
VWidth: 0
Flags: W
HStem: 0 21G<110 194.632> 272 48<253 339.069> 620 50<259.543 412.287>
VStem: 446 81<427.06 587.543>
LayerCount: 2
Fore
SplineSet
527 531 m 0
 527 365 384 272 253 272 c 1
 190 0 l 1
 110 0 l 1
 184 320 l 1
 242 320 l 2
 365 320 446 404 446 523 c 0
 446 591 404 620 328 620 c 0
 277 620 251 597 219 560 c 1
 165 583 l 1
 217 634 273 670 355 670 c 0
 463 670 527 626 527 531 c 0
EndSplineSet
Validated: 1
EndChar

StartChar: uni0242
Encoding: 578 578 705
Width: 426
VWidth: 0
Flags: W
HStem: 0 120<138 190> 72 48<207 278.344> 400 50<215.515 346.682>
VStem: 372 81<215.128 373.958>
LayerCount: 2
Fore
SplineSet
453 316 m 0xb0
 453 156 313 72 207 72 c 1x70
 190 0 l 1
 110 0 l 1
 138 120 l 1
 178 120 l 2
 344 120 372 247 372 309 c 0
 372 375 334 400 279 400 c 0
 228 400 198 367 166 330 c 1
 111 353 l 1
 163 404 224 450 306 450 c 0
 390 450 453 409 453 316 c 0xb0
EndSplineSet
Validated: 1
EndChar

StartChar: uni0251
Encoding: 593 593 706
Width: 550
VWidth: 0
Flags: W
HStem: -10 50<218.408 373.409 446.5 520.001> 400 50<283.876 411.194> 420 20G<455 540>
VStem: 87 81<88.6373 264.964> 378 83<53.2056 177.891> 523 34<46.13 64>
LayerCount: 2
Fore
SplineSet
87 158 m 0xbc
 87 318 230 450 354 450 c 0xdc
 396 450 429 439 455 420 c 1
 460 440 l 1
 540 440 l 1
 469 135 l 2
 464 112 461 94 461 79 c 0
 461 53 469 40 484 40 c 0
 500 40 520 49 523 64 c 1
 557 64 l 1
 548 25 503 -10 460 -10 c 0
 433 -10 411 2 396 21 c 1
 357 1 315 -10 268 -10 c 0
 158 -10 87 54 87 158 c 0xbc
357 400 m 0
 255 400 168 279 168 166 c 0
 168 88 216 40 294 40 c 0
 326 40 354 49 379 65 c 1
 379 68 378 72 378 75 c 0
 378 84 380 94 382 104 c 2
 435 333 l 1
 425 373 400 400 357 400 c 0
EndSplineSet
Validated: 1
EndChar

StartChar: uni2C6D
Encoding: 11373 11373 707
Width: 706
VWidth: 0
Flags: W
HStem: -10 50<305.802 486.846 580.529 661.379> 660 50<416.689 603.87> 680 20G<634 721>
VStem: 118 86<149.872 381.572> 498 82<61.2533 183.609>
LayerCount: 2
Fore
SplineSet
636 700 m 1xb8
 721 700 l 1xb8
 596 160 l 2
 587 120 580 90 580 70 c 0
 580 50 587 40 605 40 c 0
 624 40 630 45 649 65 c 1
 705 35 l 1
 672 4 647 -10 609 -10 c 0
 572 -10 539 0 519 24 c 1
 471 3 417 -10 360 -10 c 0
 249 -10 118 70 118 249 c 0
 118 280 123 313 131 350 c 0
 189 600 376 710 507 710 c 0xd8
 558 710 600 704 634 693 c 1
 636 700 l 1xb8
510 660 m 0xd8
 319 660 204 419 204 255 c 0
 204 104 306 40 386 40 c 0
 427 40 466 49 500 66 c 1
 499 73 498 79 498 87 c 0
 498 99 500 112 503 127 c 2
 619 629 l 1
 592 648 557 660 510 660 c 0xd8
EndSplineSet
Validated: 1
EndChar

StartChar: uni019C
Encoding: 412 412 708
Width: 914
VWidth: 0
Flags: W
HStem: -10 50<224.552 368.374 558.051 691.249> 0 21G<747 836.606>
VStem: 121 85<57.7049 252.156> 236 85<629.623 660>
LayerCount: 2
Fore
SplineSet
984 660 m 1xb0
 832 0 l 1
 747 0 l 1x70
 759 50 l 1
 736 26 698 -10 625 -10 c 0
 528 -10 490 14 467 62 c 1
 409 8 337 -10 292 -10 c 0
 178 -10 121 35 121 128 c 0
 121 150 124 173 130 200 c 2
 236 660 l 1
 321 660 l 1
 218 212 l 2
 210 176 206 147 206 124 c 0
 206 59 236 40 288 40 c 0
 360 41 436 84 463 200 c 2
 569 660 l 1
 654 660 l 1
 551 212 l 2
 543 176 539 147 539 124 c 0
 539 59 569 40 621 40 c 0
 693 40 758 112 783 154 c 1
 899 660 l 1
 984 660 l 1xb0
EndSplineSet
Validated: 1
EndChar

StartChar: uni026F
Encoding: 623 623 709
Width: 784
VWidth: 0
Flags: W
HStem: 0 50<163.449 302.808 435.409 579.723 679.5 757.144> 430 20G<137.417 222 409.385 494 690.357 775>
VStem: 75 77<60.4579 240.156> 614 85<79.3494 192.656> 758 34<55.4626 74>
LayerCount: 2
Fore
SplineSet
705 145 m 2
 701 128 699 113 699 99 c 0
 699 70 707 50 721 50 c 0
 739 50 755 61 758 74 c 1
 792 74 l 1
 783 33 740 0 695 0 c 0
 664 0 640 15 626 39 c 1
 585 14 551 0 504 0 c 0
 434 0 389 17 366 52 c 1
 324 24 274 0 227 0 c 0
 119 0 75 40 75 123 c 0
 75 148 79 177 87 210 c 2
 142 450 l 1
 222 450 l 1
 166 206 l 2
 157 167 152 137 152 115 c 0
 152 61 178 50 224 50 c 0
 269 50 305 66 333 99 c 1
 414 450 l 1
 494 450 l 1
 438 206 l 2
 429 168 424 138 424 116 c 0
 424 61 451 50 501 50 c 0
 545 50 579 67 614 95 c 1
 614 101 616 107 617 114 c 2
 695 450 l 1
 775 450 l 1
 705 145 l 2
EndSplineSet
Validated: 1
EndChar

StartChar: uni0271
Encoding: 625 625 710
Width: 717
VWidth: 0
Flags: W
HStem: -170 50<440.201 553.329> 0 21G<40 124.643 321 405.615> 400 50<57.8561 135.5 235.277 379.591 512.192 651.551>
VStem: 23 34<376 394.537> 116 85<306.963 370.651> 663 77<209.914 389.542>
LayerCount: 2
Fore
SplineSet
665 -33 m 2
 642 -132 555 -170 485 -170 c 0
 447 -170 413 -156 394 -125 c 1
 464 -95 l 1
 473 -115 492 -120 511 -120 c 0
 551 -120 574 -82 593 0 c 2
 649 244 l 2
 658 283 663 313 663 335 c 0
 663 389 637 400 591 400 c 0
 546 400 510 384 482 351 c 1
 401 0 l 1
 321 0 l 1
 377 244 l 2
 386 282 391 312 391 334 c 0
 391 389 364 400 314 400 c 0
 270 400 236 383 201 355 c 1
 201 349 199 343 198 336 c 2
 120 0 l 1
 40 0 l 1
 110 305 l 2
 114 322 116 337 116 351 c 0
 116 380 108 400 94 400 c 0
 76 400 60 389 57 376 c 1
 23 376 l 1
 32 417 75 450 120 450 c 0
 151 450 175 435 189 411 c 1
 230 436 264 450 311 450 c 0
 381 450 426 433 449 398 c 1
 491 426 541 450 588 450 c 0
 696 450 740 410 740 327 c 0
 740 302 736 273 728 240 c 2
 665 -33 l 2
EndSplineSet
Validated: 1
EndChar

StartChar: uni2C6E
Encoding: 11374 11374 711
Width: 723
VWidth: 0
Flags: W
HStem: -170 50<433.201 546.909> 0 21G<45 134.615> 680 20G<202.371 296.703 734.053 833>
LayerCount: 2
Fore
SplineSet
663 -33 m 2
 640 -132 548 -170 478 -170 c 0
 440 -170 406 -156 387 -125 c 1
 457 -95 l 1
 466 -115 485 -120 504 -120 c 0
 544 -120 567 -82 586 0 c 2
 706 520 l 1
 366 34 l 1
 250 520 l 1
 130 0 l 1
 45 0 l 1
 207 700 l 1
 292 700 l 1
 407 211 l 1
 748 700 l 1
 833 700 l 1
 663 -33 l 2
EndSplineSet
Validated: 1
EndChar

StartChar: uni027D
Encoding: 637 637 712
Width: 356
VWidth: 0
Flags: W
HStem: -170 50<143.125 230.842> 400 50<87.8561 165.5 258.54 401.288>
VStem: 53 34<376 394.537> 58 81<-117.449 41.4688> 146 85<257.469 374.107>
LayerCount: 2
Fore
SplineSet
140 305 m 2xd8
 144 322 146 337 146 351 c 0
 146 380 138 400 124 400 c 0
 106 400 90 389 87 376 c 1
 53 376 l 1xe8
 62 417 105 450 150 450 c 0
 181 450 205 435 219 411 c 1
 260 436 291 450 338 450 c 0
 375 450 404 445 427 436 c 1
 410 362 l 1
 402 391 370 400 333 400 c 0
 290 400 262 384 231 357 c 1
 231 350 230 343 228 336 c 2
 150 0 l 2
 143 -30 139 -54 139 -72 c 0
 139 -104 151 -120 176 -120 c 0
 195 -120 216 -115 235 -95 c 1
 291 -125 l 1
 258 -156 218 -170 180 -170 c 0
 119 -170 58 -141 58 -69 c 0
 58 -58 59 -46 62 -33 c 2
 140 305 l 2xd8
EndSplineSet
Validated: 1
EndChar

StartChar: uni0244
Encoding: 580 580 713
Width: 685
VWidth: 0
Flags: W
HStem: -10 50<276.353 440.566> 340 50<118 154 251 602 699 735> 680 20G<233.355 323 681.355 771>
VStem: 132 85<103.155 339.344>
LayerCount: 2
Fore
SplineSet
106 340 m 1
 118 390 l 1
 166 390 l 1
 238 700 l 1
 323 700 l 1
 251 390 l 1
 614 390 l 1
 686 700 l 1
 771 700 l 1
 699 390 l 1
 747 390 l 1
 735 340 l 1
 687 340 l 1
 678 298 l 2
 624 45 482 -10 338 -10 c 0
 249 -10 132 32 132 194 c 0
 132 224 136 259 145 298 c 2
 154 340 l 1
 106 340 l 1
602 340 m 1
 239 340 l 1
 230 298 l 2
 221 258 217 225 217 196 c 0
 217 66 299 40 355 40 c 0
 431 40 548 89 593 298 c 2
 602 340 l 1
EndSplineSet
Validated: 1
EndChar

StartChar: uni0289
Encoding: 649 649 714
Width: 542
VWidth: 0
Flags: W
HStem: -10 50<185.772 337.145 437.5 515.138> 203 50<62 87 179 398 489 521> 420 20G<137.294 222 448.401 533>
VStem: 75 84<67.0918 201.436> 372 85<69.3494 184.438> 516 34<45.4626 64>
LayerCount: 2
Fore
SplineSet
75 117 m 0
 75 134 77 161 87 203 c 1
 51 203 l 1
 62 253 l 1
 98 253 l 1
 142 440 l 1
 222 440 l 1
 179 253 l 1
 410 253 l 1
 453 440 l 1
 533 440 l 1
 489 253 l 1
 532 253 l 1
 521 203 l 1
 478 203 l 1
 462 135 l 2
 458 118 457 103 457 89 c 0
 457 60 464 40 478 40 c 0
 496 40 513 51 516 64 c 1
 550 64 l 1
 541 23 498 -10 453 -10 c 0
 422 -10 397 6 383 30 c 1
 337 5 279 -10 232 -10 c 0
 123 -10 75 31 75 117 c 0
398 203 m 1
 167 203 l 1
 162 178 159 156 159 137 c 0
 159 60 203 40 258 40 c 0
 302 40 337 57 372 85 c 1
 372 91 374 98 375 104 c 2
 398 203 l 1
EndSplineSet
Validated: 1
EndChar

StartChar: uni028C
Encoding: 652 652 715
Width: 455
VWidth: 0
Flags: W
HStem: 0 21G<24 115.882 348.353 424> 420 20G<274.091 368.636>
AnchorPoint: "bottom" 228 0 basechar 0
AnchorPoint: "top" 345 490 basechar 0
LayerCount: 2
Fore
SplineSet
286 440 m 1
 366 440 l 1
 424 0 l 1
 351 0 l 1
 306 340 l 1
 104 0 l 1
 24 0 l 1
 286 440 l 1
EndSplineSet
Validated: 1048577
EndChar

StartChar: uni0245
Encoding: 581 581 716
Width: 623
VWidth: 0
Flags: W
HStem: 0 21G<15 106.913 530.338 613> 680 20G<420.086 522.657>
AnchorPoint: "bottom" 312 0 basechar 0
AnchorPoint: "top" 476 700 basechar 0
LayerCount: 2
Fore
SplineSet
453 601 m 1
 95 0 l 1
 15 0 l 1
 432 700 l 1
 520 700 l 1
 613 0 l 1
 533 0 l 1
 453 601 l 1
EndSplineSet
Validated: 1048577
EndChar

StartChar: uni2C64
Encoding: 11364 11364 718
Width: 546
VWidth: 0
Flags: W
HStem: -170 50<162.858 250.842> 0 21G<440 524> 320 50<255 371.596> 650 50<320 513.273>
VStem: 73 86<-117.053 37.8594> 445 83<0 185.722> 544 85<465.57 620.779>
LayerCount: 2
Fore
SplineSet
629 551 m 0
 629 468 564 365 449 332 c 1
 490 279 528 152 528 56 c 0
 528 35 526 17 522 0 c 1
 440 0 l 1
 444 16 445 33 445 52 c 0
 445 147 404 273 353 320 c 1
 244 320 l 1
 170 0 l 2
 163 -30 159 -54 159 -72 c 0
 159 -104 171 -120 196 -120 c 0
 215 -120 236 -115 255 -95 c 1
 311 -125 l 1
 278 -156 238 -170 200 -170 c 0
 139 -170 73 -141 73 -67 c 0
 73 -57 74 -45 77 -33 c 2
 247 700 l 1
 452 700 l 2
 586 700 629 623 629 551 c 0
390 370 m 2
 482 370 544 469 544 551 c 0
 544 601 522 650 455 650 c 2
 320 650 l 1
 255 370 l 1
 390 370 l 2
EndSplineSet
Validated: 1
EndChar

StartChar: uni048A
Encoding: 1162 1162 737
Width: 704
VWidth: 0
Flags: W
HStem: 0 21G<45 134.667> 680 20G<202.371 292 636.333 726> 700 57<412.822 526.916>
VStem: 362 41<771.298 793>
LayerCount: 2
Fore
SplineSet
641 700 m 1
 726 700 l 1
 576 50 l 1
 688 50 l 1
 574 -124 l 1
 528 -124 l 1
 582 0 l 1
 479 0 l 1
 606 548 l 1
 137 30 l 1
 130 0 l 1
 45 0 l 1
 207 700 l 1
 292 700 l 1
 165 151 l 1
 634 670 l 1
 641 700 l 1
467 757 m 0
 504 757 545 781 553 803 c 1
 589 793 l 1
 571 743 512 700 454 700 c 0
 400 700 362 738 362 784 c 0
 362 787 363 790 363 793 c 1
 403 803 l 1
 403 801 l 2
 403 780 431 757 467 757 c 0
EndSplineSet
Validated: 1
EndChar

StartChar: uni048B
Encoding: 1163 1163 738
Width: 629
VWidth: 0
Flags: W
HStem: -10 60<461.225 507.983> -10 50<185.772 337.145> 420 20G<137.333 222 448.357 533> 530 57<318.822 432.916>
VStem: 75 84<67.0918 244.531> 268 41<601.298 623> 372 85<69.7437 133.037>
LayerCount: 2
Fore
SplineSet
508 0 m 1xbe
 508 0 485 -10 453 -10 c 0
 422 -10 397 6 383 30 c 1
 337 5 279 -10 232 -10 c 0
 123 -10 75 31 75 117 c 0
 75 141 79 169 86 200 c 2
 142 440 l 1
 222 440 l 1
 169 212 l 2
 162 183 159 158 159 137 c 0
 159 60 203 40 258 40 c 0x7e
 302 40 337 57 372 85 c 1
 372 91 374 98 375 104 c 2
 453 440 l 1
 533 440 l 1
 462 135 l 2
 458 118 457 103 457 89 c 0
 457 60 486 50 501 50 c 2
 614 50 l 1
 499 -124 l 1
 453 -124 l 1
 508 0 l 1xbe
373 587 m 0
 410 587 451 611 459 633 c 1
 495 623 l 1
 477 573 418 530 360 530 c 0
 306 530 268 568 268 614 c 0
 268 617 269 620 269 623 c 1
 309 633 l 1
 309 631 l 2
 309 610 337 587 373 587 c 0
EndSplineSet
Validated: 1
EndChar

StartChar: uni048C
Encoding: 1164 1164 739
Width: 572
VWidth: 0
Flags: W
HStem: 0 50<222 410.464> 390 50<312 485.245> 530 50<174 247 344 442> 680 20G<282.333 372>
VStem: 519 84<176.76 353.775>
LayerCount: 2
Fore
SplineSet
603 267 m 0
 603 164 505 0 325 0 c 2
 125 0 l 1
 247 530 l 1
 162 530 l 1
 174 580 l 1
 259 580 l 1
 287 700 l 1
 372 700 l 1
 344 580 l 1
 454 580 l 1
 442 530 l 1
 332 530 l 1
 312 440 l 1
 425 440 l 2
 543 440 603 356 603 267 c 0
352 50 m 2
 441 50 519 173 519 274 c 0
 519 332 496 390 430 390 c 2
 300 390 l 1
 222 50 l 1
 352 50 l 2
EndSplineSet
Validated: 1
EndChar

StartChar: uni048D
Encoding: 1165 1165 740
Width: 507
VWidth: 0
Flags: W
HStem: -10 50<247.288 380.424> 235 50<281.621 420.919> 318 50<110 193 284 378> 420 20G<216.278 301>
VStem: 151 76<60.7662 179.136> 435 82<97.9682 220.636>
LayerCount: 2
Fore
SplineSet
359 235 m 0
 253 235 227 148 227 109 c 0
 227 61 266 40 315 40 c 0
 390 40 435 111 435 172 c 0
 435 207 418 235 359 235 c 0
517 186 m 0
 517 108 467 -10 284 -10 c 0
 247 -10 151 4 151 114 c 0
 151 130 153 149 158 170 c 2
 193 318 l 1
 98 318 l 5
 110 368 l 5
 204 368 l 1
 221 440 l 1
 301 440 l 1
 284 368 l 1
 390 368 l 5
 378 318 l 5
 273 318 l 1
 258 255 l 1
 273 270 328 285 359 285 c 0
 472 285 517 252 517 186 c 0
EndSplineSet
Validated: 1
EndChar

StartChar: uni048E
Encoding: 1166 1166 741
Width: 474
VWidth: 0
Flags: W
HStem: 0 21G<45 134.625> 320 50<215 389.263> 650 50<280 473.273>
VStem: 504 85<464.957 620.779>
LayerCount: 2
Fore
SplineSet
280 650 m 1
 215 370 l 1
 350 370 l 2
 364 370 377 373 390 377 c 1
 355 425 l 1
 419 470 l 1
 448 414 l 1
 484 450 504 503 504 551 c 0
 504 601 482 650 415 650 c 2
 280 650 l 1
420 335 m 1
 391 325 360 320 324 320 c 2
 204 320 l 1
 130 0 l 1
 45 0 l 1
 207 700 l 1
 412 700 l 2
 546 700 589 623 589 551 c 0
 589 486 549 408 474 361 c 1
 512 287 l 1
 475 261 l 1
 420 335 l 1
EndSplineSet
Validated: 1
EndChar

StartChar: uni048F
Encoding: 1167 1167 742
Width: 491
VWidth: 0
Flags: W
HStem: -8 50<196.641 320.214> 400 50<58.6252 137 259.059 404.003>
VStem: 23 34<376 392.753> 435 80<179.282 365.472>
LayerCount: 2
Fore
SplineSet
110 305 m 2
 115 328 120 349 120 365 c 0
 120 386 113 400 94 400 c 0
 78 400 60 388 57 376 c 1
 23 376 l 1
 32 417 77 450 120 450 c 0
 154 450 179 433 192 407 c 1
 235 439 288 452 349 452 c 0
 454 452 515 379 515 281 c 0
 515 198 474 120 413 66 c 1
 454 -15 l 1
 417 -41 l 1
 365 30 l 1
 324 6 279 -8 233 -8 c 0
 187 -8 152 5 127 29 c 1
 74 -200 l 1
 -6 -200 l 1
 110 305 l 2
334 73 m 1
 297 123 l 1
 361 168 l 1
 383 124 l 1
 413 166 435 221 435 278 c 0
 435 344 408 402 353 402 c 0
 246 402 199 341 177 246 c 0
 170 217 165 186 165 157 c 0
 165 95 188 42 260 42 c 0
 283 42 309 54 334 73 c 1
EndSplineSet
Validated: 1
EndChar

StartChar: uni0492
Encoding: 1170 1170 743
Width: 555
VWidth: 0
Flags: W
HStem: 0 21G<133 222.615> 390 50<142 223 320 410> 650 50<368 687>
LayerCount: 2
Fore
SplineSet
130 390 m 1
 142 440 l 1
 235 440 l 1
 295 700 l 1
 699 700 l 1
 687 650 l 1
 368 650 l 1
 320 440 l 1
 422 440 l 1
 410 390 l 1
 308 390 l 1
 218 0 l 1
 133 0 l 1
 223 390 l 1
 130 390 l 1
EndSplineSet
Validated: 1
EndChar

StartChar: uni0493
Encoding: 1171 1171 744
Width: 387
VWidth: 0
Flags: W
HStem: -10 50<180.914 303.293> 192 50<93 155 310 361> 400 50<186.656 308.086>
VStem: 91 85<47.0141 128.808> 313 85<322.012 392.824>
LayerCount: 2
Fore
SplineSet
176 80 m 0
 176 50 199 40 242 40 c 0
 277 40 337 77 353 108 c 1
 385 100 l 1
 351 32 295 -10 217 -10 c 0
 125 -10 91 26 91 76 c 0
 91 114 119 154 155 192 c 1
 81 192 l 1
 93 242 l 1
 207 242 l 1
 261 291 313 334 313 360 c 0
 313 389 290 400 247 400 c 0
 212 400 152 362 135 331 c 1
 103 339 l 1
 137 408 193 450 272 450 c 0
 364 450 398 414 398 364 c 0
 398 329 357 286 310 242 c 1
 373 242 l 1
 361 192 l 1
 256 192 l 1
 213 151 176 112 176 80 c 0
EndSplineSet
Validated: 1
EndChar

StartChar: uni0494
Encoding: 1172 1172 745
Width: 570
VWidth: 0
Flags: W
HStem: -106 50<278.804 378.709> -29 20G<238.154 269.5> 0 21G<85 174.589> 400 50<294.673 456.94> 650 50<320 639>
VStem: 480 86<182.891 376.637>
LayerCount: 2
Fore
SplineSet
251 353 m 1
 170 0 l 1
 85 0 l 1
 247 700 l 1
 651 700 l 1
 639 650 l 1
 320 650 l 1
 268 425 l 1
 303 441 347 450 384 450 c 0
 500 450 566 403 566 306 c 0
 566 286 563 264 557 240 c 2
 535 142 l 1
 489 -58 398 -106 308 -106 c 0
 272 -106 224 -89 200 -61 c 1
 262 -9 l 1
 277 -41 299 -56 334 -56 c 0
 373 -56 415 -12 445 120 c 2
 470 228 l 2
 477 260 480 286 480 308 c 0
 480 381 441 400 387 400 c 0
 342 400 291 382 251 353 c 1
EndSplineSet
Validated: 1
EndChar

StartChar: uni0495
Encoding: 1173 1173 746
Width: 489
VWidth: 0
Flags: W
HStem: -115 50<226.568 312.589> 0 21G<60 144.583> 238 50<221.53 360.716> 390 50<230 439>
VStem: 372 79<43.1015 225.804>
LayerCount: 2
Fore
SplineSet
276 -65 m 0
 345 -65 372 133 372 171 c 0
 372 223 349 238 302 238 c 0
 257 238 224 221 184 192 c 1
 140 0 l 1
 60 0 l 1
 162 440 l 1
 451 440 l 1
 439 390 l 1
 230 390 l 1
 201 264 l 1
 236 280 261 288 298 288 c 0
 406 288 451 248 451 165 c 0
 451 101 417 -115 249 -115 c 0
 206 -115 166 -100 152 -70 c 1
 214 -18 l 1
 226 -54 241 -65 276 -65 c 0
EndSplineSet
Validated: 1
EndChar

StartChar: uni0496
Encoding: 1174 1174 747
Width: 745
VWidth: 0
Flags: W
HStem: 0 21G<18 105.5 328 417.615> 650 50<190 214.375 817.867 863>
VStem: 18 85<0 33.115> 638 86<0 87.0441> 689 57<-156.188 -90.8211>
LayerCount: 2
Fore
SplineSet
488 325 m 1xf0
 413 0 l 1
 328 0 l 1
 403 325 l 1
 312 292 108 19 103 0 c 1
 18 0 l 1
 25 33 198 268 343 350 c 1
 240 428 260 650 178 650 c 1
 190 700 l 1
 373 700 345 426 416 380 c 1
 490 700 l 1
 575 700 l 1
 501 380 l 1
 593 427 692 700 875 700 c 1
 863 650 l 1
 780 650 699 427 560 349 c 1
 661 271 724 57 724 7 c 0xf0
 724 4 723 2 723 0 c 6
 702 -61 l 5
 734 -72 746 -99 746 -116 c 4
 746 -151 697 -180 658 -194 c 5
 651 -182 l 5
 668 -171 689 -148 689 -124 c 4xe8
 689 -103 671 -89 644 -80 c 5
 676 0 l 5
 638 0 l 1
 638 2 l 2
 638 35 563 292 489 325 c 1
 488 325 l 1xf0
EndSplineSet
Validated: 1
EndChar

StartChar: uni0497
Encoding: 1175 1175 748
Width: 628
VWidth: 0
Flags: W
HStem: -10 50<20.6735 74.4491> 0 21G<274 358.649> 390 50<136 167.457 627.892 684>
VStem: -16 36<41.7456 64> 505 85<0.187504 89.3762> 555 57<-156.188 -90.8211>
LayerCount: 2
Fore
SplineSet
397 185 m 1x78
 354 0 l 1
 274 0 l 1x78
 317 185 l 1
 306 186 296 188 287 190 c 1
 242 157 186 97 154 50 c 1
 127 13 88 -10 49 -10 c 0
 11 -10 -16 14 -16 48 c 0
 -16 53 -15 59 -14 64 c 1
 20 64 l 1
 20 60 l 2
 20 49 32 40 46 40 c 0
 72 40 93 108 235 221 c 1
 180 280 212 390 124 390 c 1
 136 440 l 1
 318 440 265 269 329 239 c 1
 376 440 l 1
 456 440 l 1
 409 239 l 1
 488 269 514 440 696 440 c 1
 684 390 l 1
 596 390 577 280 495 221 c 1
 553 149 590 45 590 8 c 0xb8
 590 5 589 2 589 0 c 2
 568 -61 l 1
 600 -72 612 -99 612 -116 c 0
 612 -151 563 -180 524 -194 c 1
 517 -182 l 1
 534 -171 555 -148 555 -124 c 0x74
 555 -103 537 -89 510 -80 c 1
 542 0 l 1
 504 0 l 1
 505 4 505 8 505 13 c 0
 505 57 469 147 430 190 c 1
 419 188 408 186 397 185 c 1x78
EndSplineSet
Validated: 1
EndChar

